{"glyphs":{"0":{"ha":1433,"x_min":0,"x_max":0,"o":"m 985 842 b 1103 731 1064 842 1103 806 l 1103 285 b 985 174 1103 210 1064 174 l 447 174 b 329 285 368 174 329 211 l 329 731 b 447 842 329 806 368 842 z m 1061 0 b 1335 247 1244 0 1335 82 l 1335 768 b 1061 1015 1335 933 1244 1015 l 371 1015 b 97 768 188 1015 97 933 l 97 247 b 371 0 97 82 188 0 z "},"1":{"ha":690,"x_min":0,"x_max":0,"o":"m 354 0 l 586 0 l 586 796 b 340 1015 586 942 504 1015 l 49 1015 l 49 842 l 249 842 b 354 743 319 842 354 808 z "},"2":{"ha":1336,"x_min":0,"x_max":0,"o":"m 360 650 b 81 403 172 650 81 568 l 81 0 l 1257 0 l 1257 174 l 308 174 l 308 390 b 432 503 308 465 350 503 l 1013 503 b 1260 707 1178 503 1260 571 l 1260 811 b 1013 1015 1260 947 1178 1015 l 117 1015 l 117 842 l 939 842 b 1031 775 1000 842 1031 819 l 1031 719 b 939 650 1031 674 1000 650 z "},"3":{"ha":1358,"x_min":0,"x_max":0,"o":"m 106 174 l 106 0 l 1008 0 b 1282 233 1192 0 1282 78 l 1282 383 b 1167 567 1282 474 1243 535 b 1272 724 1236 593 1272 644 l 1272 814 b 1035 1015 1272 949 1193 1015 l 106 1015 l 106 842 l 971 842 b 1051 776 1024 842 1051 821 l 1051 715 b 971 650 1051 672 1024 650 l 371 650 l 371 503 l 938 503 b 1056 403 1017 503 1056 469 l 1056 272 b 938 174 1056 206 1017 174 z "},"4":{"ha":1428,"x_min":0,"x_max":0,"o":"m 1247 1015 l 1022 1015 l 1022 451 l 419 451 b 315 550 350 451 315 485 l 315 1015 l 83 1015 l 83 508 b 328 289 83 363 164 289 l 1022 289 l 1022 0 l 1247 0 l 1247 289 l 1378 289 l 1378 451 l 1247 451 z "},"5":{"ha":1336,"x_min":0,"x_max":0,"o":"m 1260 647 l 399 647 b 307 717 338 647 307 671 l 307 842 l 1239 842 l 1239 1015 l 81 1015 l 81 710 b 326 506 81 574 163 506 l 1032 506 l 1032 285 b 908 174 1032 211 990 174 l 83 174 l 83 0 l 981 0 b 1260 247 1167 0 1260 82 z "},"6":{"ha":1376,"x_min":0,"x_max":0,"o":"m 1057 0 b 1303 219 1221 0 1303 74 l 1303 429 b 1057 650 1303 576 1221 650 l 326 650 l 326 743 b 433 842 326 808 363 842 l 1201 842 l 1201 1015 l 344 1015 b 97 796 181 1015 97 942 l 97 219 b 344 0 97 74 181 0 z m 972 503 b 1078 403 1043 503 1078 469 l 1078 269 b 972 169 1078 203 1043 169 l 433 169 b 326 269 363 169 326 203 l 326 503 z "},"7":{"ha":1319,"x_min":0,"x_max":0,"o":"m 78 842 l 1006 842 l 242 10 l 242 0 l 524 0 l 1201 769 b 1243 860 1232 801 1243 826 l 1243 921 b 1106 1015 1243 985 1197 1015 l 78 1015 z "},"8":{"ha":1403,"x_min":0,"x_max":0,"o":"m 1051 0 b 1324 233 1233 0 1324 78 l 1324 383 b 1208 567 1324 474 1285 535 b 1314 724 1279 593 1314 644 l 1314 814 b 1078 1015 1314 949 1235 1015 l 324 1015 b 88 814 165 1015 88 949 l 88 724 b 193 567 88 644 122 593 b 78 383 115 535 78 475 l 78 233 b 349 0 78 78 168 0 z m 981 506 b 1097 406 1058 506 1097 472 l 1097 265 b 981 167 1097 200 1058 167 l 421 167 b 304 265 343 167 304 200 l 304 406 b 421 506 304 472 343 506 z m 1013 849 b 1093 782 1065 849 1093 826 l 1093 713 b 1013 647 1093 668 1065 647 l 389 647 b 308 713 335 647 308 668 l 308 782 b 389 849 308 826 335 849 z "},"9":{"ha":1376,"x_min":0,"x_max":0,"o":"m 319 1015 b 72 796 156 1015 72 942 l 72 675 b 319 454 72 528 156 454 l 1049 454 l 1049 272 b 943 174 1049 206 1014 174 l 183 174 l 183 0 l 1032 0 b 1279 219 1196 0 1279 74 l 1279 796 b 1032 1015 1279 942 1196 1015 z m 299 703 l 299 747 b 403 847 299 814 333 847 l 943 847 b 1049 747 1014 847 1049 814 l 1049 601 l 403 601 b 299 703 333 601 299 635 z "},"\u0000":{"ha":0,"x_min":0,"x_max":0,"o":""}," ":{"ha":494,"x_min":0,"x_max":0,"o":""},"\u0017":{"ha":494,"x_min":0,"x_max":0,"o":""},"!":{"ha":444,"x_min":0,"x_max":0,"o":"m 342 1015 l 101 1015 l 131 324 l 314 324 z m 281 0 b 333 47 315 0 333 15 l 333 131 b 281 179 333 164 315 179 l 164 179 b 110 131 128 179 110 164 l 110 46 b 164 0 110 15 128 0 z "},"\"":{"ha":557,"x_min":0,"x_max":0,"o":"m 229 1015 l 49 1015 l 68 589 l 211 589 z m 507 1015 l 326 1015 l 346 589 l 489 589 z "},"#":{"ha":815,"x_min":0,"x_max":0,"o":"m 346 1015 l 236 1015 l 211 703 l 85 703 l 85 601 l 204 601 l 189 411 l 58 411 l 58 311 l 182 311 l 158 0 l 268 0 l 292 311 l 496 311 l 472 0 l 579 0 l 603 311 l 732 311 l 732 411 l 611 411 l 625 601 l 758 601 l 758 703 l 633 703 l 658 1015 l 549 1015 l 525 703 l 321 703 z m 314 601 l 517 601 l 503 411 l 299 411 z "},"$":{"ha":1263,"x_min":0,"x_max":0,"o":"m 701 1139 l 593 1139 l 593 974 l 317 974 b 88 788 164 974 88 911 l 88 690 b 317 500 88 564 164 500 l 849 500 b 960 400 922 500 960 467 l 960 303 b 849 201 960 235 922 201 l 90 201 l 90 42 l 593 42 l 593 -124 l 701 -124 l 701 42 l 917 42 b 1172 268 1088 42 1172 117 l 1172 411 b 917 638 1172 561 1088 638 l 383 638 b 300 703 328 638 300 658 l 300 753 b 383 814 300 793 328 814 l 1138 814 l 1138 974 l 701 974 z "},"%":{"ha":1668,"x_min":0,"x_max":0,"o":"m 532 917 b 585 868 567 917 585 901 l 585 607 b 532 558 585 574 567 558 l 251 558 b 199 607 217 558 199 574 l 199 868 b 251 917 199 901 215 917 z m 581 457 b 717 578 671 457 717 497 l 717 894 b 581 1015 717 975 671 1015 l 203 1015 b 67 894 111 1015 67 975 l 67 578 b 203 457 67 497 111 457 z m 547 0 l 1239 1015 l 1122 1015 l 428 0 z m 1415 460 b 1468 411 1450 460 1468 444 l 1468 150 b 1415 101 1468 117 1450 101 l 1135 101 b 1082 150 1100 101 1082 117 l 1082 411 b 1135 460 1082 444 1099 460 z m 1464 0 b 1600 121 1554 0 1600 40 l 1600 438 b 1464 558 1600 518 1554 558 l 1086 558 b 950 438 994 558 950 518 l 950 121 b 1086 0 950 40 994 0 z "},"&":{"ha":1314,"x_min":0,"x_max":0,"o":"m 1229 503 l 1229 650 l 389 650 b 308 715 335 650 308 672 l 308 776 b 389 842 308 821 335 842 l 800 842 l 800 1015 l 324 1015 b 88 814 165 1015 88 949 l 88 724 b 192 567 88 644 122 593 b 78 383 115 535 78 474 l 78 233 b 350 0 78 78 168 0 l 1233 0 l 1233 174 l 1051 174 l 1051 503 z m 421 174 b 304 272 343 174 304 206 l 304 403 b 421 503 304 469 343 503 l 863 503 l 863 174 z "},"'":{"ha":278,"x_min":0,"x_max":0,"o":"m 229 1015 l 49 1015 l 68 589 l 211 589 z "},"(":{"ha":651,"x_min":0,"x_max":0,"o":"m 157 292 b 543 -344 157 -132 285 -344 l 589 -344 l 589 -236 l 543 -236 b 265 292 357 -236 265 -61 l 265 686 b 543 1214 265 1038 357 1214 l 589 1214 l 589 1322 l 543 1322 b 157 686 285 1322 157 1110 z "},")":{"ha":651,"x_min":0,"x_max":0,"o":"m 494 686 b 108 1322 494 1110 367 1322 l 63 1322 l 63 1214 l 108 1214 b 386 686 294 1214 386 1039 l 386 292 b 108 -236 386 -60 294 -236 l 63 -236 l 63 -344 l 108 -344 b 494 292 367 -344 494 -132 z "},"*":{"ha":810,"x_min":0,"x_max":0,"o":"m 53 722 l 339 644 l 151 415 l 240 351 l 401 599 l 563 350 l 651 415 l 465 644 l 751 722 l 717 826 l 440 719 l 457 1015 l 347 1015 l 363 719 l 86 825 z "},"+":{"ha":1015,"x_min":0,"x_max":0,"o":"m 911 561 l 563 561 l 563 933 l 454 933 l 454 561 l 106 561 l 106 453 l 454 453 l 454 82 l 563 82 l 563 453 l 911 453 z "},",":{"ha":393,"x_min":0,"x_max":0,"o":"m 143 -246 l 263 -246 l 306 97 b 308 131 308 111 308 121 b 251 179 308 163 289 179 l 138 179 b 85 132 101 179 85 164 l 85 46 b 138 0 85 15 101 0 l 167 0 z "},"‚":{"ha":393,"x_min":0,"x_max":0,"o":"m 143 -246 l 263 -246 l 306 97 b 308 131 308 111 308 121 b 251 179 308 163 289 179 l 138 179 b 85 132 101 179 85 164 l 85 46 b 138 0 85 15 101 0 l 167 0 z "},"-":{"ha":697,"x_min":0,"x_max":0,"o":"m 49 461 l 649 461 l 649 594 l 49 594 z "},"‐":{"ha":697,"x_min":0,"x_max":0,"o":"m 49 461 l 649 461 l 649 594 l 49 594 z "},".":{"ha":393,"x_min":0,"x_max":0,"o":"m 254 0 b 308 47 290 0 308 15 l 308 131 b 254 179 308 164 290 179 l 139 179 b 85 131 103 179 85 164 l 85 47 b 139 0 85 15 103 0 z "},"/":{"ha":685,"x_min":0,"x_max":0,"o":"m 140 -206 l 660 1185 l 544 1185 l 25 -206 z "},"З":{"ha":1358,"x_min":0,"x_max":0,"o":"m 106 174 l 106 0 l 1008 0 b 1282 233 1192 0 1282 78 l 1282 383 b 1167 567 1282 474 1243 535 b 1272 724 1236 593 1272 644 l 1272 814 b 1035 1015 1272 949 1193 1015 l 106 1015 l 106 842 l 971 842 b 1051 776 1024 842 1051 821 l 1051 715 b 971 650 1051 672 1024 650 l 371 650 l 371 503 l 938 503 b 1056 403 1017 503 1056 469 l 1056 272 b 938 174 1056 206 1017 174 z "},"з":{"ha":1358,"x_min":0,"x_max":0,"o":"m 106 174 l 106 0 l 1008 0 b 1282 233 1192 0 1282 78 l 1282 383 b 1167 567 1282 474 1243 535 b 1272 724 1236 593 1272 644 l 1272 814 b 1035 1015 1272 949 1193 1015 l 106 1015 l 106 842 l 971 842 b 1051 776 1024 842 1051 821 l 1051 715 b 971 650 1051 672 1024 650 l 371 650 l 371 503 l 938 503 b 1056 403 1017 503 1056 469 l 1056 272 b 938 174 1056 206 1017 174 z "},":":{"ha":429,"x_min":0,"x_max":0,"o":"m 272 565 b 326 613 308 565 326 581 l 326 696 b 272 744 326 729 308 744 l 157 744 b 103 696 121 744 103 729 l 103 613 b 157 565 103 581 121 565 z m 272 92 b 326 139 308 92 326 107 l 326 222 b 272 271 326 256 308 271 l 157 271 b 103 222 121 271 103 256 l 103 139 b 157 92 103 107 121 92 z "},";":{"ha":429,"x_min":0,"x_max":0,"o":"m 272 565 b 326 613 308 565 326 581 l 326 696 b 272 744 326 729 308 744 l 157 744 b 103 696 121 744 103 729 l 103 613 b 157 565 103 581 121 565 z m 161 -154 l 281 -154 l 324 189 b 326 222 326 203 326 213 b 269 271 326 254 307 271 l 156 271 b 103 224 119 271 103 256 l 103 138 b 156 92 103 107 119 92 l 185 92 z "},"<":{"ha":1015,"x_min":0,"x_max":0,"o":"m 911 814 l 106 569 l 106 443 l 911 199 l 911 308 l 240 506 l 911 703 z "},"=":{"ha":1015,"x_min":0,"x_max":0,"o":"m 911 394 l 106 394 l 106 285 l 911 285 z m 911 726 l 106 726 l 106 618 l 911 618 z "},">":{"ha":1015,"x_min":0,"x_max":0,"o":"m 106 199 l 911 443 l 911 569 l 106 814 l 106 703 l 776 507 l 106 308 z "},"?":{"ha":1128,"x_min":0,"x_max":0,"o":"m 251 0 b 307 47 289 0 307 15 l 307 131 b 251 179 307 164 289 179 l 136 179 b 83 131 101 179 83 164 l 83 47 b 136 0 83 15 101 0 z m 331 657 b 100 439 176 657 100 585 l 100 324 l 289 324 l 289 415 b 413 528 289 489 331 528 l 808 528 b 1056 726 974 528 1056 593 l 1056 811 b 808 1015 1056 947 974 1015 l 81 1015 l 81 857 l 744 857 b 836 788 806 857 836 835 l 836 726 b 744 657 836 681 806 657 z "},"@":{"ha":1375,"x_min":0,"x_max":0,"o":"m 1267 -344 l 1267 -178 l 482 -178 b 257 60 332 -178 257 -99 l 257 619 b 482 808 257 746 332 808 l 974 808 b 1157 619 1096 808 1157 746 l 1157 532 l 764 532 b 503 326 590 532 503 464 l 503 264 b 764 49 503 121 590 49 l 1006 49 b 1279 282 1188 49 1279 126 l 1279 619 b 979 929 1279 826 1181 929 l 482 929 b 94 619 224 929 94 826 l 94 56 b 482 -344 94 -211 224 -344 z m 622 326 b 764 439 622 401 669 439 l 1157 439 l 1157 282 b 1006 147 1157 192 1107 147 l 764 147 b 622 264 669 147 622 186 z "},"A":{"ha":1446,"x_min":0,"x_max":0,"o":"m 349 1015 b 103 796 185 1015 103 942 l 103 0 l 335 0 l 335 343 l 1113 343 l 1113 0 l 1344 0 l 1344 796 b 1097 1015 1344 942 1261 1015 z m 335 743 b 440 842 335 808 371 842 l 1006 842 b 1113 743 1076 842 1113 808 l 1113 490 l 335 490 z "},"a":{"ha":1446,"x_min":0,"x_max":0,"o":"m 349 1015 b 103 796 185 1015 103 942 l 103 0 l 335 0 l 335 343 l 1113 343 l 1113 0 l 1344 0 l 1344 796 b 1097 1015 1344 942 1261 1015 z m 335 743 b 440 842 335 808 371 842 l 1006 842 b 1113 743 1076 842 1113 808 l 1113 490 l 335 490 z "},"Α":{"ha":1446,"x_min":0,"x_max":0,"o":"m 349 1015 b 103 796 185 1015 103 942 l 103 0 l 335 0 l 335 343 l 1113 343 l 1113 0 l 1344 0 l 1344 796 b 1097 1015 1344 942 1261 1015 z m 335 743 b 440 842 335 808 371 842 l 1006 842 b 1113 743 1076 842 1113 808 l 1113 490 l 335 490 z "},"α":{"ha":1446,"x_min":0,"x_max":0,"o":"m 349 1015 b 103 796 185 1015 103 942 l 103 0 l 335 0 l 335 343 l 1113 343 l 1113 0 l 1344 0 l 1344 796 b 1097 1015 1344 942 1261 1015 z m 335 743 b 440 842 335 808 371 842 l 1006 842 b 1113 743 1076 842 1113 808 l 1113 490 l 335 490 z "},"А":{"ha":1446,"x_min":0,"x_max":0,"o":"m 349 1015 b 103 796 185 1015 103 942 l 103 0 l 335 0 l 335 343 l 1113 343 l 1113 0 l 1344 0 l 1344 796 b 1097 1015 1344 942 1261 1015 z m 335 743 b 440 842 335 808 371 842 l 1006 842 b 1113 743 1076 842 1113 808 l 1113 490 l 335 490 z "},"а":{"ha":1446,"x_min":0,"x_max":0,"o":"m 349 1015 b 103 796 185 1015 103 942 l 103 0 l 335 0 l 335 343 l 1113 343 l 1113 0 l 1344 0 l 1344 796 b 1097 1015 1344 942 1261 1015 z m 335 743 b 440 842 335 808 371 842 l 1006 842 b 1113 743 1076 842 1113 808 l 1113 490 l 335 490 z "},"B":{"ha":1415,"x_min":0,"x_max":0,"o":"m 1326 724 l 1326 814 b 1090 1015 1326 949 1249 1015 l 106 1015 l 106 0 l 1064 0 b 1338 233 1247 0 1338 78 l 1338 383 b 1221 567 1338 475 1299 535 b 1326 724 1292 593 1326 644 z m 993 506 b 1110 406 1071 506 1110 472 l 1110 268 b 993 169 1110 201 1071 169 l 331 169 l 331 506 z m 331 846 l 1025 846 b 1106 779 1079 846 1106 824 l 1106 713 b 1025 647 1106 668 1079 647 l 331 647 z "},"b":{"ha":1415,"x_min":0,"x_max":0,"o":"m 1326 724 l 1326 814 b 1090 1015 1326 949 1249 1015 l 106 1015 l 106 0 l 1064 0 b 1338 233 1247 0 1338 78 l 1338 383 b 1221 567 1338 475 1299 535 b 1326 724 1292 593 1326 644 z m 993 506 b 1110 406 1071 506 1110 472 l 1110 268 b 993 169 1110 201 1071 169 l 331 169 l 331 506 z m 331 846 l 1025 846 b 1106 779 1079 846 1106 824 l 1106 713 b 1025 647 1106 668 1079 647 l 331 647 z "},"Β":{"ha":1415,"x_min":0,"x_max":0,"o":"m 1326 724 l 1326 814 b 1090 1015 1326 949 1249 1015 l 106 1015 l 106 0 l 1064 0 b 1338 233 1247 0 1338 78 l 1338 383 b 1221 567 1338 475 1299 535 b 1326 724 1292 593 1326 644 z m 993 506 b 1110 406 1071 506 1110 472 l 1110 268 b 993 169 1110 201 1071 169 l 331 169 l 331 506 z m 331 846 l 1025 846 b 1106 779 1079 846 1106 824 l 1106 713 b 1025 647 1106 668 1079 647 l 331 647 z "},"β":{"ha":1415,"x_min":0,"x_max":0,"o":"m 1326 724 l 1326 814 b 1090 1015 1326 949 1249 1015 l 106 1015 l 106 0 l 1064 0 b 1338 233 1247 0 1338 78 l 1338 383 b 1221 567 1338 475 1299 535 b 1326 724 1292 593 1326 644 z m 993 506 b 1110 406 1071 506 1110 472 l 1110 268 b 993 169 1110 201 1071 169 l 331 169 l 331 506 z m 331 846 l 1025 846 b 1106 779 1079 846 1106 824 l 1106 713 b 1025 647 1106 668 1079 647 l 331 647 z "},"В":{"ha":1415,"x_min":0,"x_max":0,"o":"m 1326 724 l 1326 814 b 1090 1015 1326 949 1249 1015 l 106 1015 l 106 0 l 1064 0 b 1338 233 1247 0 1338 78 l 1338 383 b 1221 567 1338 475 1299 535 b 1326 724 1292 593 1326 644 z m 993 506 b 1110 406 1071 506 1110 472 l 1110 268 b 993 169 1110 201 1071 169 l 331 169 l 331 506 z m 331 846 l 1025 846 b 1106 779 1079 846 1106 824 l 1106 713 b 1025 647 1106 668 1079 647 l 331 647 z "},"в":{"ha":1415,"x_min":0,"x_max":0,"o":"m 1326 724 l 1326 814 b 1090 1015 1326 949 1249 1015 l 106 1015 l 106 0 l 1064 0 b 1338 233 1247 0 1338 78 l 1338 383 b 1221 567 1338 475 1299 535 b 1326 724 1292 593 1326 644 z m 993 506 b 1110 406 1071 506 1110 472 l 1110 268 b 993 169 1110 201 1071 169 l 331 169 l 331 506 z m 331 846 l 1025 846 b 1106 779 1079 846 1106 824 l 1106 713 b 1025 647 1106 668 1079 647 l 331 647 z "},"C":{"ha":1332,"x_min":0,"x_max":0,"o":"m 329 743 b 436 842 329 808 365 842 l 1257 842 l 1257 1015 l 344 1015 b 97 796 181 1015 97 942 l 97 219 b 344 0 97 74 181 0 l 1257 0 l 1257 174 l 436 174 b 329 272 365 174 329 206 z "},"c":{"ha":1332,"x_min":0,"x_max":0,"o":"m 329 743 b 436 842 329 808 365 842 l 1257 842 l 1257 1015 l 344 1015 b 97 796 181 1015 97 942 l 97 219 b 344 0 97 74 181 0 l 1257 0 l 1257 174 l 436 174 b 329 272 365 174 329 206 z "},"С":{"ha":1332,"x_min":0,"x_max":0,"o":"m 329 743 b 436 842 329 808 365 842 l 1257 842 l 1257 1015 l 344 1015 b 97 796 181 1015 97 942 l 97 219 b 344 0 97 74 181 0 l 1257 0 l 1257 174 l 436 174 b 329 272 365 174 329 206 z "},"с":{"ha":1332,"x_min":0,"x_max":0,"o":"m 329 743 b 436 842 329 808 365 842 l 1257 842 l 1257 1015 l 344 1015 b 97 796 181 1015 97 942 l 97 219 b 344 0 97 74 181 0 l 1257 0 l 1257 174 l 436 174 b 329 272 365 174 329 206 z "},"D":{"ha":1443,"x_min":0,"x_max":0,"o":"m 1113 285 b 996 174 1113 210 1074 174 l 338 174 l 338 842 l 996 842 b 1113 731 1074 842 1113 806 z m 106 0 l 1072 0 b 1346 247 1256 0 1346 82 l 1346 768 b 1072 1015 1346 933 1256 1015 l 106 1015 z "},"d":{"ha":1443,"x_min":0,"x_max":0,"o":"m 1113 285 b 996 174 1113 210 1074 174 l 338 174 l 338 842 l 996 842 b 1113 731 1074 842 1113 806 z m 106 0 l 1072 0 b 1346 247 1256 0 1346 82 l 1346 768 b 1072 1015 1346 933 1256 1015 l 106 1015 z "},"E":{"ha":1356,"x_min":0,"x_max":0,"o":"m 338 842 l 1281 842 l 1281 1015 l 106 1015 l 106 0 l 1281 0 l 1281 174 l 338 174 l 338 503 l 1083 503 l 1083 650 l 338 650 z "},"e":{"ha":1356,"x_min":0,"x_max":0,"o":"m 338 842 l 1281 842 l 1281 1015 l 106 1015 l 106 0 l 1281 0 l 1281 174 l 338 174 l 338 503 l 1083 503 l 1083 650 l 338 650 z "},"Ε":{"ha":1356,"x_min":0,"x_max":0,"o":"m 338 842 l 1281 842 l 1281 1015 l 106 1015 l 106 0 l 1281 0 l 1281 174 l 338 174 l 338 503 l 1083 503 l 1083 650 l 338 650 z "},"ε":{"ha":1356,"x_min":0,"x_max":0,"o":"m 338 842 l 1281 842 l 1281 1015 l 106 1015 l 106 0 l 1281 0 l 1281 174 l 338 174 l 338 503 l 1083 503 l 1083 650 l 338 650 z "},"Е":{"ha":1356,"x_min":0,"x_max":0,"o":"m 338 842 l 1281 842 l 1281 1015 l 106 1015 l 106 0 l 1281 0 l 1281 174 l 338 174 l 338 503 l 1083 503 l 1083 650 l 338 650 z "},"е":{"ha":1356,"x_min":0,"x_max":0,"o":"m 338 842 l 1281 842 l 1281 1015 l 106 1015 l 106 0 l 1281 0 l 1281 174 l 338 174 l 338 503 l 1083 503 l 1083 650 l 338 650 z "},"F":{"ha":1317,"x_min":0,"x_max":0,"o":"m 338 842 l 1269 842 l 1269 1015 l 106 1015 l 106 0 l 338 0 l 338 503 l 1040 503 l 1040 650 l 338 650 z "},"f":{"ha":1317,"x_min":0,"x_max":0,"o":"m 338 842 l 1269 842 l 1269 1015 l 106 1015 l 106 0 l 338 0 l 338 503 l 1040 503 l 1040 650 l 338 650 z "},"G":{"ha":1381,"x_min":0,"x_max":0,"o":"m 1281 0 l 1281 499 b 1099 650 1281 600 1221 650 l 522 650 l 522 503 l 990 503 b 1065 436 1040 503 1065 481 l 1065 174 l 436 174 b 329 272 365 174 329 206 l 329 743 b 436 842 329 808 365 842 l 1274 842 l 1274 1015 l 344 1015 b 97 796 181 1015 97 942 l 97 219 b 344 0 97 74 181 0 z "},"g":{"ha":1381,"x_min":0,"x_max":0,"o":"m 1281 0 l 1281 499 b 1099 650 1281 600 1221 650 l 522 650 l 522 503 l 990 503 b 1065 436 1040 503 1065 481 l 1065 174 l 436 174 b 329 272 365 174 329 206 l 329 743 b 436 842 329 808 365 842 l 1274 842 l 1274 1015 l 344 1015 b 97 796 181 1015 97 942 l 97 219 b 344 0 97 74 181 0 z "},"H":{"ha":1501,"x_min":0,"x_max":0,"o":"m 1164 503 l 1164 0 l 1397 0 l 1397 1015 l 1164 1015 l 1164 650 l 338 650 l 338 1015 l 106 1015 l 106 0 l 338 0 l 338 503 z "},"h":{"ha":1501,"x_min":0,"x_max":0,"o":"m 1164 503 l 1164 0 l 1397 0 l 1397 1015 l 1164 1015 l 1164 650 l 338 650 l 338 1015 l 106 1015 l 106 0 l 338 0 l 338 503 z "},"Η":{"ha":1501,"x_min":0,"x_max":0,"o":"m 1164 503 l 1164 0 l 1397 0 l 1397 1015 l 1164 1015 l 1164 650 l 338 650 l 338 1015 l 106 1015 l 106 0 l 338 0 l 338 503 z "},"η":{"ha":1501,"x_min":0,"x_max":0,"o":"m 1164 503 l 1164 0 l 1397 0 l 1397 1015 l 1164 1015 l 1164 650 l 338 650 l 338 1015 l 106 1015 l 106 0 l 338 0 l 338 503 z "},"Н":{"ha":1501,"x_min":0,"x_max":0,"o":"m 1164 503 l 1164 0 l 1397 0 l 1397 1015 l 1164 1015 l 1164 650 l 338 650 l 338 1015 l 106 1015 l 106 0 l 338 0 l 338 503 z "},"н":{"ha":1501,"x_min":0,"x_max":0,"o":"m 1164 503 l 1164 0 l 1397 0 l 1397 1015 l 1164 1015 l 1164 650 l 338 650 l 338 1015 l 106 1015 l 106 0 l 338 0 l 338 503 z "},"I":{"ha":443,"x_min":0,"x_max":0,"o":"m 338 1015 l 106 1015 l 106 0 l 338 0 z "},"i":{"ha":443,"x_min":0,"x_max":0,"o":"m 338 1015 l 106 1015 l 106 0 l 338 0 z "},"ı":{"ha":443,"x_min":0,"x_max":0,"o":"m 338 1015 l 106 1015 l 106 0 l 338 0 z "},"Ι":{"ha":443,"x_min":0,"x_max":0,"o":"m 338 1015 l 106 1015 l 106 0 l 338 0 z "},"ι":{"ha":443,"x_min":0,"x_max":0,"o":"m 338 1015 l 106 1015 l 106 0 l 338 0 z "},"І":{"ha":443,"x_min":0,"x_max":0,"o":"m 338 1015 l 106 1015 l 106 0 l 338 0 z "},"і":{"ha":443,"x_min":0,"x_max":0,"o":"m 338 1015 l 106 1015 l 106 0 l 338 0 z "},"J":{"ha":1199,"x_min":0,"x_max":0,"o":"m 876 272 b 771 174 876 206 842 174 l 49 174 l 49 0 l 863 0 b 1108 219 1026 0 1108 74 l 1108 1015 l 876 1015 z "},"j":{"ha":1199,"x_min":0,"x_max":0,"o":"m 876 272 b 771 174 876 206 842 174 l 49 174 l 49 0 l 863 0 b 1108 219 1026 0 1108 74 l 1108 1015 l 876 1015 z "},"Ј":{"ha":1199,"x_min":0,"x_max":0,"o":"m 876 272 b 771 174 876 206 842 174 l 49 174 l 49 0 l 863 0 b 1108 219 1026 0 1108 74 l 1108 1015 l 876 1015 z "},"ј":{"ha":1199,"x_min":0,"x_max":0,"o":"m 876 272 b 771 174 876 206 842 174 l 49 174 l 49 0 l 863 0 b 1108 219 1026 0 1108 74 l 1108 1015 l 876 1015 z "},"K":{"ha":1433,"x_min":0,"x_max":0,"o":"m 1372 1006 l 1372 1015 l 1121 1015 l 683 596 l 338 596 l 338 1015 l 106 1015 l 106 0 l 338 0 l 338 449 l 682 449 l 1140 0 l 1401 0 l 1401 10 l 894 522 z "},"k":{"ha":1433,"x_min":0,"x_max":0,"o":"m 1372 1006 l 1372 1015 l 1121 1015 l 683 596 l 338 596 l 338 1015 l 106 1015 l 106 0 l 338 0 l 338 449 l 682 449 l 1140 0 l 1401 0 l 1401 10 l 894 522 z "},"Κ":{"ha":1433,"x_min":0,"x_max":0,"o":"m 1372 1006 l 1372 1015 l 1121 1015 l 683 596 l 338 596 l 338 1015 l 106 1015 l 106 0 l 338 0 l 338 449 l 682 449 l 1140 0 l 1401 0 l 1401 10 l 894 522 z "},"κ":{"ha":1433,"x_min":0,"x_max":0,"o":"m 1372 1006 l 1372 1015 l 1121 1015 l 683 596 l 338 596 l 338 1015 l 106 1015 l 106 0 l 338 0 l 338 449 l 682 449 l 1140 0 l 1401 0 l 1401 10 l 894 522 z "},"К":{"ha":1433,"x_min":0,"x_max":0,"o":"m 1372 1006 l 1372 1015 l 1121 1015 l 683 596 l 338 596 l 338 1015 l 106 1015 l 106 0 l 338 0 l 338 449 l 682 449 l 1140 0 l 1401 0 l 1401 10 l 894 522 z "},"к":{"ha":1433,"x_min":0,"x_max":0,"o":"m 1372 1006 l 1372 1015 l 1121 1015 l 683 596 l 338 596 l 338 1015 l 106 1015 l 106 0 l 338 0 l 338 449 l 682 449 l 1140 0 l 1401 0 l 1401 10 l 894 522 z "},"L":{"ha":1214,"x_min":0,"x_max":0,"o":"m 106 1015 l 106 0 l 1167 0 l 1167 174 l 338 174 l 338 1015 z "},"l":{"ha":1214,"x_min":0,"x_max":0,"o":"m 106 1015 l 106 0 l 1167 0 l 1167 174 l 338 174 l 338 1015 z "},"M":{"ha":1857,"x_min":0,"x_max":0,"o":"m 328 1015 l 228 1015 b 103 896 144 1015 103 976 l 103 0 l 310 0 l 310 760 l 779 49 b 868 0 800 17 829 0 l 989 0 b 1076 49 1026 0 1057 17 l 1547 761 l 1547 0 l 1754 0 l 1754 896 b 1628 1015 1754 976 1711 1015 l 1528 1015 b 1431 967 1483 1015 1450 1000 l 928 194 l 425 967 b 328 1015 407 1000 374 1015 z "},"m":{"ha":1857,"x_min":0,"x_max":0,"o":"m 328 1015 l 228 1015 b 103 896 144 1015 103 976 l 103 0 l 310 0 l 310 760 l 779 49 b 868 0 800 17 829 0 l 989 0 b 1076 49 1026 0 1057 17 l 1547 761 l 1547 0 l 1754 0 l 1754 896 b 1628 1015 1754 976 1711 1015 l 1528 1015 b 1431 967 1483 1015 1450 1000 l 928 194 l 425 967 b 328 1015 407 1000 374 1015 z "},"Μ":{"ha":1857,"x_min":0,"x_max":0,"o":"m 328 1015 l 228 1015 b 103 896 144 1015 103 976 l 103 0 l 310 0 l 310 760 l 779 49 b 868 0 800 17 829 0 l 989 0 b 1076 49 1026 0 1057 17 l 1547 761 l 1547 0 l 1754 0 l 1754 896 b 1628 1015 1754 976 1711 1015 l 1528 1015 b 1431 967 1483 1015 1450 1000 l 928 194 l 425 967 b 328 1015 407 1000 374 1015 z "},"μ":{"ha":1857,"x_min":0,"x_max":0,"o":"m 328 1015 l 228 1015 b 103 896 144 1015 103 976 l 103 0 l 310 0 l 310 760 l 779 49 b 868 0 800 17 829 0 l 989 0 b 1076 49 1026 0 1057 17 l 1547 761 l 1547 0 l 1754 0 l 1754 896 b 1628 1015 1754 976 1711 1015 l 1528 1015 b 1431 967 1483 1015 1450 1000 l 928 194 l 425 967 b 328 1015 407 1000 374 1015 z "},"М":{"ha":1857,"x_min":0,"x_max":0,"o":"m 328 1015 l 228 1015 b 103 896 144 1015 103 976 l 103 0 l 310 0 l 310 760 l 779 49 b 868 0 800 17 829 0 l 989 0 b 1076 49 1026 0 1057 17 l 1547 761 l 1547 0 l 1754 0 l 1754 896 b 1628 1015 1754 976 1711 1015 l 1528 1015 b 1431 967 1483 1015 1450 1000 l 928 194 l 425 967 b 328 1015 407 1000 374 1015 z "},"м":{"ha":1857,"x_min":0,"x_max":0,"o":"m 328 1015 l 228 1015 b 103 896 144 1015 103 976 l 103 0 l 310 0 l 310 760 l 779 49 b 868 0 800 17 829 0 l 989 0 b 1076 49 1026 0 1057 17 l 1547 761 l 1547 0 l 1754 0 l 1754 896 b 1628 1015 1754 976 1711 1015 l 1528 1015 b 1431 967 1483 1015 1450 1000 l 928 194 l 425 967 b 328 1015 407 1000 374 1015 z "},"N":{"ha":1522,"x_min":0,"x_max":0,"o":"m 1213 1015 l 1213 179 l 453 967 b 343 1015 426 1000 389 1015 l 228 1015 b 103 896 144 1015 103 976 l 103 0 l 310 0 l 310 833 l 1068 49 b 1178 0 1094 15 1132 0 l 1293 0 b 1418 119 1376 0 1418 39 l 1418 1015 z "},"n":{"ha":1522,"x_min":0,"x_max":0,"o":"m 1213 1015 l 1213 179 l 453 967 b 343 1015 426 1000 389 1015 l 228 1015 b 103 896 144 1015 103 976 l 103 0 l 310 0 l 310 833 l 1068 49 b 1178 0 1094 15 1132 0 l 1293 0 b 1418 119 1376 0 1418 39 l 1418 1015 z "},"Ν":{"ha":1522,"x_min":0,"x_max":0,"o":"m 1213 1015 l 1213 179 l 453 967 b 343 1015 426 1000 389 1015 l 228 1015 b 103 896 144 1015 103 976 l 103 0 l 310 0 l 310 833 l 1068 49 b 1178 0 1094 15 1132 0 l 1293 0 b 1418 119 1376 0 1418 39 l 1418 1015 z "},"ν":{"ha":1522,"x_min":0,"x_max":0,"o":"m 1213 1015 l 1213 179 l 453 967 b 343 1015 426 1000 389 1015 l 228 1015 b 103 896 144 1015 103 976 l 103 0 l 310 0 l 310 833 l 1068 49 b 1178 0 1094 15 1132 0 l 1293 0 b 1418 119 1376 0 1418 39 l 1418 1015 z "},"O":{"ha":1433,"x_min":0,"x_max":0,"o":"m 985 842 b 1103 731 1064 842 1103 806 l 1103 285 b 985 174 1103 210 1064 174 l 447 174 b 329 285 368 174 329 211 l 329 731 b 447 842 329 806 368 842 z m 1061 0 b 1335 247 1244 0 1335 82 l 1335 768 b 1061 1015 1335 933 1244 1015 l 371 1015 b 97 768 188 1015 97 933 l 97 247 b 371 0 97 82 188 0 z "},"o":{"ha":1433,"x_min":0,"x_max":0,"o":"m 985 842 b 1103 731 1064 842 1103 806 l 1103 285 b 985 174 1103 210 1064 174 l 447 174 b 329 285 368 174 329 211 l 329 731 b 447 842 329 806 368 842 z m 1061 0 b 1335 247 1244 0 1335 82 l 1335 768 b 1061 1015 1335 933 1244 1015 l 371 1015 b 97 768 188 1015 97 933 l 97 247 b 371 0 97 82 188 0 z "},"Ο":{"ha":1433,"x_min":0,"x_max":0,"o":"m 985 842 b 1103 731 1064 842 1103 806 l 1103 285 b 985 174 1103 210 1064 174 l 447 174 b 329 285 368 174 329 211 l 329 731 b 447 842 329 806 368 842 z m 1061 0 b 1335 247 1244 0 1335 82 l 1335 768 b 1061 1015 1335 933 1244 1015 l 371 1015 b 97 768 188 1015 97 933 l 97 247 b 371 0 97 82 188 0 z "},"ο":{"ha":1433,"x_min":0,"x_max":0,"o":"m 985 842 b 1103 731 1064 842 1103 806 l 1103 285 b 985 174 1103 210 1064 174 l 447 174 b 329 285 368 174 329 211 l 329 731 b 447 842 329 806 368 842 z m 1061 0 b 1335 247 1244 0 1335 82 l 1335 768 b 1061 1015 1335 933 1244 1015 l 371 1015 b 97 768 188 1015 97 933 l 97 247 b 371 0 97 82 188 0 z "},"О":{"ha":1433,"x_min":0,"x_max":0,"o":"m 985 842 b 1103 731 1064 842 1103 806 l 1103 285 b 985 174 1103 210 1064 174 l 447 174 b 329 285 368 174 329 211 l 329 731 b 447 842 329 806 368 842 z m 1061 0 b 1335 247 1244 0 1335 82 l 1335 768 b 1061 1015 1335 933 1244 1015 l 371 1015 b 97 768 188 1015 97 933 l 97 247 b 371 0 97 82 188 0 z "},"о":{"ha":1433,"x_min":0,"x_max":0,"o":"m 985 842 b 1103 731 1064 842 1103 806 l 1103 285 b 985 174 1103 210 1064 174 l 447 174 b 329 285 368 174 329 211 l 329 731 b 447 842 329 806 368 842 z m 1061 0 b 1335 247 1244 0 1335 82 l 1335 768 b 1061 1015 1335 933 1244 1015 l 371 1015 b 97 768 188 1015 97 933 l 97 247 b 371 0 97 82 188 0 z "},"P":{"ha":1410,"x_min":0,"x_max":0,"o":"m 1108 621 b 990 510 1108 546 1069 510 l 338 510 l 338 842 l 990 842 b 1108 731 1069 842 1108 806 z m 106 0 l 338 0 l 338 342 l 1064 342 b 1338 589 1247 342 1338 424 l 1338 768 b 1064 1015 1338 933 1247 1015 l 106 1015 z "},"p":{"ha":1410,"x_min":0,"x_max":0,"o":"m 1108 621 b 990 510 1108 546 1069 510 l 338 510 l 338 842 l 990 842 b 1108 731 1069 842 1108 806 z m 106 0 l 338 0 l 338 342 l 1064 342 b 1338 589 1247 342 1338 424 l 1338 768 b 1064 1015 1338 933 1247 1015 l 106 1015 z "},"Ρ":{"ha":1410,"x_min":0,"x_max":0,"o":"m 1108 621 b 990 510 1108 546 1069 510 l 338 510 l 338 842 l 990 842 b 1108 731 1069 842 1108 806 z m 106 0 l 338 0 l 338 342 l 1064 342 b 1338 589 1247 342 1338 424 l 1338 768 b 1064 1015 1338 933 1247 1015 l 106 1015 z "},"ρ":{"ha":1410,"x_min":0,"x_max":0,"o":"m 1108 621 b 990 510 1108 546 1069 510 l 338 510 l 338 842 l 990 842 b 1108 731 1069 842 1108 806 z m 106 0 l 338 0 l 338 342 l 1064 342 b 1338 589 1247 342 1338 424 l 1338 768 b 1064 1015 1338 933 1247 1015 l 106 1015 z "},"Р":{"ha":1410,"x_min":0,"x_max":0,"o":"m 1108 621 b 990 510 1108 546 1069 510 l 338 510 l 338 842 l 990 842 b 1108 731 1069 842 1108 806 z m 106 0 l 338 0 l 338 342 l 1064 342 b 1338 589 1247 342 1338 424 l 1338 768 b 1064 1015 1338 933 1247 1015 l 106 1015 z "},"р":{"ha":1410,"x_min":0,"x_max":0,"o":"m 1108 621 b 990 510 1108 546 1069 510 l 338 510 l 338 842 l 990 842 b 1108 731 1069 842 1108 806 z m 106 0 l 338 0 l 338 342 l 1064 342 b 1338 589 1247 342 1338 424 l 1338 768 b 1064 1015 1338 933 1247 1015 l 106 1015 z "},"Q":{"ha":1488,"x_min":0,"x_max":0,"o":"m 1064 338 b 1146 267 1064 289 1089 267 l 1196 267 b 1240 235 1226 267 1240 257 l 1240 197 b 1196 164 1240 176 1226 164 l 447 164 b 329 276 368 164 329 201 l 329 731 b 447 842 329 806 368 842 l 947 842 b 1064 731 1026 842 1064 806 z m 1318 0 b 1439 90 1400 0 1439 32 l 1439 308 b 1340 383 1439 360 1407 383 l 1300 383 b 1279 406 1283 383 1279 389 l 1279 768 b 1004 1015 1279 933 1188 1015 l 371 1015 b 97 768 188 1015 97 933 l 97 247 b 371 0 97 82 188 0 z "},"q":{"ha":1488,"x_min":0,"x_max":0,"o":"m 1064 338 b 1146 267 1064 289 1089 267 l 1196 267 b 1240 235 1226 267 1240 257 l 1240 197 b 1196 164 1240 176 1226 164 l 447 164 b 329 276 368 164 329 201 l 329 731 b 447 842 329 806 368 842 l 947 842 b 1064 731 1026 842 1064 806 z m 1318 0 b 1439 90 1400 0 1439 32 l 1439 308 b 1340 383 1439 360 1407 383 l 1300 383 b 1279 406 1283 383 1279 389 l 1279 768 b 1004 1015 1279 933 1188 1015 l 371 1015 b 97 768 188 1015 97 933 l 97 247 b 371 0 97 82 188 0 z "},"R":{"ha":1418,"x_min":0,"x_max":0,"o":"m 106 0 l 338 0 l 338 385 l 826 385 l 1131 0 l 1388 0 l 1388 10 l 1088 385 b 1338 632 1254 392 1338 474 l 1338 768 b 1064 1015 1338 933 1247 1015 l 106 1015 z m 1108 646 b 990 533 1108 571 1069 533 l 338 533 l 338 846 l 990 846 b 1108 733 1069 846 1108 808 z "},"r":{"ha":1418,"x_min":0,"x_max":0,"o":"m 106 0 l 338 0 l 338 385 l 826 385 l 1131 0 l 1388 0 l 1388 10 l 1088 385 b 1338 632 1254 392 1338 474 l 1338 768 b 1064 1015 1338 933 1247 1015 l 106 1015 z m 1108 646 b 990 533 1108 571 1069 533 l 338 533 l 338 846 l 990 846 b 1108 733 1069 846 1108 808 z "},"S":{"ha":1336,"x_min":0,"x_max":0,"o":"m 400 650 b 308 719 340 650 308 674 l 308 775 b 400 842 308 819 340 842 l 1222 842 l 1222 1015 l 326 1015 b 81 811 163 1015 81 947 l 81 707 b 326 503 81 571 163 503 l 907 503 b 1031 390 989 503 1031 465 l 1031 285 b 907 174 1031 211 989 174 l 83 174 l 83 0 l 981 0 b 1260 247 1167 0 1260 82 l 1260 403 b 981 650 1260 568 1167 650 z "},"s":{"ha":1336,"x_min":0,"x_max":0,"o":"m 400 650 b 308 719 340 650 308 674 l 308 775 b 400 842 308 819 340 842 l 1222 842 l 1222 1015 l 326 1015 b 81 811 163 1015 81 947 l 81 707 b 326 503 81 571 163 503 l 907 503 b 1031 390 989 503 1031 465 l 1031 285 b 907 174 1031 211 989 174 l 83 174 l 83 0 l 981 0 b 1260 247 1167 0 1260 82 l 1260 403 b 981 650 1260 568 1167 650 z "},"Ѕ":{"ha":1336,"x_min":0,"x_max":0,"o":"m 400 650 b 308 719 340 650 308 674 l 308 775 b 400 842 308 819 340 842 l 1222 842 l 1222 1015 l 326 1015 b 81 811 163 1015 81 947 l 81 707 b 326 503 81 571 163 503 l 907 503 b 1031 390 989 503 1031 465 l 1031 285 b 907 174 1031 211 989 174 l 83 174 l 83 0 l 981 0 b 1260 247 1167 0 1260 82 l 1260 403 b 981 650 1260 568 1167 650 z "},"ѕ":{"ha":1336,"x_min":0,"x_max":0,"o":"m 400 650 b 308 719 340 650 308 674 l 308 775 b 400 842 308 819 340 842 l 1222 842 l 1222 1015 l 326 1015 b 81 811 163 1015 81 947 l 81 707 b 326 503 81 571 163 503 l 907 503 b 1031 390 989 503 1031 465 l 1031 285 b 907 174 1031 211 989 174 l 83 174 l 83 0 l 981 0 b 1260 247 1167 0 1260 82 l 1260 403 b 981 650 1260 568 1167 650 z "},"T":{"ha":1372,"x_min":0,"x_max":0,"o":"m 801 0 l 801 842 l 1322 842 l 1322 1015 l 49 1015 l 49 842 l 568 842 l 568 0 z "},"t":{"ha":1372,"x_min":0,"x_max":0,"o":"m 801 0 l 801 842 l 1322 842 l 1322 1015 l 49 1015 l 49 842 l 568 842 l 568 0 z "},"Τ":{"ha":1372,"x_min":0,"x_max":0,"o":"m 801 0 l 801 842 l 1322 842 l 1322 1015 l 49 1015 l 49 842 l 568 842 l 568 0 z "},"τ":{"ha":1372,"x_min":0,"x_max":0,"o":"m 801 0 l 801 842 l 1322 842 l 1322 1015 l 49 1015 l 49 842 l 568 842 l 568 0 z "},"Т":{"ha":1372,"x_min":0,"x_max":0,"o":"m 801 0 l 801 842 l 1322 842 l 1322 1015 l 49 1015 l 49 842 l 568 842 l 568 0 z "},"т":{"ha":1372,"x_min":0,"x_max":0,"o":"m 801 0 l 801 842 l 1322 842 l 1322 1015 l 49 1015 l 49 842 l 568 842 l 568 0 z "},"U":{"ha":1428,"x_min":0,"x_max":0,"o":"m 1078 0 b 1324 219 1243 0 1324 72 l 1324 1015 l 1092 1015 l 1092 272 b 986 174 1092 206 1057 174 l 440 174 b 335 272 371 174 335 206 l 335 1015 l 103 1015 l 103 219 b 349 0 103 72 185 0 z "},"u":{"ha":1428,"x_min":0,"x_max":0,"o":"m 1078 0 b 1324 219 1243 0 1324 72 l 1324 1015 l 1092 1015 l 1092 272 b 986 174 1092 206 1057 174 l 440 174 b 335 272 371 174 335 206 l 335 1015 l 103 1015 l 103 219 b 349 0 103 72 185 0 z "},"V":{"ha":1603,"x_min":0,"x_max":0,"o":"m 289 1015 l 32 1015 l 32 1006 l 633 49 b 724 0 654 14 685 0 l 881 0 b 971 49 919 0 951 14 l 1571 1006 l 1571 1015 l 1315 1015 l 803 172 z "},"v":{"ha":1603,"x_min":0,"x_max":0,"o":"m 289 1015 l 32 1015 l 32 1006 l 633 49 b 724 0 654 14 685 0 l 881 0 b 971 49 919 0 951 14 l 1571 1006 l 1571 1015 l 1315 1015 l 803 172 z "},"W":{"ha":1818,"x_min":0,"x_max":0,"o":"m 1018 1015 l 800 1015 l 800 174 l 438 174 b 331 272 367 174 331 206 l 331 1015 l 103 1015 l 103 219 b 349 0 103 74 185 0 l 1468 0 b 1715 219 1632 0 1715 74 l 1715 1015 l 1486 1015 l 1486 272 b 1379 174 1486 206 1450 174 l 1018 174 z "},"w":{"ha":1818,"x_min":0,"x_max":0,"o":"m 1018 1015 l 800 1015 l 800 174 l 438 174 b 331 272 367 174 331 206 l 331 1015 l 103 1015 l 103 219 b 349 0 103 74 185 0 l 1468 0 b 1715 219 1632 0 1715 74 l 1715 1015 l 1486 1015 l 1486 272 b 1379 174 1486 206 1450 174 l 1018 174 z "},"X":{"ha":1528,"x_min":0,"x_max":0,"o":"m 1467 1006 l 1467 1015 l 1193 1015 l 756 632 l 311 1015 l 35 1015 l 35 1006 l 615 510 l 33 10 l 33 0 l 306 0 l 758 397 l 1218 0 l 1494 0 l 1494 10 l 899 519 z "},"x":{"ha":1528,"x_min":0,"x_max":0,"o":"m 1467 1006 l 1467 1015 l 1193 1015 l 756 632 l 311 1015 l 35 1015 l 35 1006 l 615 510 l 33 10 l 33 0 l 306 0 l 758 397 l 1218 0 l 1494 0 l 1494 10 l 899 519 z "},"Χ":{"ha":1528,"x_min":0,"x_max":0,"o":"m 1467 1006 l 1467 1015 l 1193 1015 l 756 632 l 311 1015 l 35 1015 l 35 1006 l 615 510 l 33 10 l 33 0 l 306 0 l 758 397 l 1218 0 l 1494 0 l 1494 10 l 899 519 z "},"χ":{"ha":1528,"x_min":0,"x_max":0,"o":"m 1467 1006 l 1467 1015 l 1193 1015 l 756 632 l 311 1015 l 35 1015 l 35 1006 l 615 510 l 33 10 l 33 0 l 306 0 l 758 397 l 1218 0 l 1494 0 l 1494 10 l 899 519 z "},"Х":{"ha":1528,"x_min":0,"x_max":0,"o":"m 1467 1006 l 1467 1015 l 1193 1015 l 756 632 l 311 1015 l 35 1015 l 35 1006 l 615 510 l 33 10 l 33 0 l 306 0 l 758 397 l 1218 0 l 1494 0 l 1494 10 l 899 519 z "},"х":{"ha":1528,"x_min":0,"x_max":0,"o":"m 1467 1006 l 1467 1015 l 1193 1015 l 756 632 l 311 1015 l 35 1015 l 35 1006 l 615 510 l 33 10 l 33 0 l 306 0 l 758 397 l 1218 0 l 1494 0 l 1494 10 l 899 519 z "},"Y":{"ha":1428,"x_min":0,"x_max":0,"o":"m 324 1015 l 90 1015 l 90 590 b 338 371 90 444 174 371 l 1093 371 l 1093 272 b 988 174 1093 206 1058 174 l 206 174 l 206 0 l 1079 0 b 1325 219 1243 0 1325 74 l 1325 1015 l 1093 1015 l 1093 519 l 429 519 b 324 619 358 519 324 553 z "},"y":{"ha":1428,"x_min":0,"x_max":0,"o":"m 324 1015 l 90 1015 l 90 590 b 338 371 90 444 174 371 l 1093 371 l 1093 272 b 988 174 1093 206 1058 174 l 206 174 l 206 0 l 1079 0 b 1325 219 1243 0 1325 74 l 1325 1015 l 1093 1015 l 1093 519 l 429 519 b 324 619 358 519 324 553 z "},"У":{"ha":1428,"x_min":0,"x_max":0,"o":"m 324 1015 l 90 1015 l 90 590 b 338 371 90 444 174 371 l 1093 371 l 1093 272 b 988 174 1093 206 1058 174 l 206 174 l 206 0 l 1079 0 b 1325 219 1243 0 1325 74 l 1325 1015 l 1093 1015 l 1093 519 l 429 519 b 324 619 358 519 324 553 z "},"у":{"ha":1428,"x_min":0,"x_max":0,"o":"m 324 1015 l 90 1015 l 90 590 b 338 371 90 444 174 371 l 1093 371 l 1093 272 b 988 174 1093 206 1058 174 l 206 174 l 206 0 l 1079 0 b 1325 219 1243 0 1325 74 l 1325 1015 l 1093 1015 l 1093 519 l 429 519 b 324 619 358 519 324 553 z "},"Z":{"ha":1319,"x_min":0,"x_max":0,"o":"m 78 842 l 1001 842 l 132 239 b 78 157 96 219 78 190 l 78 94 b 215 0 78 32 122 0 l 1243 0 l 1243 174 l 329 174 l 1188 776 b 1243 860 1224 797 1243 826 l 1243 921 b 1106 1015 1243 983 1197 1015 l 78 1015 z "},"z":{"ha":1319,"x_min":0,"x_max":0,"o":"m 78 842 l 1001 842 l 132 239 b 78 157 96 219 78 190 l 78 94 b 215 0 78 32 122 0 l 1243 0 l 1243 174 l 329 174 l 1188 776 b 1243 860 1224 797 1243 826 l 1243 921 b 1106 1015 1243 983 1197 1015 l 78 1015 z "},"Ζ":{"ha":1319,"x_min":0,"x_max":0,"o":"m 78 842 l 1001 842 l 132 239 b 78 157 96 219 78 190 l 78 94 b 215 0 78 32 122 0 l 1243 0 l 1243 174 l 329 174 l 1188 776 b 1243 860 1224 797 1243 826 l 1243 921 b 1106 1015 1243 983 1197 1015 l 78 1015 z "},"ζ":{"ha":1319,"x_min":0,"x_max":0,"o":"m 78 842 l 1001 842 l 132 239 b 78 157 96 219 78 190 l 78 94 b 215 0 78 32 122 0 l 1243 0 l 1243 174 l 329 174 l 1188 776 b 1243 860 1224 797 1243 826 l 1243 921 b 1106 1015 1243 983 1197 1015 l 78 1015 z "},"[":{"ha":651,"x_min":0,"x_max":0,"o":"m 589 -236 l 265 -236 l 265 1214 l 589 1214 l 589 1322 l 157 1322 l 157 -344 l 589 -344 z "},"\\":{"ha":683,"x_min":0,"x_max":0,"o":"m 658 -206 l 140 1185 l 25 1185 l 544 -206 z "},"]":{"ha":651,"x_min":0,"x_max":0,"o":"m 63 1214 l 386 1214 l 386 -236 l 63 -236 l 63 -344 l 494 -344 l 494 1322 l 63 1322 z "},"^":{"ha":1015,"x_min":0,"x_max":0,"o":"m 950 354 l 567 1015 l 449 1015 l 65 354 l 192 354 l 508 914 l 825 354 z "},"_":{"ha":1067,"x_min":0,"x_max":0,"o":"m 0 -260 l 1069 -260 l 1069 -128 l 0 -128 z "},"`":{"ha":514,"x_min":0,"x_max":0,"o":"m 286 1322 l 97 1322 l 272 1057 l 417 1057 z "},"{":{"ha":651,"x_min":0,"x_max":0,"o":"m 432 651 l 432 1072 b 543 1214 432 1167 469 1214 l 589 1214 l 589 1322 l 543 1322 b 324 1072 396 1322 324 1239 l 324 651 b 196 544 324 581 285 544 l 114 544 l 114 436 l 196 436 b 324 329 285 436 324 400 l 324 -94 b 543 -344 324 -261 396 -344 l 589 -344 l 589 -236 l 543 -236 b 432 -94 469 -236 432 -190 l 432 329 b 331 490 432 407 399 463 b 432 651 399 518 432 574 z "},"|":{"ha":426,"x_min":0,"x_max":0,"o":"m 265 -344 l 265 1322 l 157 1322 l 157 -344 z "},"}":{"ha":651,"x_min":0,"x_max":0,"o":"m 219 326 l 219 -94 b 108 -236 219 -189 182 -236 l 63 -236 l 63 -344 l 108 -344 b 328 -94 256 -344 328 -261 l 328 326 b 456 433 328 397 367 433 l 538 433 l 538 542 l 456 542 b 328 649 367 542 328 578 l 328 1072 b 108 1322 328 1239 256 1322 l 63 1322 l 63 1214 l 108 1214 b 219 1072 182 1214 219 1168 l 219 649 b 319 488 219 569 251 515 b 219 326 251 458 219 404 z "},"~":{"ha":1015,"x_min":0,"x_max":0,"o":"m 713 426 b 911 481 810 426 872 444 l 911 593 b 713 532 864 550 808 532 b 304 589 574 532 433 589 b 106 535 206 589 143 571 l 106 422 b 303 483 153 465 207 483 b 713 426 442 483 582 426 z "},"¡":{"ha":444,"x_min":0,"x_max":0,"o":"m 103 -267 l 343 -267 l 314 425 l 131 425 z m 164 749 b 111 701 129 749 111 733 l 111 618 b 164 569 111 585 129 569 l 281 569 b 335 618 317 569 335 585 l 335 703 b 281 749 335 733 317 749 z "},"¢":{"ha":1203,"x_min":0,"x_max":0,"o":"m 717 1139 l 607 1139 l 607 974 l 325 974 b 97 772 174 974 97 907 l 97 243 b 325 42 97 108 174 42 l 607 42 l 607 -124 l 717 -124 l 717 42 l 1097 42 l 1097 201 l 408 201 b 313 292 344 201 313 231 l 313 724 b 408 814 313 785 344 814 l 1097 814 l 1097 974 l 717 974 z "},"£":{"ha":1336,"x_min":0,"x_max":0,"o":"m 46 524 l 157 524 l 157 0 l 1264 0 l 1264 174 l 389 174 l 389 524 l 910 524 l 910 633 l 389 633 l 389 743 b 494 842 389 808 424 842 l 1264 842 l 1264 1015 l 403 1015 b 157 796 239 1015 157 942 l 157 633 l 46 633 z "},"¤":{"ha":1015,"x_min":0,"x_max":0,"o":"m 918 857 l 840 933 l 644 732 b 586 733 625 733 606 733 l 428 733 b 369 732 407 733 389 733 l 174 933 l 96 857 l 251 693 b 211 593 225 672 211 639 l 211 419 b 254 318 211 372 225 338 l 96 154 l 174 78 l 372 282 b 429 281 390 281 410 281 l 585 281 b 640 282 603 281 622 281 l 840 76 l 918 153 l 760 317 b 804 419 789 338 804 371 l 804 593 b 761 694 804 640 790 674 z m 624 649 b 689 585 668 649 689 628 l 689 426 b 624 365 689 385 668 365 l 390 365 b 325 426 346 365 325 385 l 325 585 b 390 649 325 628 346 649 z "},"¥":{"ha":1276,"x_min":0,"x_max":0,"o":"m 90 394 l 522 394 l 522 271 l 90 271 l 90 161 l 522 161 l 522 0 l 754 0 l 754 161 l 1185 161 l 1185 271 l 754 271 l 754 394 l 1185 394 l 1185 504 l 792 504 l 1188 1006 l 1188 1015 l 958 1015 l 639 601 l 318 1015 l 86 1015 l 86 1006 l 483 504 l 90 504 z "},"¦":{"ha":421,"x_min":0,"x_max":0,"o":"m 265 618 l 265 1322 l 157 1322 l 157 618 z m 265 -344 l 265 360 l 157 360 l 157 -344 z "},"§":{"ha":1353,"x_min":0,"x_max":0,"o":"m 479 1018 b 90 628 219 1018 90 888 l 90 403 b 479 82 90 189 219 82 l 1104 82 l 1104 51 b 875 -200 1104 -117 1028 -200 l 90 -200 l 90 -344 l 875 -344 b 1263 46 1135 -344 1263 -214 l 1263 271 b 875 590 1263 483 1135 590 l 250 590 l 250 622 b 479 874 250 790 325 874 l 1263 874 l 1263 1018 z m 875 467 b 1104 271 1028 467 1104 401 l 1104 206 l 479 206 b 250 403 325 206 250 271 l 250 467 z "},"¨":{"ha":826,"x_min":0,"x_max":0,"o":"m 682 1124 b 729 1164 713 1124 729 1136 l 729 1235 b 682 1276 729 1264 713 1276 l 583 1276 b 539 1235 554 1276 539 1264 l 539 1164 b 583 1124 539 1136 554 1124 z m 240 1124 b 288 1164 271 1124 288 1136 l 288 1235 b 240 1276 288 1264 271 1276 l 142 1276 b 97 1235 113 1276 97 1264 l 97 1164 b 142 1124 97 1136 113 1124 z "},"©":{"ha":1433,"x_min":0,"x_max":0,"o":"m 511 647 b 571 703 511 685 531 703 l 1038 703 l 1038 801 l 519 801 b 379 676 426 801 379 760 l 379 350 b 519 225 379 267 426 225 l 1038 225 l 1038 324 l 571 324 b 511 379 531 324 511 342 z m 1058 922 b 1225 760 1168 922 1225 865 l 1225 254 b 1058 93 1225 150 1168 93 l 374 93 b 208 254 265 93 208 150 l 208 760 b 374 922 208 865 265 922 z m 1074 0 b 1347 247 1257 0 1347 82 l 1347 768 b 1074 1015 1347 933 1257 1015 l 358 1015 b 85 768 175 1015 85 933 l 85 247 b 358 0 85 82 175 0 z "},"ª":{"ha":910,"x_min":0,"x_max":0,"o":"m 221 1015 b 74 883 122 1015 74 971 l 74 406 l 218 406 l 218 608 l 674 608 l 674 406 l 818 406 l 818 883 b 671 1015 818 971 769 1015 z m 218 851 b 276 907 218 890 233 907 l 615 907 b 674 851 657 907 674 890 l 674 703 l 218 703 z m 211 150 l 690 150 l 690 261 l 211 261 z "},"«":{"ha":599,"x_min":0,"x_max":0,"o":"m 299 806 l 183 806 l 42 403 l 183 0 l 299 0 l 156 403 z m 557 806 l 442 806 l 300 403 l 442 0 l 557 0 l 414 403 z "},"¬":{"ha":1015,"x_min":0,"x_max":0,"o":"m 911 703 l 106 703 l 106 594 l 801 594 l 801 0 l 911 0 z "},"®":{"ha":1433,"x_min":0,"x_max":0,"o":"m 1074 0 b 1347 247 1257 0 1347 82 l 1347 768 b 1074 1015 1347 933 1257 1015 l 358 1015 b 85 768 175 1015 85 933 l 85 247 b 358 0 85 82 175 0 z m 1058 922 b 1225 760 1168 922 1225 865 l 1225 254 b 1058 93 1225 150 1168 93 l 374 93 b 208 254 265 93 208 150 l 208 760 b 374 922 208 865 265 922 z m 374 225 l 506 225 l 506 443 l 783 443 l 956 225 l 1101 225 l 1101 231 l 932 443 b 1074 583 1026 447 1074 494 l 1074 661 b 918 801 1074 756 1022 801 l 374 801 z m 943 592 b 876 528 943 549 921 528 l 506 528 l 506 706 l 876 706 b 943 642 921 706 943 685 z "},"¯":{"ha":965,"x_min":0,"x_max":0,"o":"m 867 1149 l 867 1251 l 97 1251 l 97 1149 z "},"°":{"ha":740,"x_min":0,"x_max":0,"o":"m 485 931 b 551 867 531 931 551 910 l 551 708 b 485 647 551 667 531 647 l 253 647 b 188 708 208 647 188 667 l 188 867 b 253 931 188 910 208 931 z m 513 563 b 665 701 615 563 665 608 l 665 875 b 513 1015 665 968 615 1015 l 226 1015 b 74 875 125 1015 74 968 l 74 701 b 226 563 74 608 125 563 z "},"±":{"ha":1015,"x_min":0,"x_max":0,"o":"m 911 660 l 563 660 l 563 1032 l 454 1032 l 454 660 l 106 660 l 106 551 l 454 551 l 454 181 l 563 181 l 563 551 l 911 551 z m 911 93 l 106 93 l 106 -15 l 911 -15 z "},"²":{"ha":796,"x_min":0,"x_max":0,"o":"m 225 814 b 75 678 125 814 75 768 l 75 457 l 722 457 l 722 558 l 207 558 l 207 671 b 265 728 207 708 226 728 l 590 728 b 724 842 682 728 724 765 l 724 897 b 590 1015 724 972 682 1015 l 94 1015 l 94 915 l 550 915 b 592 876 579 915 592 901 l 592 849 b 550 814 592 824 579 814 z "},"³":{"ha":810,"x_min":0,"x_max":0,"o":"m 89 558 l 89 457 l 579 457 b 736 592 683 457 736 501 l 736 668 b 675 765 736 715 715 747 b 731 851 711 781 731 810 l 731 897 b 593 1015 731 975 685 1015 l 89 1015 l 89 915 l 557 915 b 604 878 588 915 604 903 l 604 847 b 557 814 604 825 588 814 l 235 814 l 235 728 l 540 728 b 606 679 583 728 606 711 l 606 611 b 540 558 606 575 583 558 z "},"´":{"ha":514,"x_min":0,"x_max":0,"o":"m 97 1057 l 243 1057 l 417 1322 l 228 1322 z "},"¶":{"ha":1386,"x_min":0,"x_max":0,"o":"m 821 -344 l 821 871 l 1175 871 l 1175 -344 l 1283 -344 l 1283 1015 l 457 1015 b 71 646 200 1015 71 892 l 71 543 b 457 203 71 317 200 203 l 713 203 l 713 -344 z m 231 635 b 457 871 231 792 306 871 l 713 871 l 713 326 l 457 326 b 231 538 306 326 231 396 z "},"·":{"ha":393,"x_min":0,"x_max":0,"o":"m 254 414 b 308 461 290 414 308 429 l 308 544 b 254 593 308 578 290 593 l 139 593 b 85 544 103 593 85 578 l 85 461 b 139 414 85 429 103 414 z "},"¸":{"ha":400,"x_min":0,"x_max":0,"o":"m 96 -344 l 239 -344 l 311 -46 l 125 -46 z "},"¹":{"ha":450,"x_min":0,"x_max":0,"o":"m 229 457 l 361 457 l 361 894 b 228 1015 361 975 317 1015 l 58 1015 l 58 915 l 176 915 b 229 865 211 915 229 899 z "},"º":{"ha":910,"x_min":0,"x_max":0,"o":"m 606 907 b 671 843 653 907 671 889 l 671 576 b 606 514 671 532 653 514 l 283 514 b 218 576 236 514 218 532 l 218 843 b 283 907 218 889 236 907 z m 651 406 b 815 554 761 406 815 454 l 815 867 b 651 1015 815 965 761 1015 l 238 1015 b 74 867 126 1015 74 965 l 74 554 b 238 406 74 454 126 406 z m 214 149 l 693 149 l 693 260 l 214 260 z "},"»":{"ha":599,"x_min":0,"x_max":0,"o":"m 42 0 l 154 0 l 297 403 l 154 806 l 42 806 l 183 403 z m 300 0 l 413 0 l 556 403 l 413 806 l 300 806 l 442 403 z "},"¼":{"ha":1483,"x_min":0,"x_max":0,"o":"m 239 457 l 371 457 l 371 894 b 238 1015 371 975 326 1015 l 68 1015 l 68 915 l 186 915 b 239 865 221 915 239 899 z m 269 0 l 961 1015 l 844 1015 l 150 0 z m 1344 558 l 1214 558 l 1214 263 l 889 263 b 836 311 853 263 836 278 l 836 558 l 703 558 l 703 288 b 838 167 703 207 747 167 l 1214 167 l 1214 0 l 1344 0 l 1344 167 l 1414 167 l 1414 263 l 1344 263 z "},"½":{"ha":1418,"x_min":0,"x_max":0,"o":"m 239 457 l 371 457 l 371 894 b 238 1015 371 975 326 1015 l 68 1015 l 68 915 l 186 915 b 239 865 221 915 239 899 z m 269 0 l 961 1015 l 844 1015 l 150 0 z m 851 357 b 701 221 751 357 701 311 l 701 0 l 1349 0 l 1349 101 l 833 101 l 833 214 b 892 271 833 251 853 271 l 1217 271 b 1350 385 1308 271 1350 308 l 1350 440 b 1217 558 1350 515 1308 558 l 721 558 l 721 458 l 1176 458 b 1218 419 1206 458 1218 444 l 1218 392 b 1176 357 1218 367 1206 357 z "},"¾":{"ha":1760,"x_min":0,"x_max":0,"o":"m 67 558 l 67 457 l 557 457 b 714 592 661 457 714 501 l 714 668 b 653 765 714 715 693 747 b 708 851 689 781 708 810 l 708 897 b 571 1015 708 975 663 1015 l 67 1015 l 67 915 l 535 915 b 582 878 565 915 582 903 l 582 847 b 535 814 582 825 565 814 l 213 814 l 213 728 l 518 728 b 583 679 561 728 583 711 l 583 611 b 518 558 583 575 561 558 z m 547 0 l 1239 1015 l 1122 1015 l 428 0 z m 1622 558 l 1492 558 l 1492 263 l 1167 263 b 1114 311 1131 263 1114 278 l 1114 558 l 981 558 l 981 288 b 1115 167 981 207 1025 167 l 1492 167 l 1492 0 l 1622 0 l 1622 167 l 1692 167 l 1692 263 l 1622 263 z "},"¿":{"ha":1128,"x_min":0,"x_max":0,"o":"m 876 749 b 821 701 839 749 821 733 l 821 618 b 876 569 821 585 839 569 l 992 569 b 1044 618 1026 569 1044 585 l 1044 701 b 992 749 1044 733 1026 749 z m 797 92 b 1028 310 951 92 1028 164 l 1028 425 l 839 425 l 839 333 b 715 221 839 260 797 221 l 319 221 b 72 22 154 221 72 156 l 72 -62 b 319 -267 72 -199 154 -267 l 1047 -267 l 1047 -108 l 383 -108 b 292 -39 322 -108 292 -86 l 292 22 b 383 92 292 68 322 92 z "},"À":{"ha":1446,"x_min":0,"x_max":0,"o":"m 349 1015 b 103 796 185 1015 103 942 l 103 0 l 335 0 l 335 343 l 1113 343 l 1113 0 l 1344 0 l 1344 796 b 1097 1015 1344 942 1261 1015 z m 335 743 b 440 842 335 808 371 842 l 1006 842 b 1113 743 1076 842 1113 808 l 1113 490 l 335 490 z m 731 1322 l 542 1322 l 717 1057 l 861 1057 z "},"à":{"ha":1446,"x_min":0,"x_max":0,"o":"m 349 1015 b 103 796 185 1015 103 942 l 103 0 l 335 0 l 335 343 l 1113 343 l 1113 0 l 1344 0 l 1344 796 b 1097 1015 1344 942 1261 1015 z m 335 743 b 440 842 335 808 371 842 l 1006 842 b 1113 743 1076 842 1113 808 l 1113 490 l 335 490 z m 731 1322 l 542 1322 l 717 1057 l 861 1057 z "},"Á":{"ha":1446,"x_min":0,"x_max":0,"o":"m 349 1015 b 103 796 185 1015 103 942 l 103 0 l 335 0 l 335 343 l 1113 343 l 1113 0 l 1344 0 l 1344 796 b 1097 1015 1344 942 1261 1015 z m 335 743 b 440 842 335 808 371 842 l 1006 842 b 1113 743 1076 842 1113 808 l 1113 490 l 335 490 z m 606 1057 l 751 1057 l 925 1322 l 736 1322 z "},"á":{"ha":1446,"x_min":0,"x_max":0,"o":"m 349 1015 b 103 796 185 1015 103 942 l 103 0 l 335 0 l 335 343 l 1113 343 l 1113 0 l 1344 0 l 1344 796 b 1097 1015 1344 942 1261 1015 z m 335 743 b 440 842 335 808 371 842 l 1006 842 b 1113 743 1076 842 1113 808 l 1113 490 l 335 490 z m 606 1057 l 751 1057 l 925 1322 l 736 1322 z "},"Â":{"ha":1446,"x_min":0,"x_max":0,"o":"m 349 1015 b 103 796 185 1015 103 942 l 103 0 l 335 0 l 335 343 l 1113 343 l 1113 0 l 1344 0 l 1344 796 b 1097 1015 1344 942 1261 1015 z m 335 743 b 440 842 335 808 371 842 l 1006 842 b 1113 743 1076 842 1113 808 l 1113 490 l 335 490 z m 426 1057 l 571 1057 l 724 1258 l 875 1057 l 1019 1057 l 839 1322 l 606 1322 z "},"â":{"ha":1446,"x_min":0,"x_max":0,"o":"m 349 1015 b 103 796 185 1015 103 942 l 103 0 l 335 0 l 335 343 l 1113 343 l 1113 0 l 1344 0 l 1344 796 b 1097 1015 1344 942 1261 1015 z m 335 743 b 440 842 335 808 371 842 l 1006 842 b 1113 743 1076 842 1113 808 l 1113 490 l 335 490 z m 426 1057 l 571 1057 l 724 1258 l 875 1057 l 1019 1057 l 839 1322 l 606 1322 z "},"Ã":{"ha":1446,"x_min":0,"x_max":0,"o":"m 349 1015 b 103 796 185 1015 103 942 l 103 0 l 335 0 l 335 343 l 1113 343 l 1113 0 l 1344 0 l 1344 796 b 1097 1015 1344 942 1261 1015 z m 335 743 b 440 842 335 808 371 842 l 1006 842 b 1113 743 1076 842 1113 808 l 1113 490 l 335 490 z m 1107 1149 l 1107 1251 l 338 1251 l 338 1149 z "},"ã":{"ha":1446,"x_min":0,"x_max":0,"o":"m 349 1015 b 103 796 185 1015 103 942 l 103 0 l 335 0 l 335 343 l 1113 343 l 1113 0 l 1344 0 l 1344 796 b 1097 1015 1344 942 1261 1015 z m 335 743 b 440 842 335 808 371 842 l 1006 842 b 1113 743 1076 842 1113 808 l 1113 490 l 335 490 z m 1107 1149 l 1107 1251 l 338 1251 l 338 1149 z "},"Ā":{"ha":1446,"x_min":0,"x_max":0,"o":"m 349 1015 b 103 796 185 1015 103 942 l 103 0 l 335 0 l 335 343 l 1113 343 l 1113 0 l 1344 0 l 1344 796 b 1097 1015 1344 942 1261 1015 z m 335 743 b 440 842 335 808 371 842 l 1006 842 b 1113 743 1076 842 1113 808 l 1113 490 l 335 490 z m 1107 1149 l 1107 1251 l 338 1251 l 338 1149 z "},"ā":{"ha":1446,"x_min":0,"x_max":0,"o":"m 349 1015 b 103 796 185 1015 103 942 l 103 0 l 335 0 l 335 343 l 1113 343 l 1113 0 l 1344 0 l 1344 796 b 1097 1015 1344 942 1261 1015 z m 335 743 b 440 842 335 808 371 842 l 1006 842 b 1113 743 1076 842 1113 808 l 1113 490 l 335 490 z m 1107 1149 l 1107 1251 l 338 1251 l 338 1149 z "},"Ä":{"ha":1446,"x_min":0,"x_max":0,"o":"m 349 1015 b 103 796 185 1015 103 942 l 103 0 l 335 0 l 335 343 l 1113 343 l 1113 0 l 1344 0 l 1344 796 b 1097 1015 1344 942 1261 1015 z m 335 743 b 440 842 335 808 371 842 l 1006 842 b 1113 743 1076 842 1113 808 l 1113 490 l 335 490 z m 993 1124 b 1040 1164 1024 1124 1040 1136 l 1040 1235 b 993 1276 1040 1264 1024 1276 l 894 1276 b 850 1235 865 1276 850 1264 l 850 1164 b 894 1124 850 1136 865 1124 z m 551 1124 b 599 1164 582 1124 599 1136 l 599 1235 b 551 1276 599 1264 582 1276 l 453 1276 b 408 1235 424 1276 408 1264 l 408 1164 b 453 1124 408 1136 424 1124 z "},"ä":{"ha":1446,"x_min":0,"x_max":0,"o":"m 349 1015 b 103 796 185 1015 103 942 l 103 0 l 335 0 l 335 343 l 1113 343 l 1113 0 l 1344 0 l 1344 796 b 1097 1015 1344 942 1261 1015 z m 335 743 b 440 842 335 808 371 842 l 1006 842 b 1113 743 1076 842 1113 808 l 1113 490 l 335 490 z m 993 1124 b 1040 1164 1024 1124 1040 1136 l 1040 1235 b 993 1276 1040 1264 1024 1276 l 894 1276 b 850 1235 865 1276 850 1264 l 850 1164 b 894 1124 850 1136 865 1124 z m 551 1124 b 599 1164 582 1124 599 1136 l 599 1235 b 551 1276 599 1264 582 1276 l 453 1276 b 408 1235 424 1276 408 1264 l 408 1164 b 453 1124 408 1136 424 1124 z "},"Å":{"ha":1446,"x_min":0,"x_max":0,"o":"m 349 1015 b 103 796 185 1015 103 942 l 103 0 l 335 0 l 335 343 l 1113 343 l 1113 0 l 1344 0 l 1344 796 b 1097 1015 1344 942 1261 1015 z m 335 743 b 440 842 335 808 371 842 l 1006 842 b 1113 743 1076 842 1113 808 l 1113 490 l 335 490 z m 783 1253 b 832 1210 815 1253 832 1239 l 832 1150 b 783 1106 832 1119 815 1106 l 661 1106 b 613 1150 629 1106 613 1119 l 613 1210 b 661 1253 613 1239 629 1253 z m 811 1038 b 929 1142 890 1038 929 1072 l 929 1218 b 811 1322 929 1288 890 1322 l 633 1322 b 515 1218 554 1322 515 1288 l 515 1142 b 633 1038 515 1072 554 1038 z "},"å":{"ha":1446,"x_min":0,"x_max":0,"o":"m 349 1015 b 103 796 185 1015 103 942 l 103 0 l 335 0 l 335 343 l 1113 343 l 1113 0 l 1344 0 l 1344 796 b 1097 1015 1344 942 1261 1015 z m 335 743 b 440 842 335 808 371 842 l 1006 842 b 1113 743 1076 842 1113 808 l 1113 490 l 335 490 z m 783 1253 b 832 1210 815 1253 832 1239 l 832 1150 b 783 1106 832 1119 815 1106 l 661 1106 b 613 1150 629 1106 613 1119 l 613 1210 b 661 1253 613 1239 629 1253 z m 811 1038 b 929 1142 890 1038 929 1072 l 929 1218 b 811 1322 929 1288 890 1322 l 633 1322 b 515 1218 554 1322 515 1288 l 515 1142 b 633 1038 515 1072 554 1038 z "},"Æ":{"ha":2088,"x_min":0,"x_max":0,"o":"m 1192 842 l 2013 842 l 2013 1015 l 349 1015 b 103 796 185 1015 103 942 l 103 0 l 335 0 l 335 343 l 960 343 l 960 0 l 2013 0 l 2013 174 l 1192 174 l 1192 503 l 1815 503 l 1815 650 l 1192 650 z m 335 743 b 440 842 335 808 371 842 l 960 842 l 960 490 l 335 490 z "},"æ":{"ha":2088,"x_min":0,"x_max":0,"o":"m 1192 842 l 2013 842 l 2013 1015 l 349 1015 b 103 796 185 1015 103 942 l 103 0 l 335 0 l 335 343 l 960 343 l 960 0 l 2013 0 l 2013 174 l 1192 174 l 1192 503 l 1815 503 l 1815 650 l 1192 650 z m 335 743 b 440 842 335 808 371 842 l 960 842 l 960 490 l 335 490 z "},"Ç":{"ha":1332,"x_min":0,"x_max":0,"o":"m 329 743 b 436 842 329 808 365 842 l 1257 842 l 1257 1015 l 344 1015 b 97 796 181 1015 97 942 l 97 219 b 344 0 97 74 181 0 l 1257 0 l 1257 174 l 436 174 b 329 272 365 174 329 206 z m 599 -344 l 742 -344 l 814 -46 l 628 -46 z "},"ç":{"ha":1332,"x_min":0,"x_max":0,"o":"m 329 743 b 436 842 329 808 365 842 l 1257 842 l 1257 1015 l 344 1015 b 97 796 181 1015 97 942 l 97 219 b 344 0 97 74 181 0 l 1257 0 l 1257 174 l 436 174 b 329 272 365 174 329 206 z m 599 -344 l 742 -344 l 814 -46 l 628 -46 z "},"È":{"ha":1356,"x_min":0,"x_max":0,"o":"m 338 842 l 1281 842 l 1281 1015 l 106 1015 l 106 0 l 1281 0 l 1281 174 l 338 174 l 338 503 l 1083 503 l 1083 650 l 338 650 z m 688 1322 l 499 1322 l 674 1057 l 818 1057 z "},"è":{"ha":1356,"x_min":0,"x_max":0,"o":"m 338 842 l 1281 842 l 1281 1015 l 106 1015 l 106 0 l 1281 0 l 1281 174 l 338 174 l 338 503 l 1083 503 l 1083 650 l 338 650 z m 688 1322 l 499 1322 l 674 1057 l 818 1057 z "},"Ѐ":{"ha":1356,"x_min":0,"x_max":0,"o":"m 338 842 l 1281 842 l 1281 1015 l 106 1015 l 106 0 l 1281 0 l 1281 174 l 338 174 l 338 503 l 1083 503 l 1083 650 l 338 650 z m 688 1322 l 499 1322 l 674 1057 l 818 1057 z "},"ѐ":{"ha":1356,"x_min":0,"x_max":0,"o":"m 338 842 l 1281 842 l 1281 1015 l 106 1015 l 106 0 l 1281 0 l 1281 174 l 338 174 l 338 503 l 1083 503 l 1083 650 l 338 650 z m 688 1322 l 499 1322 l 674 1057 l 818 1057 z "},"É":{"ha":1356,"x_min":0,"x_max":0,"o":"m 338 842 l 1281 842 l 1281 1015 l 106 1015 l 106 0 l 1281 0 l 1281 174 l 338 174 l 338 503 l 1083 503 l 1083 650 l 338 650 z m 582 1057 l 728 1057 l 901 1322 l 713 1322 z "},"é":{"ha":1356,"x_min":0,"x_max":0,"o":"m 338 842 l 1281 842 l 1281 1015 l 106 1015 l 106 0 l 1281 0 l 1281 174 l 338 174 l 338 503 l 1083 503 l 1083 650 l 338 650 z m 582 1057 l 728 1057 l 901 1322 l 713 1322 z "},"Ê":{"ha":1356,"x_min":0,"x_max":0,"o":"m 338 842 l 1281 842 l 1281 1015 l 106 1015 l 106 0 l 1281 0 l 1281 174 l 338 174 l 338 503 l 1083 503 l 1083 650 l 338 650 z m 404 1057 l 549 1057 l 701 1258 l 853 1057 l 997 1057 l 817 1322 l 583 1322 z "},"ê":{"ha":1356,"x_min":0,"x_max":0,"o":"m 338 842 l 1281 842 l 1281 1015 l 106 1015 l 106 0 l 1281 0 l 1281 174 l 338 174 l 338 503 l 1083 503 l 1083 650 l 338 650 z m 404 1057 l 549 1057 l 701 1258 l 853 1057 l 997 1057 l 817 1322 l 583 1322 z "},"Ë":{"ha":1356,"x_min":0,"x_max":0,"o":"m 338 842 l 1281 842 l 1281 1015 l 106 1015 l 106 0 l 1281 0 l 1281 174 l 338 174 l 338 503 l 1083 503 l 1083 650 l 338 650 z m 969 1124 b 1017 1164 1000 1124 1017 1136 l 1017 1235 b 969 1276 1017 1264 1000 1276 l 871 1276 b 826 1235 842 1276 826 1264 l 826 1164 b 871 1124 826 1136 842 1124 z m 528 1124 b 575 1164 558 1124 575 1136 l 575 1235 b 528 1276 575 1264 558 1276 l 429 1276 b 385 1235 400 1276 385 1264 l 385 1164 b 429 1124 385 1136 400 1124 z "},"ë":{"ha":1356,"x_min":0,"x_max":0,"o":"m 338 842 l 1281 842 l 1281 1015 l 106 1015 l 106 0 l 1281 0 l 1281 174 l 338 174 l 338 503 l 1083 503 l 1083 650 l 338 650 z m 969 1124 b 1017 1164 1000 1124 1017 1136 l 1017 1235 b 969 1276 1017 1264 1000 1276 l 871 1276 b 826 1235 842 1276 826 1264 l 826 1164 b 871 1124 826 1136 842 1124 z m 528 1124 b 575 1164 558 1124 575 1136 l 575 1235 b 528 1276 575 1264 558 1276 l 429 1276 b 385 1235 400 1276 385 1264 l 385 1164 b 429 1124 385 1136 400 1124 z "},"Ё":{"ha":1356,"x_min":0,"x_max":0,"o":"m 338 842 l 1281 842 l 1281 1015 l 106 1015 l 106 0 l 1281 0 l 1281 174 l 338 174 l 338 503 l 1083 503 l 1083 650 l 338 650 z m 969 1124 b 1017 1164 1000 1124 1017 1136 l 1017 1235 b 969 1276 1017 1264 1000 1276 l 871 1276 b 826 1235 842 1276 826 1264 l 826 1164 b 871 1124 826 1136 842 1124 z m 528 1124 b 575 1164 558 1124 575 1136 l 575 1235 b 528 1276 575 1264 558 1276 l 429 1276 b 385 1235 400 1276 385 1264 l 385 1164 b 429 1124 385 1136 400 1124 z "},"ё":{"ha":1356,"x_min":0,"x_max":0,"o":"m 338 842 l 1281 842 l 1281 1015 l 106 1015 l 106 0 l 1281 0 l 1281 174 l 338 174 l 338 503 l 1083 503 l 1083 650 l 338 650 z m 969 1124 b 1017 1164 1000 1124 1017 1136 l 1017 1235 b 969 1276 1017 1264 1000 1276 l 871 1276 b 826 1235 842 1276 826 1264 l 826 1164 b 871 1124 826 1136 842 1124 z m 528 1124 b 575 1164 558 1124 575 1136 l 575 1235 b 528 1276 575 1264 558 1276 l 429 1276 b 385 1235 400 1276 385 1264 l 385 1164 b 429 1124 385 1136 400 1124 z "},"Ì":{"ha":454,"x_min":0,"x_max":0,"o":"m 349 1015 l 117 1015 l 117 0 l 349 0 z m 199 1322 l 10 1322 l 185 1057 l 329 1057 z "},"ì":{"ha":454,"x_min":0,"x_max":0,"o":"m 349 1015 l 117 1015 l 117 0 l 349 0 z m 199 1322 l 10 1322 l 185 1057 l 329 1057 z "},"Í":{"ha":454,"x_min":0,"x_max":0,"o":"m 338 1015 l 106 1015 l 106 0 l 338 0 z m 126 1057 l 272 1057 l 446 1322 l 257 1322 z "},"í":{"ha":454,"x_min":0,"x_max":0,"o":"m 338 1015 l 106 1015 l 106 0 l 338 0 z m 126 1057 l 272 1057 l 446 1322 l 257 1322 z "},"Î":{"ha":519,"x_min":0,"x_max":0,"o":"m 376 1015 l 144 1015 l 144 0 l 376 0 z m -36 1057 l 108 1057 l 261 1258 l 413 1057 l 557 1057 l 376 1322 l 143 1322 z "},"î":{"ha":519,"x_min":0,"x_max":0,"o":"m 376 1015 l 144 1015 l 144 0 l 376 0 z m -36 1057 l 108 1057 l 261 1258 l 413 1057 l 557 1057 l 376 1322 l 143 1322 z "},"Ï":{"ha":582,"x_min":0,"x_max":0,"o":"m 407 1015 l 175 1015 l 175 0 l 407 0 z m 561 1124 b 608 1164 592 1124 608 1136 l 608 1235 b 561 1276 608 1264 592 1276 l 463 1276 b 418 1235 433 1276 418 1264 l 418 1164 b 463 1124 418 1136 433 1124 z m 119 1124 b 167 1164 150 1124 167 1136 l 167 1235 b 119 1276 167 1264 150 1276 l 21 1276 b -24 1235 -8 1276 -24 1264 l -24 1164 b 21 1124 -24 1136 -8 1124 z "},"ï":{"ha":582,"x_min":0,"x_max":0,"o":"m 407 1015 l 175 1015 l 175 0 l 407 0 z m 561 1124 b 608 1164 592 1124 608 1136 l 608 1235 b 561 1276 608 1264 592 1276 l 463 1276 b 418 1235 433 1276 418 1264 l 418 1164 b 463 1124 418 1136 433 1124 z m 119 1124 b 167 1164 150 1124 167 1136 l 167 1235 b 119 1276 167 1264 150 1276 l 21 1276 b -24 1235 -8 1276 -24 1264 l -24 1164 b 21 1124 -24 1136 -8 1124 z "},"Ϊ":{"ha":582,"x_min":0,"x_max":0,"o":"m 407 1015 l 175 1015 l 175 0 l 407 0 z m 561 1124 b 608 1164 592 1124 608 1136 l 608 1235 b 561 1276 608 1264 592 1276 l 463 1276 b 418 1235 433 1276 418 1264 l 418 1164 b 463 1124 418 1136 433 1124 z m 119 1124 b 167 1164 150 1124 167 1136 l 167 1235 b 119 1276 167 1264 150 1276 l 21 1276 b -24 1235 -8 1276 -24 1264 l -24 1164 b 21 1124 -24 1136 -8 1124 z "},"ϊ":{"ha":582,"x_min":0,"x_max":0,"o":"m 407 1015 l 175 1015 l 175 0 l 407 0 z m 561 1124 b 608 1164 592 1124 608 1136 l 608 1235 b 561 1276 608 1264 592 1276 l 463 1276 b 418 1235 433 1276 418 1264 l 418 1164 b 463 1124 418 1136 433 1124 z m 119 1124 b 167 1164 150 1124 167 1136 l 167 1235 b 119 1276 167 1264 150 1276 l 21 1276 b -24 1235 -8 1276 -24 1264 l -24 1164 b 21 1124 -24 1136 -8 1124 z "},"Ї":{"ha":582,"x_min":0,"x_max":0,"o":"m 407 1015 l 175 1015 l 175 0 l 407 0 z m 561 1124 b 608 1164 592 1124 608 1136 l 608 1235 b 561 1276 608 1264 592 1276 l 463 1276 b 418 1235 433 1276 418 1264 l 418 1164 b 463 1124 418 1136 433 1124 z m 119 1124 b 167 1164 150 1124 167 1136 l 167 1235 b 119 1276 167 1264 150 1276 l 21 1276 b -24 1235 -8 1276 -24 1264 l -24 1164 b 21 1124 -24 1136 -8 1124 z "},"ї":{"ha":582,"x_min":0,"x_max":0,"o":"m 407 1015 l 175 1015 l 175 0 l 407 0 z m 561 1124 b 608 1164 592 1124 608 1136 l 608 1235 b 561 1276 608 1264 592 1276 l 463 1276 b 418 1235 433 1276 418 1264 l 418 1164 b 463 1124 418 1136 433 1124 z m 119 1124 b 167 1164 150 1124 167 1136 l 167 1235 b 119 1276 167 1264 150 1276 l 21 1276 b -24 1235 -8 1276 -24 1264 l -24 1164 b 21 1124 -24 1136 -8 1124 z "},"Ð":{"ha":1483,"x_min":0,"x_max":0,"o":"m 40 503 l 146 503 l 146 0 l 1113 0 b 1386 247 1296 0 1386 82 l 1386 768 b 1113 1015 1386 933 1296 1015 l 146 1015 l 146 650 l 40 650 z m 1153 285 b 1036 174 1153 210 1114 174 l 378 174 l 378 503 l 746 503 l 746 650 l 378 650 l 378 842 l 1036 842 b 1153 731 1114 842 1153 806 z "},"ð":{"ha":1483,"x_min":0,"x_max":0,"o":"m 40 503 l 146 503 l 146 0 l 1113 0 b 1386 247 1296 0 1386 82 l 1386 768 b 1113 1015 1386 933 1296 1015 l 146 1015 l 146 650 l 40 650 z m 1153 285 b 1036 174 1153 210 1114 174 l 378 174 l 378 503 l 746 503 l 746 650 l 378 650 l 378 842 l 1036 842 b 1153 731 1114 842 1153 806 z "},"Đ":{"ha":1483,"x_min":0,"x_max":0,"o":"m 40 503 l 146 503 l 146 0 l 1113 0 b 1386 247 1296 0 1386 82 l 1386 768 b 1113 1015 1386 933 1296 1015 l 146 1015 l 146 650 l 40 650 z m 1153 285 b 1036 174 1153 210 1114 174 l 378 174 l 378 503 l 746 503 l 746 650 l 378 650 l 378 842 l 1036 842 b 1153 731 1114 842 1153 806 z "},"đ":{"ha":1483,"x_min":0,"x_max":0,"o":"m 40 503 l 146 503 l 146 0 l 1113 0 b 1386 247 1296 0 1386 82 l 1386 768 b 1113 1015 1386 933 1296 1015 l 146 1015 l 146 650 l 40 650 z m 1153 285 b 1036 174 1153 210 1114 174 l 378 174 l 378 503 l 746 503 l 746 650 l 378 650 l 378 842 l 1036 842 b 1153 731 1114 842 1153 806 z "},"Ñ":{"ha":1522,"x_min":0,"x_max":0,"o":"m 1213 1015 l 1213 179 l 453 967 b 343 1015 426 1000 389 1015 l 228 1015 b 103 896 144 1015 103 976 l 103 0 l 310 0 l 310 833 l 1068 49 b 1178 0 1094 15 1132 0 l 1293 0 b 1418 119 1376 0 1418 39 l 1418 1015 z m 1146 1149 l 1146 1251 l 376 1251 l 376 1149 z "},"ñ":{"ha":1522,"x_min":0,"x_max":0,"o":"m 1213 1015 l 1213 179 l 453 967 b 343 1015 426 1000 389 1015 l 228 1015 b 103 896 144 1015 103 976 l 103 0 l 310 0 l 310 833 l 1068 49 b 1178 0 1094 15 1132 0 l 1293 0 b 1418 119 1376 0 1418 39 l 1418 1015 z m 1146 1149 l 1146 1251 l 376 1251 l 376 1149 z "},"Ò":{"ha":1433,"x_min":0,"x_max":0,"o":"m 985 842 b 1103 731 1064 842 1103 806 l 1103 285 b 985 174 1103 210 1064 174 l 447 174 b 329 285 368 174 329 211 l 329 731 b 447 842 329 806 368 842 z m 1061 0 b 1335 247 1244 0 1335 82 l 1335 768 b 1061 1015 1335 933 1244 1015 l 371 1015 b 97 768 188 1015 97 933 l 97 247 b 371 0 97 82 188 0 z m 704 1322 l 515 1322 l 690 1057 l 835 1057 z "},"ò":{"ha":1433,"x_min":0,"x_max":0,"o":"m 985 842 b 1103 731 1064 842 1103 806 l 1103 285 b 985 174 1103 210 1064 174 l 447 174 b 329 285 368 174 329 211 l 329 731 b 447 842 329 806 368 842 z m 1061 0 b 1335 247 1244 0 1335 82 l 1335 768 b 1061 1015 1335 933 1244 1015 l 371 1015 b 97 768 188 1015 97 933 l 97 247 b 371 0 97 82 188 0 z m 704 1322 l 515 1322 l 690 1057 l 835 1057 z "},"Ó":{"ha":1433,"x_min":0,"x_max":0,"o":"m 985 842 b 1103 731 1064 842 1103 806 l 1103 285 b 985 174 1103 210 1064 174 l 447 174 b 329 285 368 174 329 211 l 329 731 b 447 842 329 806 368 842 z m 1061 0 b 1335 247 1244 0 1335 82 l 1335 768 b 1061 1015 1335 933 1244 1015 l 371 1015 b 97 768 188 1015 97 933 l 97 247 b 371 0 97 82 188 0 z m 597 1057 l 743 1057 l 917 1322 l 728 1322 z "},"ó":{"ha":1433,"x_min":0,"x_max":0,"o":"m 985 842 b 1103 731 1064 842 1103 806 l 1103 285 b 985 174 1103 210 1064 174 l 447 174 b 329 285 368 174 329 211 l 329 731 b 447 842 329 806 368 842 z m 1061 0 b 1335 247 1244 0 1335 82 l 1335 768 b 1061 1015 1335 933 1244 1015 l 371 1015 b 97 768 188 1015 97 933 l 97 247 b 371 0 97 82 188 0 z m 597 1057 l 743 1057 l 917 1322 l 728 1322 z "},"Ô":{"ha":1433,"x_min":0,"x_max":0,"o":"m 985 842 b 1103 731 1064 842 1103 806 l 1103 285 b 985 174 1103 210 1064 174 l 447 174 b 329 285 368 174 329 211 l 329 731 b 447 842 329 806 368 842 z m 1061 0 b 1335 247 1244 0 1335 82 l 1335 768 b 1061 1015 1335 933 1244 1015 l 371 1015 b 97 768 188 1015 97 933 l 97 247 b 371 0 97 82 188 0 z m 419 1057 l 564 1057 l 717 1258 l 868 1057 l 1013 1057 l 832 1322 l 599 1322 z "},"ô":{"ha":1433,"x_min":0,"x_max":0,"o":"m 985 842 b 1103 731 1064 842 1103 806 l 1103 285 b 985 174 1103 210 1064 174 l 447 174 b 329 285 368 174 329 211 l 329 731 b 447 842 329 806 368 842 z m 1061 0 b 1335 247 1244 0 1335 82 l 1335 768 b 1061 1015 1335 933 1244 1015 l 371 1015 b 97 768 188 1015 97 933 l 97 247 b 371 0 97 82 188 0 z m 419 1057 l 564 1057 l 717 1258 l 868 1057 l 1013 1057 l 832 1322 l 599 1322 z "},"Õ":{"ha":1433,"x_min":0,"x_max":0,"o":"m 985 842 b 1103 731 1064 842 1103 806 l 1103 285 b 985 174 1103 210 1064 174 l 447 174 b 329 285 368 174 329 211 l 329 731 b 447 842 329 806 368 842 z m 1061 0 b 1335 247 1244 0 1335 82 l 1335 768 b 1061 1015 1335 933 1244 1015 l 371 1015 b 97 768 188 1015 97 933 l 97 247 b 371 0 97 82 188 0 z m 1100 1149 l 1100 1251 l 331 1251 l 331 1149 z "},"õ":{"ha":1433,"x_min":0,"x_max":0,"o":"m 985 842 b 1103 731 1064 842 1103 806 l 1103 285 b 985 174 1103 210 1064 174 l 447 174 b 329 285 368 174 329 211 l 329 731 b 447 842 329 806 368 842 z m 1061 0 b 1335 247 1244 0 1335 82 l 1335 768 b 1061 1015 1335 933 1244 1015 l 371 1015 b 97 768 188 1015 97 933 l 97 247 b 371 0 97 82 188 0 z m 1100 1149 l 1100 1251 l 331 1251 l 331 1149 z "},"Ō":{"ha":1433,"x_min":0,"x_max":0,"o":"m 985 842 b 1103 731 1064 842 1103 806 l 1103 285 b 985 174 1103 210 1064 174 l 447 174 b 329 285 368 174 329 211 l 329 731 b 447 842 329 806 368 842 z m 1061 0 b 1335 247 1244 0 1335 82 l 1335 768 b 1061 1015 1335 933 1244 1015 l 371 1015 b 97 768 188 1015 97 933 l 97 247 b 371 0 97 82 188 0 z m 1100 1149 l 1100 1251 l 331 1251 l 331 1149 z "},"ō":{"ha":1433,"x_min":0,"x_max":0,"o":"m 985 842 b 1103 731 1064 842 1103 806 l 1103 285 b 985 174 1103 210 1064 174 l 447 174 b 329 285 368 174 329 211 l 329 731 b 447 842 329 806 368 842 z m 1061 0 b 1335 247 1244 0 1335 82 l 1335 768 b 1061 1015 1335 933 1244 1015 l 371 1015 b 97 768 188 1015 97 933 l 97 247 b 371 0 97 82 188 0 z m 1100 1149 l 1100 1251 l 331 1251 l 331 1149 z "},"Ö":{"ha":1433,"x_min":0,"x_max":0,"o":"m 985 842 b 1103 731 1064 842 1103 806 l 1103 285 b 985 174 1103 210 1064 174 l 447 174 b 329 285 368 174 329 211 l 329 731 b 447 842 329 806 368 842 z m 1061 0 b 1335 247 1244 0 1335 82 l 1335 768 b 1061 1015 1335 933 1244 1015 l 371 1015 b 97 768 188 1015 97 933 l 97 247 b 371 0 97 82 188 0 z m 1003 1124 b 1050 1164 1033 1124 1050 1136 l 1050 1235 b 1003 1276 1050 1264 1033 1276 l 904 1276 b 860 1235 875 1276 860 1264 l 860 1164 b 904 1124 860 1136 875 1124 z m 561 1124 b 608 1164 592 1124 608 1136 l 608 1235 b 561 1276 608 1264 592 1276 l 463 1276 b 418 1235 433 1276 418 1264 l 418 1164 b 463 1124 418 1136 433 1124 z "},"ö":{"ha":1433,"x_min":0,"x_max":0,"o":"m 985 842 b 1103 731 1064 842 1103 806 l 1103 285 b 985 174 1103 210 1064 174 l 447 174 b 329 285 368 174 329 211 l 329 731 b 447 842 329 806 368 842 z m 1061 0 b 1335 247 1244 0 1335 82 l 1335 768 b 1061 1015 1335 933 1244 1015 l 371 1015 b 97 768 188 1015 97 933 l 97 247 b 371 0 97 82 188 0 z m 1003 1124 b 1050 1164 1033 1124 1050 1136 l 1050 1235 b 1003 1276 1050 1264 1033 1276 l 904 1276 b 860 1235 875 1276 860 1264 l 860 1164 b 904 1124 860 1136 875 1124 z m 561 1124 b 608 1164 592 1124 608 1136 l 608 1235 b 561 1276 608 1264 592 1276 l 463 1276 b 418 1235 433 1276 418 1264 l 418 1164 b 463 1124 418 1136 433 1124 z "},"×":{"ha":1015,"x_min":0,"x_max":0,"o":"m 849 788 l 771 864 l 506 583 l 243 864 l 165 788 l 432 506 l 165 224 l 243 147 l 507 426 l 771 146 l 849 222 l 581 504 z "},"Ø":{"ha":1433,"x_min":0,"x_max":0,"o":"m 246 -187 l 393 0 l 1061 0 b 1335 247 1244 0 1335 82 l 1335 768 b 1179 1000 1335 893 1283 969 l 1283 1133 l 1188 1203 l 1040 1015 l 371 1015 b 97 768 188 1015 97 933 l 97 247 b 254 14 97 122 149 44 l 150 -118 z m 329 285 l 329 731 b 447 842 329 806 368 842 l 904 842 l 386 183 b 329 285 347 199 329 233 z m 1103 731 l 1103 285 b 985 174 1103 210 1064 174 l 529 174 l 1046 831 b 1103 731 1083 815 1103 782 z "},"ø":{"ha":1433,"x_min":0,"x_max":0,"o":"m 246 -187 l 393 0 l 1061 0 b 1335 247 1244 0 1335 82 l 1335 768 b 1179 1000 1335 893 1283 969 l 1283 1133 l 1188 1203 l 1040 1015 l 371 1015 b 97 768 188 1015 97 933 l 97 247 b 254 14 97 122 149 44 l 150 -118 z m 329 285 l 329 731 b 447 842 329 806 368 842 l 904 842 l 386 183 b 329 285 347 199 329 233 z m 1103 731 l 1103 285 b 985 174 1103 210 1064 174 l 529 174 l 1046 831 b 1103 731 1083 815 1103 782 z "},"Ù":{"ha":1428,"x_min":0,"x_max":0,"o":"m 1078 0 b 1324 219 1243 0 1324 72 l 1324 1015 l 1092 1015 l 1092 272 b 986 174 1092 206 1057 174 l 440 174 b 335 272 371 174 335 206 l 335 1015 l 103 1015 l 103 219 b 349 0 103 72 185 0 z m 701 1322 l 513 1322 l 688 1057 l 832 1057 z "},"ù":{"ha":1428,"x_min":0,"x_max":0,"o":"m 1078 0 b 1324 219 1243 0 1324 72 l 1324 1015 l 1092 1015 l 1092 272 b 986 174 1092 206 1057 174 l 440 174 b 335 272 371 174 335 206 l 335 1015 l 103 1015 l 103 219 b 349 0 103 72 185 0 z m 701 1322 l 513 1322 l 688 1057 l 832 1057 z "},"Ú":{"ha":1428,"x_min":0,"x_max":0,"o":"m 1078 0 b 1324 219 1243 0 1324 72 l 1324 1015 l 1092 1015 l 1092 272 b 986 174 1092 206 1057 174 l 440 174 b 335 272 371 174 335 206 l 335 1015 l 103 1015 l 103 219 b 349 0 103 72 185 0 z m 597 1057 l 743 1057 l 917 1322 l 728 1322 z "},"ú":{"ha":1428,"x_min":0,"x_max":0,"o":"m 1078 0 b 1324 219 1243 0 1324 72 l 1324 1015 l 1092 1015 l 1092 272 b 986 174 1092 206 1057 174 l 440 174 b 335 272 371 174 335 206 l 335 1015 l 103 1015 l 103 219 b 349 0 103 72 185 0 z m 597 1057 l 743 1057 l 917 1322 l 728 1322 z "},"Û":{"ha":1428,"x_min":0,"x_max":0,"o":"m 1078 0 b 1324 219 1243 0 1324 72 l 1324 1015 l 1092 1015 l 1092 272 b 986 174 1092 206 1057 174 l 440 174 b 335 272 371 174 335 206 l 335 1015 l 103 1015 l 103 219 b 349 0 103 72 185 0 z m 418 1057 l 563 1057 l 715 1258 l 867 1057 l 1011 1057 l 831 1322 l 597 1322 z "},"û":{"ha":1428,"x_min":0,"x_max":0,"o":"m 1078 0 b 1324 219 1243 0 1324 72 l 1324 1015 l 1092 1015 l 1092 272 b 986 174 1092 206 1057 174 l 440 174 b 335 272 371 174 335 206 l 335 1015 l 103 1015 l 103 219 b 349 0 103 72 185 0 z m 418 1057 l 563 1057 l 715 1258 l 867 1057 l 1011 1057 l 831 1322 l 597 1322 z "},"Ü":{"ha":1428,"x_min":0,"x_max":0,"o":"m 1078 0 b 1324 219 1243 0 1324 72 l 1324 1015 l 1092 1015 l 1092 272 b 986 174 1092 206 1057 174 l 440 174 b 335 272 371 174 335 206 l 335 1015 l 103 1015 l 103 219 b 349 0 103 72 185 0 z m 994 1124 b 1042 1164 1025 1124 1042 1136 l 1042 1235 b 994 1276 1042 1264 1025 1276 l 896 1276 b 851 1235 867 1276 851 1264 l 851 1164 b 896 1124 851 1136 867 1124 z m 553 1124 b 600 1164 583 1124 600 1136 l 600 1235 b 553 1276 600 1264 583 1276 l 454 1276 b 410 1235 425 1276 410 1264 l 410 1164 b 454 1124 410 1136 425 1124 z "},"ü":{"ha":1428,"x_min":0,"x_max":0,"o":"m 1078 0 b 1324 219 1243 0 1324 72 l 1324 1015 l 1092 1015 l 1092 272 b 986 174 1092 206 1057 174 l 440 174 b 335 272 371 174 335 206 l 335 1015 l 103 1015 l 103 219 b 349 0 103 72 185 0 z m 994 1124 b 1042 1164 1025 1124 1042 1136 l 1042 1235 b 994 1276 1042 1264 1025 1276 l 896 1276 b 851 1235 867 1276 851 1264 l 851 1164 b 896 1124 851 1136 867 1124 z m 553 1124 b 600 1164 583 1124 600 1136 l 600 1235 b 553 1276 600 1264 583 1276 l 454 1276 b 410 1235 425 1276 410 1264 l 410 1164 b 454 1124 410 1136 425 1124 z "},"Ý":{"ha":1428,"x_min":0,"x_max":0,"o":"m 324 1015 l 90 1015 l 90 590 b 338 371 90 444 174 371 l 1093 371 l 1093 272 b 988 174 1093 206 1058 174 l 206 174 l 206 0 l 1079 0 b 1325 219 1243 0 1325 74 l 1325 1015 l 1093 1015 l 1093 519 l 429 519 b 324 619 358 519 324 553 z m 593 1057 l 739 1057 l 913 1322 l 724 1322 z "},"ý":{"ha":1428,"x_min":0,"x_max":0,"o":"m 324 1015 l 90 1015 l 90 590 b 338 371 90 444 174 371 l 1093 371 l 1093 272 b 988 174 1093 206 1058 174 l 206 174 l 206 0 l 1079 0 b 1325 219 1243 0 1325 74 l 1325 1015 l 1093 1015 l 1093 519 l 429 519 b 324 619 358 519 324 553 z m 593 1057 l 739 1057 l 913 1322 l 724 1322 z "},"Þ":{"ha":1410,"x_min":0,"x_max":0,"o":"m 1108 439 b 990 326 1108 364 1069 326 l 338 326 l 338 706 l 990 706 b 1108 593 1069 706 1108 668 z m 106 0 l 338 0 l 338 163 l 1064 163 b 1338 410 1247 163 1338 244 l 1338 622 b 1064 869 1338 788 1247 869 l 338 869 l 338 1015 l 106 1015 z "},"þ":{"ha":1410,"x_min":0,"x_max":0,"o":"m 1108 439 b 990 326 1108 364 1069 326 l 338 326 l 338 706 l 990 706 b 1108 593 1069 706 1108 668 z m 106 0 l 338 0 l 338 163 l 1064 163 b 1338 410 1247 163 1338 244 l 1338 622 b 1064 869 1338 788 1247 869 l 338 869 l 338 1015 l 106 1015 z "},"ß":{"ha":2622,"x_min":0,"x_max":0,"o":"m 400 650 b 308 719 340 650 308 674 l 308 775 b 400 842 308 819 340 842 l 1222 842 l 1222 1015 l 326 1015 b 81 811 163 1015 81 947 l 81 707 b 326 503 81 571 163 503 l 907 503 b 1031 390 989 503 1031 465 l 1031 285 b 907 174 1031 211 989 174 l 83 174 l 83 0 l 981 0 b 1260 247 1167 0 1260 82 l 1260 403 b 981 650 1260 568 1167 650 z m 1686 650 b 1594 719 1626 650 1594 674 l 1594 775 b 1686 842 1594 819 1626 842 l 2508 842 l 2508 1015 l 1613 1015 b 1367 811 1449 1015 1367 947 l 1367 707 b 1613 503 1367 571 1449 503 l 2193 503 b 2317 390 2275 503 2317 465 l 2317 285 b 2193 174 2317 211 2275 174 l 1369 174 l 1369 0 l 2267 0 b 2546 247 2453 0 2546 82 l 2546 403 b 2267 650 2546 568 2453 650 z "},"÷":{"ha":1015,"x_min":0,"x_max":0,"o":"m 911 561 l 106 561 l 106 453 l 911 453 z m 564 699 b 618 746 600 699 618 714 l 618 829 b 564 878 618 863 600 878 l 449 878 b 394 829 413 878 394 863 l 394 746 b 449 699 394 714 413 699 z m 564 135 b 618 182 600 135 618 150 l 618 265 b 564 314 618 299 600 314 l 449 314 b 394 265 413 314 394 299 l 394 182 b 449 135 394 150 413 135 z "},"ÿ":{"ha":1428,"x_min":0,"x_max":0,"o":"m 324 1015 l 90 1015 l 90 590 b 338 371 90 444 174 371 l 1093 371 l 1093 272 b 988 174 1093 206 1058 174 l 206 174 l 206 0 l 1079 0 b 1325 219 1243 0 1325 74 l 1325 1015 l 1093 1015 l 1093 519 l 429 519 b 324 619 358 519 324 553 z m 981 1124 b 1028 1164 1011 1124 1028 1136 l 1028 1235 b 981 1276 1028 1264 1011 1276 l 882 1276 b 838 1235 853 1276 838 1264 l 838 1164 b 882 1124 838 1136 853 1124 z m 539 1124 b 586 1164 569 1124 586 1136 l 586 1235 b 539 1276 586 1264 569 1276 l 440 1276 b 396 1235 411 1276 396 1264 l 396 1164 b 440 1124 396 1136 411 1124 z "},"Ÿ":{"ha":1428,"x_min":0,"x_max":0,"o":"m 324 1015 l 90 1015 l 90 590 b 338 371 90 444 174 371 l 1093 371 l 1093 272 b 988 174 1093 206 1058 174 l 206 174 l 206 0 l 1079 0 b 1325 219 1243 0 1325 74 l 1325 1015 l 1093 1015 l 1093 519 l 429 519 b 324 619 358 519 324 553 z m 981 1124 b 1028 1164 1011 1124 1028 1136 l 1028 1235 b 981 1276 1028 1264 1011 1276 l 882 1276 b 838 1235 853 1276 838 1264 l 838 1164 b 882 1124 838 1136 853 1124 z m 539 1124 b 586 1164 569 1124 586 1136 l 586 1235 b 539 1276 586 1264 569 1276 l 440 1276 b 396 1235 411 1276 396 1264 l 396 1164 b 440 1124 396 1136 411 1124 z "},"Ϋ":{"ha":1428,"x_min":0,"x_max":0,"o":"m 324 1015 l 90 1015 l 90 590 b 338 371 90 444 174 371 l 1093 371 l 1093 272 b 988 174 1093 206 1058 174 l 206 174 l 206 0 l 1079 0 b 1325 219 1243 0 1325 74 l 1325 1015 l 1093 1015 l 1093 519 l 429 519 b 324 619 358 519 324 553 z m 981 1124 b 1028 1164 1011 1124 1028 1136 l 1028 1235 b 981 1276 1028 1264 1011 1276 l 882 1276 b 838 1235 853 1276 838 1264 l 838 1164 b 882 1124 838 1136 853 1124 z m 539 1124 b 586 1164 569 1124 586 1136 l 586 1235 b 539 1276 586 1264 569 1276 l 440 1276 b 396 1235 411 1276 396 1264 l 396 1164 b 440 1124 396 1136 411 1124 z "},"ϋ":{"ha":1428,"x_min":0,"x_max":0,"o":"m 324 1015 l 90 1015 l 90 590 b 338 371 90 444 174 371 l 1093 371 l 1093 272 b 988 174 1093 206 1058 174 l 206 174 l 206 0 l 1079 0 b 1325 219 1243 0 1325 74 l 1325 1015 l 1093 1015 l 1093 519 l 429 519 b 324 619 358 519 324 553 z m 981 1124 b 1028 1164 1011 1124 1028 1136 l 1028 1235 b 981 1276 1028 1264 1011 1276 l 882 1276 b 838 1235 853 1276 838 1264 l 838 1164 b 882 1124 838 1136 853 1124 z m 539 1124 b 586 1164 569 1124 586 1136 l 586 1235 b 539 1276 586 1264 569 1276 l 440 1276 b 396 1235 411 1276 396 1264 l 396 1164 b 440 1124 396 1136 411 1124 z "},"Ă":{"ha":1446,"x_min":0,"x_max":0,"o":"m 349 1015 b 103 796 185 1015 103 942 l 103 0 l 335 0 l 335 343 l 1113 343 l 1113 0 l 1344 0 l 1344 796 b 1097 1015 1344 942 1261 1015 z m 335 743 b 440 842 335 808 371 842 l 1006 842 b 1113 743 1076 842 1113 808 l 1113 490 l 335 490 z m 722 1057 b 1054 1322 943 1057 1054 1144 l 928 1322 b 724 1132 928 1197 864 1132 b 519 1322 583 1132 519 1197 l 393 1322 b 722 1057 393 1144 501 1057 z "},"ă":{"ha":1446,"x_min":0,"x_max":0,"o":"m 349 1015 b 103 796 185 1015 103 942 l 103 0 l 335 0 l 335 343 l 1113 343 l 1113 0 l 1344 0 l 1344 796 b 1097 1015 1344 942 1261 1015 z m 335 743 b 440 842 335 808 371 842 l 1006 842 b 1113 743 1076 842 1113 808 l 1113 490 l 335 490 z m 722 1057 b 1054 1322 943 1057 1054 1144 l 928 1322 b 724 1132 928 1197 864 1132 b 519 1322 583 1132 519 1197 l 393 1322 b 722 1057 393 1144 501 1057 z "},"Ą":{"ha":1446,"x_min":0,"x_max":0,"o":"m 349 1015 b 103 796 185 1015 103 942 l 103 0 l 335 0 l 335 343 l 1113 343 l 1113 0 l 1228 0 l 1063 -29 b 885 -194 958 -47 885 -100 b 1064 -344 885 -289 943 -344 l 1344 -344 l 1344 -208 l 1106 -208 b 1033 -147 1057 -208 1033 -185 b 1113 -69 1033 -106 1065 -83 l 1344 0 l 1344 796 b 1097 1015 1344 942 1261 1015 z m 335 743 b 440 842 335 808 371 842 l 1006 842 b 1113 743 1076 842 1113 808 l 1113 490 l 335 490 z "},"ą":{"ha":1446,"x_min":0,"x_max":0,"o":"m 349 1015 b 103 796 185 1015 103 942 l 103 0 l 335 0 l 335 343 l 1113 343 l 1113 0 l 1228 0 l 1063 -29 b 885 -194 958 -47 885 -100 b 1064 -344 885 -289 943 -344 l 1344 -344 l 1344 -208 l 1106 -208 b 1033 -147 1057 -208 1033 -185 b 1113 -69 1033 -106 1065 -83 l 1344 0 l 1344 796 b 1097 1015 1344 942 1261 1015 z m 335 743 b 440 842 335 808 371 842 l 1006 842 b 1113 743 1076 842 1113 808 l 1113 490 l 335 490 z "},"Ć":{"ha":1332,"x_min":0,"x_max":0,"o":"m 329 743 b 436 842 329 808 365 842 l 1257 842 l 1257 1015 l 344 1015 b 97 796 181 1015 97 942 l 97 219 b 344 0 97 74 181 0 l 1257 0 l 1257 174 l 436 174 b 329 272 365 174 329 206 z m 588 1057 l 733 1057 l 907 1322 l 718 1322 z "},"ć":{"ha":1332,"x_min":0,"x_max":0,"o":"m 329 743 b 436 842 329 808 365 842 l 1257 842 l 1257 1015 l 344 1015 b 97 796 181 1015 97 942 l 97 219 b 344 0 97 74 181 0 l 1257 0 l 1257 174 l 436 174 b 329 272 365 174 329 206 z m 588 1057 l 733 1057 l 907 1322 l 718 1322 z "},"Ċ":{"ha":1332,"x_min":0,"x_max":0,"o":"m 329 743 b 436 842 329 808 365 842 l 1257 842 l 1257 1015 l 344 1015 b 97 796 181 1015 97 942 l 97 219 b 344 0 97 74 181 0 l 1257 0 l 1257 174 l 436 174 b 329 272 365 174 329 206 z m 751 1124 b 799 1164 782 1124 799 1136 l 799 1235 b 751 1276 799 1264 782 1276 l 653 1276 b 608 1235 624 1276 608 1264 l 608 1164 b 653 1124 608 1136 624 1124 z "},"ċ":{"ha":1332,"x_min":0,"x_max":0,"o":"m 329 743 b 436 842 329 808 365 842 l 1257 842 l 1257 1015 l 344 1015 b 97 796 181 1015 97 942 l 97 219 b 344 0 97 74 181 0 l 1257 0 l 1257 174 l 436 174 b 329 272 365 174 329 206 z m 751 1124 b 799 1164 782 1124 799 1136 l 799 1235 b 751 1276 799 1264 782 1276 l 653 1276 b 608 1235 624 1276 608 1264 l 608 1164 b 653 1124 608 1136 624 1124 z "},"Č":{"ha":1332,"x_min":0,"x_max":0,"o":"m 329 743 b 436 842 329 808 365 842 l 1257 842 l 1257 1015 l 344 1015 b 97 796 181 1015 97 942 l 97 219 b 344 0 97 74 181 0 l 1257 0 l 1257 174 l 436 174 b 329 272 365 174 329 206 z m 1006 1322 l 861 1322 l 710 1131 l 558 1322 l 413 1322 l 624 1057 l 796 1057 z "},"č":{"ha":1332,"x_min":0,"x_max":0,"o":"m 329 743 b 436 842 329 808 365 842 l 1257 842 l 1257 1015 l 344 1015 b 97 796 181 1015 97 942 l 97 219 b 344 0 97 74 181 0 l 1257 0 l 1257 174 l 436 174 b 329 272 365 174 329 206 z m 1006 1322 l 861 1322 l 710 1131 l 558 1322 l 413 1322 l 624 1057 l 796 1057 z "},"Ď":{"ha":1443,"x_min":0,"x_max":0,"o":"m 1113 285 b 996 174 1113 210 1074 174 l 338 174 l 338 842 l 996 842 b 1113 731 1074 842 1113 806 z m 106 0 l 1072 0 b 1346 247 1256 0 1346 82 l 1346 768 b 1072 1015 1346 933 1256 1015 l 106 1015 z m 996 1322 l 851 1322 l 700 1131 l 549 1322 l 403 1322 l 614 1057 l 786 1057 z "},"ď":{"ha":1443,"x_min":0,"x_max":0,"o":"m 1113 285 b 996 174 1113 210 1074 174 l 338 174 l 338 842 l 996 842 b 1113 731 1074 842 1113 806 z m 106 0 l 1072 0 b 1346 247 1256 0 1346 82 l 1346 768 b 1072 1015 1346 933 1256 1015 l 106 1015 z m 996 1322 l 851 1322 l 700 1131 l 549 1322 l 403 1322 l 614 1057 l 786 1057 z "},"Ĕ":{"ha":1356,"x_min":0,"x_max":0,"o":"m 338 842 l 1281 842 l 1281 1015 l 106 1015 l 106 0 l 1281 0 l 1281 174 l 338 174 l 338 503 l 1083 503 l 1083 650 l 338 650 z m 699 1057 b 1031 1322 919 1057 1031 1144 l 904 1322 b 700 1132 904 1197 840 1132 b 496 1322 560 1132 496 1197 l 369 1322 b 699 1057 369 1144 478 1057 z "},"ĕ":{"ha":1356,"x_min":0,"x_max":0,"o":"m 338 842 l 1281 842 l 1281 1015 l 106 1015 l 106 0 l 1281 0 l 1281 174 l 338 174 l 338 503 l 1083 503 l 1083 650 l 338 650 z m 699 1057 b 1031 1322 919 1057 1031 1144 l 904 1322 b 700 1132 904 1197 840 1132 b 496 1322 560 1132 496 1197 l 369 1322 b 699 1057 369 1144 478 1057 z "},"Ė":{"ha":1356,"x_min":0,"x_max":0,"o":"m 338 842 l 1281 842 l 1281 1015 l 106 1015 l 106 0 l 1281 0 l 1281 174 l 338 174 l 338 503 l 1083 503 l 1083 650 l 338 650 z m 749 1124 b 796 1164 779 1124 796 1136 l 796 1235 b 749 1276 796 1264 779 1276 l 650 1276 b 606 1235 621 1276 606 1264 l 606 1164 b 650 1124 606 1136 621 1124 z "},"ė":{"ha":1356,"x_min":0,"x_max":0,"o":"m 338 842 l 1281 842 l 1281 1015 l 106 1015 l 106 0 l 1281 0 l 1281 174 l 338 174 l 338 503 l 1083 503 l 1083 650 l 338 650 z m 749 1124 b 796 1164 779 1124 796 1136 l 796 1235 b 749 1276 796 1264 779 1276 l 650 1276 b 606 1235 621 1276 606 1264 l 606 1164 b 650 1124 606 1136 621 1124 z "},"Ę":{"ha":1356,"x_min":0,"x_max":0,"o":"m 338 842 l 1281 842 l 1281 1015 l 106 1015 l 106 0 l 1164 0 l 999 -29 b 821 -194 894 -47 821 -100 b 1000 -344 821 -289 879 -344 l 1281 -344 l 1281 -208 l 1042 -208 b 969 -147 993 -208 969 -185 b 1049 -69 969 -106 1001 -83 l 1281 0 l 1281 174 l 338 174 l 338 503 l 1083 503 l 1083 650 l 338 650 z "},"ę":{"ha":1356,"x_min":0,"x_max":0,"o":"m 338 842 l 1281 842 l 1281 1015 l 106 1015 l 106 0 l 1164 0 l 999 -29 b 821 -194 894 -47 821 -100 b 1000 -344 821 -289 879 -344 l 1281 -344 l 1281 -208 l 1042 -208 b 969 -147 993 -208 969 -185 b 1049 -69 969 -106 1001 -83 l 1281 0 l 1281 174 l 338 174 l 338 503 l 1083 503 l 1083 650 l 338 650 z "},"Ě":{"ha":1356,"x_min":0,"x_max":0,"o":"m 338 842 l 1281 842 l 1281 1015 l 106 1015 l 106 0 l 1281 0 l 1281 174 l 338 174 l 338 503 l 1083 503 l 1083 650 l 338 650 z m 967 1322 l 822 1322 l 671 1131 l 519 1322 l 374 1322 l 585 1057 l 757 1057 z "},"ě":{"ha":1356,"x_min":0,"x_max":0,"o":"m 338 842 l 1281 842 l 1281 1015 l 106 1015 l 106 0 l 1281 0 l 1281 174 l 338 174 l 338 503 l 1083 503 l 1083 650 l 338 650 z m 967 1322 l 822 1322 l 671 1131 l 519 1322 l 374 1322 l 585 1057 l 757 1057 z "},"Ğ":{"ha":1381,"x_min":0,"x_max":0,"o":"m 1281 0 l 1281 499 b 1099 650 1281 600 1221 650 l 522 650 l 522 503 l 990 503 b 1065 436 1040 503 1065 481 l 1065 174 l 436 174 b 329 272 365 174 329 206 l 329 743 b 436 842 329 808 365 842 l 1274 842 l 1274 1015 l 344 1015 b 97 796 181 1015 97 942 l 97 219 b 344 0 97 74 181 0 z m 715 1057 b 1047 1322 936 1057 1047 1144 l 921 1322 b 717 1132 921 1197 857 1132 b 513 1322 576 1132 513 1197 l 386 1322 b 715 1057 386 1144 494 1057 z "},"ğ":{"ha":1381,"x_min":0,"x_max":0,"o":"m 1281 0 l 1281 499 b 1099 650 1281 600 1221 650 l 522 650 l 522 503 l 990 503 b 1065 436 1040 503 1065 481 l 1065 174 l 436 174 b 329 272 365 174 329 206 l 329 743 b 436 842 329 808 365 842 l 1274 842 l 1274 1015 l 344 1015 b 97 796 181 1015 97 942 l 97 219 b 344 0 97 74 181 0 z m 715 1057 b 1047 1322 936 1057 1047 1144 l 921 1322 b 717 1132 921 1197 857 1132 b 513 1322 576 1132 513 1197 l 386 1322 b 715 1057 386 1144 494 1057 z "},"Ġ":{"ha":1381,"x_min":0,"x_max":0,"o":"m 1281 0 l 1281 499 b 1099 650 1281 600 1221 650 l 522 650 l 522 503 l 990 503 b 1065 436 1040 503 1065 481 l 1065 174 l 436 174 b 329 272 365 174 329 206 l 329 743 b 436 842 329 808 365 842 l 1274 842 l 1274 1015 l 344 1015 b 97 796 181 1015 97 942 l 97 219 b 344 0 97 74 181 0 z m 768 1124 b 815 1164 799 1124 815 1136 l 815 1235 b 768 1276 815 1264 799 1276 l 669 1276 b 625 1235 640 1276 625 1264 l 625 1164 b 669 1124 625 1136 640 1124 z "},"ġ":{"ha":1381,"x_min":0,"x_max":0,"o":"m 1281 0 l 1281 499 b 1099 650 1281 600 1221 650 l 522 650 l 522 503 l 990 503 b 1065 436 1040 503 1065 481 l 1065 174 l 436 174 b 329 272 365 174 329 206 l 329 743 b 436 842 329 808 365 842 l 1274 842 l 1274 1015 l 344 1015 b 97 796 181 1015 97 942 l 97 219 b 344 0 97 74 181 0 z m 768 1124 b 815 1164 799 1124 815 1136 l 815 1235 b 768 1276 815 1264 799 1276 l 669 1276 b 625 1235 640 1276 625 1264 l 625 1164 b 669 1124 625 1136 640 1124 z "},"Ģ":{"ha":1381,"x_min":0,"x_max":0,"o":"m 1281 0 l 1281 499 b 1099 650 1281 600 1221 650 l 522 650 l 522 503 l 990 503 b 1065 436 1040 503 1065 481 l 1065 174 l 436 174 b 329 272 365 174 329 206 l 329 743 b 436 842 329 808 365 842 l 1274 842 l 1274 1015 l 344 1015 b 97 796 181 1015 97 942 l 97 219 b 344 0 97 74 181 0 z m 599 -344 l 742 -344 l 814 -46 l 628 -46 z "},"ģ":{"ha":1381,"x_min":0,"x_max":0,"o":"m 1281 0 l 1281 499 b 1099 650 1281 600 1221 650 l 522 650 l 522 503 l 990 503 b 1065 436 1040 503 1065 481 l 1065 174 l 436 174 b 329 272 365 174 329 206 l 329 743 b 436 842 329 808 365 842 l 1274 842 l 1274 1015 l 344 1015 b 97 796 181 1015 97 942 l 97 219 b 344 0 97 74 181 0 z m 599 -344 l 742 -344 l 814 -46 l 628 -46 z "},"Ħ":{"ha":1529,"x_min":0,"x_max":0,"o":"m 1529 772 l 1529 875 l 1411 875 l 1411 1015 l 1179 1015 l 1179 875 l 353 875 l 353 1015 l 119 1015 l 119 875 l 0 875 l 0 772 l 119 772 l 119 0 l 353 0 l 353 479 l 1179 479 l 1179 0 l 1411 0 l 1411 772 z m 1179 772 l 1179 628 l 353 628 l 353 772 z "},"ħ":{"ha":1529,"x_min":0,"x_max":0,"o":"m 1529 772 l 1529 875 l 1411 875 l 1411 1015 l 1179 1015 l 1179 875 l 353 875 l 353 1015 l 119 1015 l 119 875 l 0 875 l 0 772 l 119 772 l 119 0 l 353 0 l 353 479 l 1179 479 l 1179 0 l 1411 0 l 1411 772 z m 1179 772 l 1179 628 l 353 628 l 353 772 z "},"Ĩ":{"ha":707,"x_min":0,"x_max":0,"o":"m 469 1015 l 238 1015 l 238 0 l 469 0 z m 739 1149 l 739 1251 l -31 1251 l -31 1149 z "},"ĩ":{"ha":707,"x_min":0,"x_max":0,"o":"m 469 1015 l 238 1015 l 238 0 l 469 0 z m 739 1149 l 739 1251 l -31 1251 l -31 1149 z "},"Ī":{"ha":707,"x_min":0,"x_max":0,"o":"m 469 1015 l 238 1015 l 238 0 l 469 0 z m 739 1149 l 739 1251 l -31 1251 l -31 1149 z "},"ī":{"ha":707,"x_min":0,"x_max":0,"o":"m 469 1015 l 238 1015 l 238 0 l 469 0 z m 739 1149 l 739 1251 l -31 1251 l -31 1149 z "},"Ĭ":{"ha":615,"x_min":0,"x_max":0,"o":"m 422 1015 l 190 1015 l 190 0 l 422 0 z m 306 1057 b 638 1322 526 1057 638 1144 l 511 1322 b 307 1132 511 1197 447 1132 b 103 1322 167 1132 103 1197 l -24 1322 b 306 1057 -24 1144 85 1057 z "},"ĭ":{"ha":615,"x_min":0,"x_max":0,"o":"m 422 1015 l 190 1015 l 190 0 l 422 0 z m 306 1057 b 638 1322 526 1057 638 1144 l 511 1322 b 307 1132 511 1197 447 1132 b 103 1322 167 1132 103 1197 l -24 1322 b 306 1057 -24 1144 85 1057 z "},"Į":{"ha":460,"x_min":0,"x_max":0,"o":"m 356 0 l 354 0 l 354 1015 l 122 1015 l 122 0 l 239 0 l 74 -29 b -104 -194 -31 -47 -104 -100 b 75 -344 -104 -289 -46 -344 l 356 -344 l 356 -208 l 117 -208 b 44 -147 68 -208 44 -185 b 124 -69 44 -106 75 -81 z "},"į":{"ha":460,"x_min":0,"x_max":0,"o":"m 356 0 l 354 0 l 354 1015 l 122 1015 l 122 0 l 239 0 l 74 -29 b -104 -194 -31 -47 -104 -100 b 75 -344 -104 -289 -46 -344 l 356 -344 l 356 -208 l 117 -208 b 44 -147 68 -208 44 -185 b 124 -69 44 -106 75 -81 z "},"İ":{"ha":443,"x_min":0,"x_max":0,"o":"m 338 1015 l 106 1015 l 106 0 l 338 0 z m 269 1124 b 317 1164 300 1124 317 1136 l 317 1235 b 269 1276 317 1264 300 1276 l 171 1276 b 126 1235 142 1276 126 1264 l 126 1164 b 171 1124 126 1136 142 1124 z "},"Ĳ":{"ha":878,"x_min":0,"x_max":0,"o":"m 338 1015 l 106 1015 l 106 39 l 338 39 z m 540 -4 b 435 -104 540 -71 504 -104 l 106 -104 l 106 -276 l 526 -276 b 772 -57 690 -276 772 -203 l 772 1015 l 540 1015 z "},"ĳ":{"ha":878,"x_min":0,"x_max":0,"o":"m 338 1015 l 106 1015 l 106 39 l 338 39 z m 540 -4 b 435 -104 540 -71 504 -104 l 106 -104 l 106 -276 l 526 -276 b 772 -57 690 -276 772 -203 l 772 1015 l 540 1015 z "},"Ķ":{"ha":1433,"x_min":0,"x_max":0,"o":"m 1372 1006 l 1372 1015 l 1121 1015 l 683 596 l 338 596 l 338 1015 l 106 1015 l 106 0 l 338 0 l 338 449 l 682 449 l 1140 0 l 1401 0 l 1401 10 l 894 522 z m 533 -344 l 676 -344 l 749 -46 l 563 -46 z "},"ķ":{"ha":1433,"x_min":0,"x_max":0,"o":"m 1372 1006 l 1372 1015 l 1121 1015 l 683 596 l 338 596 l 338 1015 l 106 1015 l 106 0 l 338 0 l 338 449 l 682 449 l 1140 0 l 1401 0 l 1401 10 l 894 522 z m 533 -344 l 676 -344 l 749 -46 l 563 -46 z "},"Ĺ":{"ha":1214,"x_min":0,"x_max":0,"o":"m 106 1015 l 106 0 l 1167 0 l 1167 174 l 338 174 l 338 1015 z m 136 1057 l 282 1057 l 456 1322 l 267 1322 z "},"ĺ":{"ha":1214,"x_min":0,"x_max":0,"o":"m 106 1015 l 106 0 l 1167 0 l 1167 174 l 338 174 l 338 1015 z m 136 1057 l 282 1057 l 456 1322 l 267 1322 z "},"Ļ":{"ha":1214,"x_min":0,"x_max":0,"o":"m 106 1015 l 106 0 l 1167 0 l 1167 174 l 338 174 l 338 1015 z m 507 -344 l 650 -344 l 722 -46 l 536 -46 z "},"ļ":{"ha":1214,"x_min":0,"x_max":0,"o":"m 106 1015 l 106 0 l 1167 0 l 1167 174 l 338 174 l 338 1015 z m 507 -344 l 650 -344 l 722 -46 l 536 -46 z "},"Ľ":{"ha":1214,"x_min":0,"x_max":0,"o":"m 106 1015 l 106 0 l 1167 0 l 1167 174 l 338 174 l 338 1015 z m 756 717 l 899 717 l 971 1015 l 785 1015 z "},"ľ":{"ha":1214,"x_min":0,"x_max":0,"o":"m 106 1015 l 106 0 l 1167 0 l 1167 174 l 338 174 l 338 1015 z m 756 717 l 899 717 l 971 1015 l 785 1015 z "},"Ł":{"ha":1238,"x_min":0,"x_max":0,"o":"m 0 479 l 129 533 l 129 0 l 1190 0 l 1190 174 l 361 174 l 361 632 l 743 794 l 743 897 l 361 735 l 361 1015 l 129 1015 l 129 636 l 0 582 z "},"ł":{"ha":1238,"x_min":0,"x_max":0,"o":"m 0 479 l 129 533 l 129 0 l 1190 0 l 1190 174 l 361 174 l 361 632 l 743 794 l 743 897 l 361 735 l 361 1015 l 129 1015 l 129 636 l 0 582 z "},"Ń":{"ha":1522,"x_min":0,"x_max":0,"o":"m 1213 1015 l 1213 179 l 453 967 b 343 1015 426 1000 389 1015 l 228 1015 b 103 896 144 1015 103 976 l 103 0 l 310 0 l 310 833 l 1068 49 b 1178 0 1094 15 1132 0 l 1293 0 b 1418 119 1376 0 1418 39 l 1418 1015 z m 643 1057 l 789 1057 l 963 1322 l 774 1322 z "},"ń":{"ha":1522,"x_min":0,"x_max":0,"o":"m 1213 1015 l 1213 179 l 453 967 b 343 1015 426 1000 389 1015 l 228 1015 b 103 896 144 1015 103 976 l 103 0 l 310 0 l 310 833 l 1068 49 b 1178 0 1094 15 1132 0 l 1293 0 b 1418 119 1376 0 1418 39 l 1418 1015 z m 643 1057 l 789 1057 l 963 1322 l 774 1322 z "},"Ņ":{"ha":1522,"x_min":0,"x_max":0,"o":"m 1213 1015 l 1213 179 l 453 967 b 343 1015 426 1000 389 1015 l 228 1015 b 103 896 144 1015 103 976 l 103 0 l 310 0 l 310 833 l 1068 49 b 1178 0 1094 15 1132 0 l 1293 0 b 1418 119 1376 0 1418 39 l 1418 1015 z m 644 -344 l 788 -344 l 860 -46 l 674 -46 z "},"ņ":{"ha":1522,"x_min":0,"x_max":0,"o":"m 1213 1015 l 1213 179 l 453 967 b 343 1015 426 1000 389 1015 l 228 1015 b 103 896 144 1015 103 976 l 103 0 l 310 0 l 310 833 l 1068 49 b 1178 0 1094 15 1132 0 l 1293 0 b 1418 119 1376 0 1418 39 l 1418 1015 z m 644 -344 l 788 -344 l 860 -46 l 674 -46 z "},"Ň":{"ha":1522,"x_min":0,"x_max":0,"o":"m 1213 1015 l 1213 179 l 453 967 b 343 1015 426 1000 389 1015 l 228 1015 b 103 896 144 1015 103 976 l 103 0 l 310 0 l 310 833 l 1068 49 b 1178 0 1094 15 1132 0 l 1293 0 b 1418 119 1376 0 1418 39 l 1418 1015 z m 1057 1322 l 913 1322 l 761 1131 l 610 1322 l 464 1322 l 675 1057 l 847 1057 z "},"ň":{"ha":1522,"x_min":0,"x_max":0,"o":"m 1213 1015 l 1213 179 l 453 967 b 343 1015 426 1000 389 1015 l 228 1015 b 103 896 144 1015 103 976 l 103 0 l 310 0 l 310 833 l 1068 49 b 1178 0 1094 15 1132 0 l 1293 0 b 1418 119 1376 0 1418 39 l 1418 1015 z m 1057 1322 l 913 1322 l 761 1131 l 610 1322 l 464 1322 l 675 1057 l 847 1057 z "},"Ŋ":{"ha":1428,"x_min":0,"x_max":0,"o":"m 1092 -103 b 986 -203 1092 -169 1057 -203 l 708 -203 l 708 -344 l 1078 -344 b 1324 -125 1242 -344 1324 -271 l 1324 796 b 1078 1015 1324 943 1243 1015 l 349 1015 b 103 796 185 1015 103 943 l 103 0 l 335 0 l 335 742 b 440 842 335 810 371 842 l 986 842 b 1092 742 1057 842 1092 810 z "},"ŋ":{"ha":1428,"x_min":0,"x_max":0,"o":"m 1092 -103 b 986 -203 1092 -169 1057 -203 l 708 -203 l 708 -344 l 1078 -344 b 1324 -125 1242 -344 1324 -271 l 1324 796 b 1078 1015 1324 943 1243 1015 l 349 1015 b 103 796 185 1015 103 943 l 103 0 l 335 0 l 335 742 b 440 842 335 810 371 842 l 986 842 b 1092 742 1057 842 1092 810 z "},"Ŏ":{"ha":1433,"x_min":0,"x_max":0,"o":"m 985 842 b 1103 731 1064 842 1103 806 l 1103 285 b 985 174 1103 210 1064 174 l 447 174 b 329 285 368 174 329 211 l 329 731 b 447 842 329 806 368 842 z m 1061 0 b 1335 247 1244 0 1335 82 l 1335 768 b 1061 1015 1335 933 1244 1015 l 371 1015 b 97 768 188 1015 97 933 l 97 247 b 371 0 97 82 188 0 z m 715 1057 b 1047 1322 936 1057 1047 1144 l 921 1322 b 717 1132 921 1197 857 1132 b 513 1322 576 1132 513 1197 l 386 1322 b 715 1057 386 1144 494 1057 z "},"ŏ":{"ha":1433,"x_min":0,"x_max":0,"o":"m 985 842 b 1103 731 1064 842 1103 806 l 1103 285 b 985 174 1103 210 1064 174 l 447 174 b 329 285 368 174 329 211 l 329 731 b 447 842 329 806 368 842 z m 1061 0 b 1335 247 1244 0 1335 82 l 1335 768 b 1061 1015 1335 933 1244 1015 l 371 1015 b 97 768 188 1015 97 933 l 97 247 b 371 0 97 82 188 0 z m 715 1057 b 1047 1322 936 1057 1047 1144 l 921 1322 b 717 1132 921 1197 857 1132 b 513 1322 576 1132 513 1197 l 386 1322 b 715 1057 386 1144 494 1057 z "},"Ő":{"ha":1433,"x_min":0,"x_max":0,"o":"m 985 842 b 1103 731 1064 842 1103 806 l 1103 285 b 985 174 1103 210 1064 174 l 447 174 b 329 285 368 174 329 211 l 329 731 b 447 842 329 806 368 842 z m 1061 0 b 1335 247 1244 0 1335 82 l 1335 768 b 1061 1015 1335 933 1244 1015 l 371 1015 b 97 768 188 1015 97 933 l 97 247 b 371 0 97 82 188 0 z m 772 1057 l 917 1057 l 1092 1322 l 903 1322 z m 422 1057 l 568 1057 l 742 1322 l 554 1322 z "},"ő":{"ha":1433,"x_min":0,"x_max":0,"o":"m 985 842 b 1103 731 1064 842 1103 806 l 1103 285 b 985 174 1103 210 1064 174 l 447 174 b 329 285 368 174 329 211 l 329 731 b 447 842 329 806 368 842 z m 1061 0 b 1335 247 1244 0 1335 82 l 1335 768 b 1061 1015 1335 933 1244 1015 l 371 1015 b 97 768 188 1015 97 933 l 97 247 b 371 0 97 82 188 0 z m 772 1057 l 917 1057 l 1092 1322 l 903 1322 z m 422 1057 l 568 1057 l 742 1322 l 554 1322 z "},"Œ":{"ha":2088,"x_min":0,"x_max":0,"o":"m 1204 842 l 2013 842 l 2013 1015 l 379 1015 b 106 768 196 1015 106 933 l 106 247 b 379 0 106 82 196 0 l 2013 0 l 2013 174 l 1204 174 l 1204 503 l 1815 503 l 1815 650 l 1204 650 z m 338 731 b 456 842 338 806 376 842 l 971 842 l 971 174 l 456 174 b 338 285 376 174 338 210 z "},"œ":{"ha":2088,"x_min":0,"x_max":0,"o":"m 1204 842 l 2013 842 l 2013 1015 l 379 1015 b 106 768 196 1015 106 933 l 106 247 b 379 0 106 82 196 0 l 2013 0 l 2013 174 l 1204 174 l 1204 503 l 1815 503 l 1815 650 l 1204 650 z m 338 731 b 456 842 338 806 376 842 l 971 842 l 971 174 l 456 174 b 338 285 376 174 338 210 z "},"Ŕ":{"ha":1418,"x_min":0,"x_max":0,"o":"m 106 0 l 338 0 l 338 385 l 826 385 l 1131 0 l 1388 0 l 1388 10 l 1088 385 b 1338 632 1254 392 1338 474 l 1338 768 b 1064 1015 1338 933 1247 1015 l 106 1015 z m 1108 646 b 990 533 1108 571 1069 533 l 338 533 l 338 846 l 990 846 b 1108 733 1069 846 1108 808 z m 567 1057 l 713 1057 l 886 1322 l 697 1322 z "},"ŕ":{"ha":1418,"x_min":0,"x_max":0,"o":"m 106 0 l 338 0 l 338 385 l 826 385 l 1131 0 l 1388 0 l 1388 10 l 1088 385 b 1338 632 1254 392 1338 474 l 1338 768 b 1064 1015 1338 933 1247 1015 l 106 1015 z m 1108 646 b 990 533 1108 571 1069 533 l 338 533 l 338 846 l 990 846 b 1108 733 1069 846 1108 808 z m 567 1057 l 713 1057 l 886 1322 l 697 1322 z "},"Ŗ":{"ha":1418,"x_min":0,"x_max":0,"o":"m 106 0 l 338 0 l 338 385 l 826 385 l 1131 0 l 1388 0 l 1388 10 l 1088 385 b 1338 632 1254 392 1338 474 l 1338 768 b 1064 1015 1338 933 1247 1015 l 106 1015 z m 1108 646 b 990 533 1108 571 1069 533 l 338 533 l 338 846 l 990 846 b 1108 733 1069 846 1108 808 z m 581 -344 l 724 -344 l 796 -46 l 610 -46 z "},"ŗ":{"ha":1418,"x_min":0,"x_max":0,"o":"m 106 0 l 338 0 l 338 385 l 826 385 l 1131 0 l 1388 0 l 1388 10 l 1088 385 b 1338 632 1254 392 1338 474 l 1338 768 b 1064 1015 1338 933 1247 1015 l 106 1015 z m 1108 646 b 990 533 1108 571 1069 533 l 338 533 l 338 846 l 990 846 b 1108 733 1069 846 1108 808 z m 581 -344 l 724 -344 l 796 -46 l 610 -46 z "},"Ř":{"ha":1418,"x_min":0,"x_max":0,"o":"m 106 0 l 338 0 l 338 385 l 826 385 l 1131 0 l 1388 0 l 1388 10 l 1088 385 b 1338 632 1254 392 1338 474 l 1338 768 b 1064 1015 1338 933 1247 1015 l 106 1015 z m 1108 646 b 990 533 1108 571 1069 533 l 338 533 l 338 846 l 990 846 b 1108 733 1069 846 1108 808 z m 990 1322 l 846 1322 l 694 1131 l 543 1322 l 397 1322 l 608 1057 l 781 1057 z "},"ř":{"ha":1418,"x_min":0,"x_max":0,"o":"m 106 0 l 338 0 l 338 385 l 826 385 l 1131 0 l 1388 0 l 1388 10 l 1088 385 b 1338 632 1254 392 1338 474 l 1338 768 b 1064 1015 1338 933 1247 1015 l 106 1015 z m 1108 646 b 990 533 1108 571 1069 533 l 338 533 l 338 846 l 990 846 b 1108 733 1069 846 1108 808 z m 990 1322 l 846 1322 l 694 1131 l 543 1322 l 397 1322 l 608 1057 l 781 1057 z "},"Ś":{"ha":1336,"x_min":0,"x_max":0,"o":"m 400 650 b 308 719 340 650 308 674 l 308 775 b 400 842 308 819 340 842 l 1222 842 l 1222 1015 l 326 1015 b 81 811 163 1015 81 947 l 81 707 b 326 503 81 571 163 503 l 907 503 b 1031 390 989 503 1031 465 l 1031 285 b 907 174 1031 211 989 174 l 83 174 l 83 0 l 981 0 b 1260 247 1167 0 1260 82 l 1260 403 b 981 650 1260 568 1167 650 z m 550 1057 l 696 1057 l 869 1322 l 681 1322 z "},"ś":{"ha":1336,"x_min":0,"x_max":0,"o":"m 400 650 b 308 719 340 650 308 674 l 308 775 b 400 842 308 819 340 842 l 1222 842 l 1222 1015 l 326 1015 b 81 811 163 1015 81 947 l 81 707 b 326 503 81 571 163 503 l 907 503 b 1031 390 989 503 1031 465 l 1031 285 b 907 174 1031 211 989 174 l 83 174 l 83 0 l 981 0 b 1260 247 1167 0 1260 82 l 1260 403 b 981 650 1260 568 1167 650 z m 550 1057 l 696 1057 l 869 1322 l 681 1322 z "},"Ş":{"ha":1336,"x_min":0,"x_max":0,"o":"m 400 650 b 308 719 340 650 308 674 l 308 775 b 400 842 308 819 340 842 l 1222 842 l 1222 1015 l 326 1015 b 81 811 163 1015 81 947 l 81 707 b 326 503 81 571 163 503 l 907 503 b 1031 390 989 503 1031 465 l 1031 285 b 907 174 1031 211 989 174 l 83 174 l 83 0 l 981 0 b 1260 247 1167 0 1260 82 l 1260 403 b 981 650 1260 568 1167 650 z m 553 -344 l 696 -344 l 768 -46 l 582 -46 z "},"ş":{"ha":1336,"x_min":0,"x_max":0,"o":"m 400 650 b 308 719 340 650 308 674 l 308 775 b 400 842 308 819 340 842 l 1222 842 l 1222 1015 l 326 1015 b 81 811 163 1015 81 947 l 81 707 b 326 503 81 571 163 503 l 907 503 b 1031 390 989 503 1031 465 l 1031 285 b 907 174 1031 211 989 174 l 83 174 l 83 0 l 981 0 b 1260 247 1167 0 1260 82 l 1260 403 b 981 650 1260 568 1167 650 z m 553 -344 l 696 -344 l 768 -46 l 582 -46 z "},"Ș":{"ha":1336,"x_min":0,"x_max":0,"o":"m 400 650 b 308 719 340 650 308 674 l 308 775 b 400 842 308 819 340 842 l 1222 842 l 1222 1015 l 326 1015 b 81 811 163 1015 81 947 l 81 707 b 326 503 81 571 163 503 l 907 503 b 1031 390 989 503 1031 465 l 1031 285 b 907 174 1031 211 989 174 l 83 174 l 83 0 l 981 0 b 1260 247 1167 0 1260 82 l 1260 403 b 981 650 1260 568 1167 650 z m 553 -344 l 696 -344 l 768 -46 l 582 -46 z "},"ș":{"ha":1336,"x_min":0,"x_max":0,"o":"m 400 650 b 308 719 340 650 308 674 l 308 775 b 400 842 308 819 340 842 l 1222 842 l 1222 1015 l 326 1015 b 81 811 163 1015 81 947 l 81 707 b 326 503 81 571 163 503 l 907 503 b 1031 390 989 503 1031 465 l 1031 285 b 907 174 1031 211 989 174 l 83 174 l 83 0 l 981 0 b 1260 247 1167 0 1260 82 l 1260 403 b 981 650 1260 568 1167 650 z m 553 -344 l 696 -344 l 768 -46 l 582 -46 z "},"Š":{"ha":1336,"x_min":0,"x_max":0,"o":"m 400 650 b 308 719 340 650 308 674 l 308 775 b 400 842 308 819 340 842 l 1222 842 l 1222 1015 l 326 1015 b 81 811 163 1015 81 947 l 81 707 b 326 503 81 571 163 503 l 907 503 b 1031 390 989 503 1031 465 l 1031 285 b 907 174 1031 211 989 174 l 83 174 l 83 0 l 981 0 b 1260 247 1167 0 1260 82 l 1260 403 b 981 650 1260 568 1167 650 z m 969 1322 l 825 1322 l 674 1131 l 522 1322 l 376 1322 l 588 1057 l 760 1057 z "},"š":{"ha":1336,"x_min":0,"x_max":0,"o":"m 400 650 b 308 719 340 650 308 674 l 308 775 b 400 842 308 819 340 842 l 1222 842 l 1222 1015 l 326 1015 b 81 811 163 1015 81 947 l 81 707 b 326 503 81 571 163 503 l 907 503 b 1031 390 989 503 1031 465 l 1031 285 b 907 174 1031 211 989 174 l 83 174 l 83 0 l 981 0 b 1260 247 1167 0 1260 82 l 1260 403 b 981 650 1260 568 1167 650 z m 969 1322 l 825 1322 l 674 1131 l 522 1322 l 376 1322 l 588 1057 l 760 1057 z "},"Ţ":{"ha":1372,"x_min":0,"x_max":0,"o":"m 801 0 l 801 842 l 1322 842 l 1322 1015 l 49 1015 l 49 842 l 568 842 l 568 0 z m 568 -344 l 711 -344 l 783 -46 l 597 -46 z "},"ţ":{"ha":1372,"x_min":0,"x_max":0,"o":"m 801 0 l 801 842 l 1322 842 l 1322 1015 l 49 1015 l 49 842 l 568 842 l 568 0 z m 568 -344 l 711 -344 l 783 -46 l 597 -46 z "},"Ț":{"ha":1372,"x_min":0,"x_max":0,"o":"m 801 0 l 801 842 l 1322 842 l 1322 1015 l 49 1015 l 49 842 l 568 842 l 568 0 z m 568 -344 l 711 -344 l 783 -46 l 597 -46 z "},"ț":{"ha":1372,"x_min":0,"x_max":0,"o":"m 801 0 l 801 842 l 1322 842 l 1322 1015 l 49 1015 l 49 842 l 568 842 l 568 0 z m 568 -344 l 711 -344 l 783 -46 l 597 -46 z "},"Ť":{"ha":1372,"x_min":0,"x_max":0,"o":"m 801 0 l 801 842 l 1322 842 l 1322 1015 l 49 1015 l 49 842 l 568 842 l 568 0 z m 981 1322 l 836 1322 l 685 1131 l 533 1322 l 388 1322 l 599 1057 l 771 1057 z "},"ť":{"ha":1372,"x_min":0,"x_max":0,"o":"m 801 0 l 801 842 l 1322 842 l 1322 1015 l 49 1015 l 49 842 l 568 842 l 568 0 z m 981 1322 l 836 1322 l 685 1131 l 533 1322 l 388 1322 l 599 1057 l 771 1057 z "},"Ŧ":{"ha":1372,"x_min":0,"x_max":0,"o":"m 801 0 l 801 454 l 1069 454 l 1069 557 l 801 557 l 801 842 l 1322 842 l 1322 1015 l 49 1015 l 49 842 l 568 842 l 568 557 l 300 557 l 300 454 l 568 454 l 568 0 z "},"ŧ":{"ha":1372,"x_min":0,"x_max":0,"o":"m 801 0 l 801 454 l 1069 454 l 1069 557 l 801 557 l 801 842 l 1322 842 l 1322 1015 l 49 1015 l 49 842 l 568 842 l 568 557 l 300 557 l 300 454 l 568 454 l 568 0 z "},"Ũ":{"ha":1428,"x_min":0,"x_max":0,"o":"m 1078 0 b 1324 219 1243 0 1324 72 l 1324 1015 l 1092 1015 l 1092 272 b 986 174 1092 206 1057 174 l 440 174 b 335 272 371 174 335 206 l 335 1015 l 103 1015 l 103 219 b 349 0 103 72 185 0 z m 1099 1149 l 1099 1251 l 329 1251 l 329 1149 z "},"ũ":{"ha":1428,"x_min":0,"x_max":0,"o":"m 1078 0 b 1324 219 1243 0 1324 72 l 1324 1015 l 1092 1015 l 1092 272 b 986 174 1092 206 1057 174 l 440 174 b 335 272 371 174 335 206 l 335 1015 l 103 1015 l 103 219 b 349 0 103 72 185 0 z m 1099 1149 l 1099 1251 l 329 1251 l 329 1149 z "},"Ū":{"ha":1428,"x_min":0,"x_max":0,"o":"m 1078 0 b 1324 219 1243 0 1324 72 l 1324 1015 l 1092 1015 l 1092 272 b 986 174 1092 206 1057 174 l 440 174 b 335 272 371 174 335 206 l 335 1015 l 103 1015 l 103 219 b 349 0 103 72 185 0 z m 1099 1149 l 1099 1251 l 329 1251 l 329 1149 z "},"ū":{"ha":1428,"x_min":0,"x_max":0,"o":"m 1078 0 b 1324 219 1243 0 1324 72 l 1324 1015 l 1092 1015 l 1092 272 b 986 174 1092 206 1057 174 l 440 174 b 335 272 371 174 335 206 l 335 1015 l 103 1015 l 103 219 b 349 0 103 72 185 0 z m 1099 1149 l 1099 1251 l 329 1251 l 329 1149 z "},"Ů":{"ha":1428,"x_min":0,"x_max":0,"o":"m 1078 0 b 1324 219 1243 0 1324 72 l 1324 1015 l 1092 1015 l 1092 272 b 986 174 1092 206 1057 174 l 440 174 b 335 272 371 174 335 206 l 335 1015 l 103 1015 l 103 219 b 349 0 103 72 185 0 z m 775 1253 b 824 1210 807 1253 824 1239 l 824 1150 b 775 1106 824 1119 807 1106 l 653 1106 b 604 1150 621 1106 604 1119 l 604 1210 b 653 1253 604 1239 621 1253 z m 803 1038 b 921 1142 882 1038 921 1072 l 921 1218 b 803 1322 921 1288 882 1322 l 625 1322 b 507 1218 546 1322 507 1288 l 507 1142 b 625 1038 507 1072 546 1038 z "},"ů":{"ha":1428,"x_min":0,"x_max":0,"o":"m 1078 0 b 1324 219 1243 0 1324 72 l 1324 1015 l 1092 1015 l 1092 272 b 986 174 1092 206 1057 174 l 440 174 b 335 272 371 174 335 206 l 335 1015 l 103 1015 l 103 219 b 349 0 103 72 185 0 z m 775 1253 b 824 1210 807 1253 824 1239 l 824 1150 b 775 1106 824 1119 807 1106 l 653 1106 b 604 1150 621 1106 604 1119 l 604 1210 b 653 1253 604 1239 621 1253 z m 803 1038 b 921 1142 882 1038 921 1072 l 921 1218 b 803 1322 921 1288 882 1322 l 625 1322 b 507 1218 546 1322 507 1288 l 507 1142 b 625 1038 507 1072 546 1038 z "},"Ű":{"ha":1428,"x_min":0,"x_max":0,"o":"m 1078 0 b 1324 219 1243 0 1324 72 l 1324 1015 l 1092 1015 l 1092 272 b 986 174 1092 206 1057 174 l 440 174 b 335 272 371 174 335 206 l 335 1015 l 103 1015 l 103 219 b 349 0 103 72 185 0 z m 771 1057 l 915 1057 l 1090 1322 l 901 1322 z m 421 1057 l 567 1057 l 740 1322 l 553 1322 z "},"ű":{"ha":1428,"x_min":0,"x_max":0,"o":"m 1078 0 b 1324 219 1243 0 1324 72 l 1324 1015 l 1092 1015 l 1092 272 b 986 174 1092 206 1057 174 l 440 174 b 335 272 371 174 335 206 l 335 1015 l 103 1015 l 103 219 b 349 0 103 72 185 0 z m 771 1057 l 915 1057 l 1090 1322 l 901 1322 z m 421 1057 l 567 1057 l 740 1322 l 553 1322 z "},"Ų":{"ha":1428,"x_min":0,"x_max":0,"o":"m 1078 0 b 1324 219 1243 0 1324 72 l 1324 1015 l 1092 1015 l 1092 272 b 986 174 1092 206 1057 174 l 440 174 b 335 272 371 174 335 206 l 335 1015 l 103 1015 l 103 219 b 349 0 103 72 185 0 l 814 0 l 649 -29 b 471 -194 544 -47 471 -100 b 650 -344 471 -289 529 -344 l 931 -344 l 931 -208 l 692 -208 b 619 -147 643 -208 619 -185 b 699 -69 619 -106 651 -83 l 931 0 z "},"ų":{"ha":1428,"x_min":0,"x_max":0,"o":"m 1078 0 b 1324 219 1243 0 1324 72 l 1324 1015 l 1092 1015 l 1092 272 b 986 174 1092 206 1057 174 l 440 174 b 335 272 371 174 335 206 l 335 1015 l 103 1015 l 103 219 b 349 0 103 72 185 0 l 814 0 l 649 -29 b 471 -194 544 -47 471 -100 b 650 -344 471 -289 529 -344 l 931 -344 l 931 -208 l 692 -208 b 619 -147 643 -208 619 -185 b 699 -69 619 -106 651 -83 l 931 0 z "},"Ŵ":{"ha":1818,"x_min":0,"x_max":0,"o":"m 1018 1015 l 800 1015 l 800 174 l 438 174 b 331 272 367 174 331 206 l 331 1015 l 103 1015 l 103 219 b 349 0 103 74 185 0 l 1468 0 b 1715 219 1632 0 1715 74 l 1715 1015 l 1486 1015 l 1486 272 b 1379 174 1486 206 1450 174 l 1018 174 z m 611 1057 l 756 1057 l 908 1258 l 1060 1057 l 1204 1057 l 1024 1322 l 790 1322 z "},"ŵ":{"ha":1818,"x_min":0,"x_max":0,"o":"m 1018 1015 l 800 1015 l 800 174 l 438 174 b 331 272 367 174 331 206 l 331 1015 l 103 1015 l 103 219 b 349 0 103 74 185 0 l 1468 0 b 1715 219 1632 0 1715 74 l 1715 1015 l 1486 1015 l 1486 272 b 1379 174 1486 206 1450 174 l 1018 174 z m 611 1057 l 756 1057 l 908 1258 l 1060 1057 l 1204 1057 l 1024 1322 l 790 1322 z "},"Ŷ":{"ha":1428,"x_min":0,"x_max":0,"o":"m 324 1015 l 90 1015 l 90 590 b 338 371 90 444 174 371 l 1093 371 l 1093 272 b 988 174 1093 206 1058 174 l 206 174 l 206 0 l 1079 0 b 1325 219 1243 0 1325 74 l 1325 1015 l 1093 1015 l 1093 519 l 429 519 b 324 619 358 519 324 553 z m 415 1057 l 560 1057 l 713 1258 l 864 1057 l 1008 1057 l 828 1322 l 594 1322 z "},"ŷ":{"ha":1428,"x_min":0,"x_max":0,"o":"m 324 1015 l 90 1015 l 90 590 b 338 371 90 444 174 371 l 1093 371 l 1093 272 b 988 174 1093 206 1058 174 l 206 174 l 206 0 l 1079 0 b 1325 219 1243 0 1325 74 l 1325 1015 l 1093 1015 l 1093 519 l 429 519 b 324 619 358 519 324 553 z m 415 1057 l 560 1057 l 713 1258 l 864 1057 l 1008 1057 l 828 1322 l 594 1322 z "},"Ź":{"ha":1319,"x_min":0,"x_max":0,"o":"m 78 842 l 1001 842 l 132 239 b 78 157 96 219 78 190 l 78 94 b 215 0 78 32 122 0 l 1243 0 l 1243 174 l 329 174 l 1188 776 b 1243 860 1224 797 1243 826 l 1243 921 b 1106 1015 1243 983 1197 1015 l 78 1015 z m 542 1057 l 688 1057 l 861 1322 l 672 1322 z "},"ź":{"ha":1319,"x_min":0,"x_max":0,"o":"m 78 842 l 1001 842 l 132 239 b 78 157 96 219 78 190 l 78 94 b 215 0 78 32 122 0 l 1243 0 l 1243 174 l 329 174 l 1188 776 b 1243 860 1224 797 1243 826 l 1243 921 b 1106 1015 1243 983 1197 1015 l 78 1015 z m 542 1057 l 688 1057 l 861 1322 l 672 1322 z "},"Ż":{"ha":1319,"x_min":0,"x_max":0,"o":"m 78 842 l 1001 842 l 132 239 b 78 157 96 219 78 190 l 78 94 b 215 0 78 32 122 0 l 1243 0 l 1243 174 l 329 174 l 1188 776 b 1243 860 1224 797 1243 826 l 1243 921 b 1106 1015 1243 983 1197 1015 l 78 1015 z m 708 1124 b 756 1164 739 1124 756 1136 l 756 1235 b 708 1276 756 1264 739 1276 l 610 1276 b 565 1235 581 1276 565 1264 l 565 1164 b 610 1124 565 1136 581 1124 z "},"ż":{"ha":1319,"x_min":0,"x_max":0,"o":"m 78 842 l 1001 842 l 132 239 b 78 157 96 219 78 190 l 78 94 b 215 0 78 32 122 0 l 1243 0 l 1243 174 l 329 174 l 1188 776 b 1243 860 1224 797 1243 826 l 1243 921 b 1106 1015 1243 983 1197 1015 l 78 1015 z m 708 1124 b 756 1164 739 1124 756 1136 l 756 1235 b 708 1276 756 1264 739 1276 l 610 1276 b 565 1235 581 1276 565 1264 l 565 1164 b 610 1124 565 1136 581 1124 z "},"Ž":{"ha":1319,"x_min":0,"x_max":0,"o":"m 78 842 l 1001 842 l 132 239 b 78 157 96 219 78 190 l 78 94 b 215 0 78 32 122 0 l 1243 0 l 1243 174 l 329 174 l 1188 776 b 1243 860 1224 797 1243 826 l 1243 921 b 1106 1015 1243 983 1197 1015 l 78 1015 z m 960 1322 l 815 1322 l 664 1131 l 513 1322 l 367 1322 l 578 1057 l 750 1057 z "},"ž":{"ha":1319,"x_min":0,"x_max":0,"o":"m 78 842 l 1001 842 l 132 239 b 78 157 96 219 78 190 l 78 94 b 215 0 78 32 122 0 l 1243 0 l 1243 174 l 329 174 l 1188 776 b 1243 860 1224 797 1243 826 l 1243 921 b 1106 1015 1243 983 1197 1015 l 78 1015 z m 960 1322 l 815 1322 l 664 1131 l 513 1322 l 367 1322 l 578 1057 l 750 1057 z "},"Ə":{"ha":1376,"x_min":0,"x_max":0,"o":"m 344 1015 b 97 796 181 1015 97 942 l 97 219 b 344 0 97 74 181 0 l 1201 0 l 1201 174 l 433 174 b 326 272 363 174 326 207 l 326 365 l 1057 365 b 1303 586 1221 365 1303 439 l 1303 796 b 1057 1015 1303 942 1221 1015 z m 326 513 l 326 746 b 433 846 326 813 363 846 l 972 846 b 1078 746 1043 846 1078 813 l 1078 613 b 972 513 1078 546 1043 513 z "},"ƒ":{"ha":943,"x_min":0,"x_max":0,"o":"m 57 524 l 331 524 l 331 -72 b 224 -172 331 -140 294 -172 l 103 -172 l 103 -344 l 315 -344 b 563 -125 479 -344 563 -271 l 563 524 l 883 524 l 883 633 l 563 633 l 563 743 b 669 842 563 808 599 842 l 801 842 l 801 1015 l 578 1015 b 331 796 414 1015 331 942 l 331 633 l 57 633 z "},"Ɣ":{"ha":1601,"x_min":0,"x_max":0,"o":"m 910 -344 b 1124 -132 1057 -344 1124 -276 b 931 250 1124 -39 1099 49 l 1569 1006 l 1569 1015 l 1310 1015 l 800 406 l 292 1015 l 33 1015 l 33 1006 l 671 250 b 478 -132 503 49 478 -39 b 692 -344 478 -276 544 -344 z m 800 96 b 944 -151 929 -57 944 -97 b 864 -244 944 -215 921 -244 l 738 -244 b 657 -151 681 -244 657 -215 b 800 96 657 -97 672 -57 z "},"ɣ":{"ha":1601,"x_min":0,"x_max":0,"o":"m 910 -344 b 1124 -132 1057 -344 1124 -276 b 931 250 1124 -39 1099 49 l 1569 1006 l 1569 1015 l 1310 1015 l 800 406 l 292 1015 l 33 1015 l 33 1006 l 671 250 b 478 -132 503 49 478 -39 b 692 -344 478 -276 544 -344 z m 800 96 b 944 -151 929 -57 944 -97 b 864 -244 944 -215 921 -244 l 738 -244 b 657 -151 681 -244 657 -215 b 800 96 657 -97 672 -57 z "},"Ɲ":{"ha":1522,"x_min":0,"x_max":0,"o":"m 103 -103 b -4 -203 103 -169 67 -203 l -167 -203 l -167 -344 l 63 -344 b 310 -125 226 -344 310 -271 l 310 833 l 1068 49 b 1178 0 1094 15 1132 0 l 1293 0 b 1418 119 1376 0 1418 39 l 1418 1015 l 1213 1015 l 1213 179 l 453 967 b 343 1015 426 1000 389 1015 l 228 1015 b 103 896 144 1015 103 976 z "},"ɲ":{"ha":1522,"x_min":0,"x_max":0,"o":"m 103 -103 b -4 -203 103 -169 67 -203 l -167 -203 l -167 -344 l 63 -344 b 310 -125 226 -344 310 -271 l 310 833 l 1068 49 b 1178 0 1094 15 1132 0 l 1293 0 b 1418 119 1376 0 1418 39 l 1418 1015 l 1213 1015 l 1213 179 l 453 967 b 343 1015 426 1000 389 1015 l 228 1015 b 103 896 144 1015 103 976 z "},"Ơ":{"ha":1519,"x_min":0,"x_max":0,"o":"m 1061 0 b 1335 247 1244 0 1335 82 l 1335 768 b 1294 921 1335 831 1321 882 b 1519 1090 1460 921 1519 978 l 1519 1229 l 1376 1229 l 1376 1094 b 1301 1015 1376 1042 1353 1015 l 371 1015 b 97 768 188 1015 97 933 l 97 247 b 371 0 97 82 188 0 z m 985 842 b 1103 731 1064 842 1103 806 l 1103 285 b 985 174 1103 210 1064 174 l 447 174 b 329 285 368 174 329 210 l 329 731 b 447 842 329 806 368 842 z "},"ơ":{"ha":1519,"x_min":0,"x_max":0,"o":"m 1061 0 b 1335 247 1244 0 1335 82 l 1335 768 b 1294 921 1335 831 1321 882 b 1519 1090 1460 921 1519 978 l 1519 1229 l 1376 1229 l 1376 1094 b 1301 1015 1376 1042 1353 1015 l 371 1015 b 97 768 188 1015 97 933 l 97 247 b 371 0 97 82 188 0 z m 985 842 b 1103 731 1064 842 1103 806 l 1103 285 b 985 174 1103 210 1064 174 l 447 174 b 329 285 368 174 329 210 l 329 731 b 447 842 329 806 368 842 z "},"Ư":{"ha":1614,"x_min":0,"x_max":0,"o":"m 1078 0 b 1324 219 1243 0 1324 72 l 1324 921 l 1436 921 b 1614 1090 1554 921 1614 978 l 1614 1229 l 1471 1229 l 1471 1094 b 1396 1015 1471 1042 1446 1015 l 1092 1015 l 1092 272 b 986 174 1092 206 1057 174 l 440 174 b 335 272 371 174 335 206 l 335 1015 l 103 1015 l 103 219 b 349 0 103 72 185 0 z "},"ư":{"ha":1614,"x_min":0,"x_max":0,"o":"m 1078 0 b 1324 219 1243 0 1324 72 l 1324 921 l 1436 921 b 1614 1090 1554 921 1614 978 l 1614 1229 l 1471 1229 l 1471 1094 b 1396 1015 1471 1042 1446 1015 l 1092 1015 l 1092 272 b 986 174 1092 206 1057 174 l 440 174 b 335 272 371 174 335 206 l 335 1015 l 103 1015 l 103 219 b 349 0 103 72 185 0 z "},"Ǵ":{"ha":1381,"x_min":0,"x_max":0,"o":"m 1281 0 l 1281 499 b 1099 650 1281 600 1221 650 l 522 650 l 522 503 l 990 503 b 1065 436 1040 503 1065 481 l 1065 174 l 436 174 b 329 272 365 174 329 206 l 329 743 b 436 842 329 808 365 842 l 1274 842 l 1274 1015 l 344 1015 b 97 796 181 1015 97 942 l 97 219 b 344 0 97 74 181 0 z m 600 1057 l 746 1057 l 919 1322 l 731 1322 z "},"ǵ":{"ha":1381,"x_min":0,"x_max":0,"o":"m 1281 0 l 1281 499 b 1099 650 1281 600 1221 650 l 522 650 l 522 503 l 990 503 b 1065 436 1040 503 1065 481 l 1065 174 l 436 174 b 329 272 365 174 329 206 l 329 743 b 436 842 329 808 365 842 l 1274 842 l 1274 1015 l 344 1015 b 97 796 181 1015 97 942 l 97 219 b 344 0 97 74 181 0 z m 600 1057 l 746 1057 l 919 1322 l 731 1322 z "},"Ǹ":{"ha":1522,"x_min":0,"x_max":0,"o":"m 1213 1015 l 1213 179 l 453 967 b 343 1015 426 1000 389 1015 l 228 1015 b 103 896 144 1015 103 976 l 103 0 l 310 0 l 310 833 l 1068 49 b 1178 0 1094 15 1132 0 l 1293 0 b 1418 119 1376 0 1418 39 l 1418 1015 z m 747 1322 l 558 1322 l 733 1057 l 878 1057 z "},"ǹ":{"ha":1522,"x_min":0,"x_max":0,"o":"m 1213 1015 l 1213 179 l 453 967 b 343 1015 426 1000 389 1015 l 228 1015 b 103 896 144 1015 103 976 l 103 0 l 310 0 l 310 833 l 1068 49 b 1178 0 1094 15 1132 0 l 1293 0 b 1418 119 1376 0 1418 39 l 1418 1015 z m 747 1322 l 558 1322 l 733 1057 l 878 1057 z "},"Ɂ":{"ha":1033,"x_min":0,"x_max":0,"o":"m 429 575 b 239 382 297 575 239 514 l 239 0 l 471 0 l 471 328 b 554 415 471 386 494 415 l 690 415 b 961 653 871 415 961 494 l 961 768 b 690 1015 961 933 871 1015 l 49 1015 l 49 842 l 626 842 b 742 729 704 842 742 806 l 742 683 b 626 575 742 611 704 575 z "},"ɂ":{"ha":1033,"x_min":0,"x_max":0,"o":"m 429 575 b 239 382 297 575 239 514 l 239 0 l 471 0 l 471 328 b 554 415 471 386 494 415 l 690 415 b 961 653 871 415 961 494 l 961 768 b 690 1015 961 933 871 1015 l 49 1015 l 49 842 l 626 842 b 742 729 704 842 742 806 l 742 683 b 626 575 742 611 704 575 z "},"Ɍ":{"ha":1500,"x_min":0,"x_max":0,"o":"m 188 0 l 419 0 l 419 385 l 908 385 l 1213 0 l 1469 0 l 1469 10 l 1169 385 b 1419 632 1336 392 1419 474 l 1419 768 b 1146 1015 1419 933 1329 1015 l 188 1015 l 188 533 l 0 533 l 0 385 l 188 385 z m 1190 646 b 1072 533 1190 571 1151 533 l 419 533 l 419 846 l 1072 846 b 1190 733 1151 846 1190 808 z "},"ɍ":{"ha":1500,"x_min":0,"x_max":0,"o":"m 188 0 l 419 0 l 419 385 l 908 385 l 1213 0 l 1469 0 l 1469 10 l 1169 385 b 1419 632 1336 392 1419 474 l 1419 768 b 1146 1015 1419 933 1329 1015 l 188 1015 l 188 533 l 0 533 l 0 385 l 188 385 z m 1190 646 b 1072 533 1190 571 1151 533 l 419 533 l 419 846 l 1072 846 b 1190 733 1151 846 1190 808 z "},"ˆ":{"ha":788,"x_min":0,"x_max":0,"o":"m 97 1057 l 242 1057 l 394 1258 l 546 1057 l 690 1057 l 510 1322 l 276 1322 z "},"ˇ":{"ha":774,"x_min":0,"x_max":0,"o":"m 689 1322 l 544 1322 l 393 1131 l 242 1322 l 96 1322 l 307 1057 l 479 1057 z "},"˘":{"ha":856,"x_min":0,"x_max":0,"o":"m 426 1057 b 758 1322 647 1057 758 1144 l 632 1322 b 428 1132 632 1197 568 1132 b 224 1322 288 1132 224 1197 l 97 1322 b 426 1057 97 1144 206 1057 z "},"˙":{"ha":385,"x_min":0,"x_max":0,"o":"m 240 1124 b 288 1164 271 1124 288 1136 l 288 1235 b 240 1276 288 1264 271 1276 l 142 1276 b 97 1235 113 1276 97 1264 l 97 1164 b 142 1124 97 1136 113 1124 z "},"˚":{"ha":610,"x_min":0,"x_max":0,"o":"m 365 1253 b 414 1210 397 1253 414 1239 l 414 1150 b 365 1106 414 1119 397 1106 l 243 1106 b 194 1150 211 1106 194 1119 l 194 1210 b 243 1253 194 1239 211 1253 z m 393 1038 b 511 1142 472 1038 511 1072 l 511 1218 b 393 1322 511 1288 472 1322 l 215 1322 b 97 1218 136 1322 97 1288 l 97 1142 b 215 1038 97 1072 136 1038 z "},"˛":{"ha":551,"x_min":0,"x_max":0,"o":"m 504 0 l 388 0 l 222 -29 b 44 -194 118 -50 44 -100 b 224 -344 44 -289 103 -344 l 504 -344 l 504 -208 l 265 -208 b 193 -147 217 -208 193 -185 b 272 -69 193 -106 224 -81 z "},"˜":{"ha":965,"x_min":0,"x_max":0,"o":"m 867 1149 l 867 1251 l 97 1251 l 97 1149 z "},"˝":{"ha":838,"x_min":0,"x_max":0,"o":"m 446 1057 l 590 1057 l 765 1322 l 576 1322 z m 96 1057 l 242 1057 l 415 1322 l 228 1322 z "},"̀":{"ha":0,"x_min":0,"x_max":0,"o":"m -721 1322 l -910 1322 l -735 1057 l -590 1057 z "},"́":{"ha":0,"x_min":0,"x_max":0,"o":"m -825 1057 l -679 1057 l -506 1322 l -694 1322 z "},"̂":{"ha":0,"x_min":0,"x_max":0,"o":"m -1003 1057 l -858 1057 l -706 1258 l -554 1057 l -410 1057 l -590 1322 l -824 1322 z "},"̃":{"ha":0,"x_min":0,"x_max":0,"o":"m -321 1149 l -321 1251 l -1090 1251 l -1090 1149 z "},"̄":{"ha":0,"x_min":0,"x_max":0,"o":"m -321 1149 l -321 1251 l -1090 1251 l -1090 1149 z "},"̆":{"ha":0,"x_min":0,"x_max":0,"o":"m -708 1057 b -376 1322 -487 1057 -376 1144 l -503 1322 b -707 1132 -503 1197 -567 1132 b -911 1322 -847 1132 -911 1197 l -1037 1322 b -708 1057 -1037 1144 -929 1057 z "},"̇":{"ha":0,"x_min":0,"x_max":0,"o":"m -657 1124 b -610 1164 -626 1124 -610 1136 l -610 1235 b -657 1276 -610 1264 -626 1276 l -756 1276 b -800 1235 -785 1276 -800 1264 l -800 1164 b -756 1124 -800 1136 -785 1124 z "},"̈":{"ha":0,"x_min":0,"x_max":0,"o":"m -436 1124 b -389 1164 -406 1124 -389 1136 l -389 1235 b -436 1276 -389 1264 -406 1276 l -535 1276 b -579 1235 -564 1276 -579 1264 l -579 1164 b -535 1124 -579 1136 -564 1124 z m -878 1124 b -831 1164 -847 1124 -831 1136 l -831 1235 b -878 1276 -831 1264 -847 1276 l -976 1276 b -1021 1235 -1006 1276 -1021 1264 l -1021 1164 b -976 1124 -1021 1136 -1006 1124 z "},"̉":{"ha":0,"x_min":0,"x_max":0,"o":"m -772 1160 b -842 1085 -817 1160 -842 1135 l -842 1024 l -758 1024 l -758 1072 b -739 1092 -758 1086 -753 1092 l -608 1092 b -499 1193 -535 1092 -499 1125 l -499 1217 b -608 1322 -499 1288 -535 1322 l -890 1322 l -890 1247 l -633 1247 b -594 1213 -607 1247 -594 1238 l -594 1193 b -633 1160 -594 1169 -607 1160 z "},"̊":{"ha":0,"x_min":0,"x_max":0,"o":"m -644 1253 b -596 1210 -612 1253 -596 1239 l -596 1150 b -644 1106 -596 1119 -612 1106 l -767 1106 b -815 1150 -799 1106 -815 1119 l -815 1210 b -767 1253 -815 1239 -799 1253 z m -617 1038 b -499 1142 -537 1038 -499 1072 l -499 1218 b -617 1322 -499 1288 -537 1322 l -794 1322 b -912 1218 -874 1322 -912 1288 l -912 1142 b -794 1038 -912 1072 -874 1038 z "},"̋":{"ha":0,"x_min":0,"x_max":0,"o":"m -647 1057 l -503 1057 l -328 1322 l -517 1322 z m -997 1057 l -851 1057 l -678 1322 l -865 1322 z "},"̌":{"ha":0,"x_min":0,"x_max":0,"o":"m -407 1322 l -551 1322 l -703 1131 l -854 1322 l -1000 1322 l -789 1057 l -617 1057 z "},"̓":{"ha":0,"x_min":0,"x_max":0,"o":"m -761 593 l -642 593 l -599 936 b -596 969 -596 950 -596 960 b -653 1018 -596 1001 -615 1018 l -767 1018 b -819 971 -803 1018 -819 1003 l -819 885 b -767 839 -819 854 -803 839 l -737 839 z "},"̛":{"ha":296,"x_min":0,"x_max":0,"o":"m -161 1015 l -161 921 l 118 921 b 296 1090 236 921 296 978 l 296 1224 l 153 1224 l 153 1094 b 78 1015 153 1042 129 1015 z "},"̣":{"ha":0,"x_min":0,"x_max":0,"o":"m -657 -265 b -610 -225 -626 -265 -610 -253 l -610 -154 b -657 -112 -610 -125 -626 -112 l -756 -112 b -800 -154 -785 -112 -800 -125 l -800 -225 b -756 -265 -800 -253 -785 -265 z "},"̦":{"ha":0,"x_min":0,"x_max":0,"o":"m -821 -344 l -678 -344 l -606 -46 l -792 -46 z "},"̨":{"ha":0,"x_min":0,"x_max":0,"o":"m -475 0 l -592 0 l -757 -29 b -935 -194 -861 -50 -935 -100 b -756 -344 -935 -289 -876 -344 l -475 -344 l -475 -208 l -714 -208 b -786 -147 -762 -208 -786 -185 b -707 -69 -786 -106 -756 -81 z "},"̭":{"ha":0,"x_min":0,"x_max":0,"o":"m -1003 -307 l -858 -307 l -706 -106 l -554 -307 l -410 -307 l -590 -42 l -824 -42 z "},"΄":{"ha":260,"x_min":0,"x_max":0,"o":"m 49 649 l 190 649 l 235 1015 l 56 1015 z "},"΅":{"ha":758,"x_min":0,"x_max":0,"o":"m 168 749 b 215 789 199 749 215 761 l 215 860 b 168 901 215 889 199 901 l 69 901 b 25 860 40 901 25 889 l 25 789 b 69 749 25 761 40 749 z m 289 649 l 431 649 l 475 1015 l 296 1015 z m 688 749 b 735 789 718 749 735 761 l 735 860 b 688 901 735 889 718 901 l 589 901 b 544 860 560 901 544 889 l 544 789 b 589 749 544 761 560 749 z "},"Ά":{"ha":1665,"x_min":0,"x_max":0,"o":"m 49 649 l 190 649 l 235 1015 l 56 1015 z m 568 1015 b 322 796 404 1015 322 942 l 322 0 l 554 0 l 554 343 l 1332 343 l 1332 0 l 1564 0 l 1564 796 b 1317 1015 1564 942 1481 1015 z m 554 743 b 660 842 554 808 590 842 l 1225 842 b 1332 743 1296 842 1332 808 l 1332 490 l 554 490 z "},"ά":{"ha":1665,"x_min":0,"x_max":0,"o":"m 49 649 l 190 649 l 235 1015 l 56 1015 z m 568 1015 b 322 796 404 1015 322 942 l 322 0 l 554 0 l 554 343 l 1332 343 l 1332 0 l 1564 0 l 1564 796 b 1317 1015 1564 942 1481 1015 z m 554 743 b 660 842 554 808 590 842 l 1225 842 b 1332 743 1296 842 1332 808 l 1332 490 l 554 490 z "},"·":{"ha":393,"x_min":0,"x_max":0,"o":"m 254 515 b 308 563 290 515 308 531 l 308 646 b 254 694 308 679 290 694 l 139 694 b 85 646 103 694 85 679 l 85 563 b 139 515 85 531 103 515 z "},"Έ":{"ha":1588,"x_min":0,"x_max":0,"o":"m 49 649 l 190 649 l 235 1015 l 56 1015 z m 569 842 l 1513 842 l 1513 1015 l 338 1015 l 338 0 l 1513 0 l 1513 174 l 569 174 l 569 503 l 1315 503 l 1315 650 l 569 650 z "},"έ":{"ha":1588,"x_min":0,"x_max":0,"o":"m 49 649 l 190 649 l 235 1015 l 56 1015 z m 569 842 l 1513 842 l 1513 1015 l 338 1015 l 338 0 l 1513 0 l 1513 174 l 569 174 l 569 503 l 1315 503 l 1315 650 l 569 650 z "},"Ή":{"ha":1747,"x_min":0,"x_max":0,"o":"m 49 649 l 190 649 l 235 1015 l 56 1015 z m 1408 503 l 1408 0 l 1642 0 l 1642 1015 l 1408 1015 l 1408 650 l 582 650 l 582 1015 l 350 1015 l 350 0 l 582 0 l 582 503 z "},"ή":{"ha":1747,"x_min":0,"x_max":0,"o":"m 49 649 l 190 649 l 235 1015 l 56 1015 z m 1408 503 l 1408 0 l 1642 0 l 1642 1015 l 1408 1015 l 1408 650 l 582 650 l 582 1015 l 350 1015 l 350 0 l 582 0 l 582 503 z "},"Ί":{"ha":689,"x_min":0,"x_max":0,"o":"m 49 649 l 190 649 l 235 1015 l 56 1015 z m 582 1015 l 350 1015 l 350 0 l 582 0 z "},"ί":{"ha":689,"x_min":0,"x_max":0,"o":"m 49 649 l 190 649 l 235 1015 l 56 1015 z m 582 1015 l 350 1015 l 350 0 l 582 0 z "},"Ό":{"ha":1651,"x_min":0,"x_max":0,"o":"m 49 649 l 190 649 l 235 1015 l 56 1015 z m 1204 842 b 1322 731 1283 842 1322 806 l 1322 285 b 1204 174 1322 210 1283 174 l 667 174 b 549 285 588 174 549 211 l 549 731 b 667 842 549 806 588 842 z m 1281 0 b 1554 247 1464 0 1554 82 l 1554 768 b 1281 1015 1554 933 1464 1015 l 590 1015 b 317 768 407 1015 317 933 l 317 247 b 590 0 317 82 407 0 z "},"ό":{"ha":1651,"x_min":0,"x_max":0,"o":"m 49 649 l 190 649 l 235 1015 l 56 1015 z m 1204 842 b 1322 731 1283 842 1322 806 l 1322 285 b 1204 174 1322 210 1283 174 l 667 174 b 549 285 588 174 549 211 l 549 731 b 667 842 549 806 588 842 z m 1281 0 b 1554 247 1464 0 1554 82 l 1554 768 b 1281 1015 1554 933 1464 1015 l 590 1015 b 317 768 407 1015 317 933 l 317 247 b 590 0 317 82 407 0 z "},"Ύ":{"ha":1606,"x_min":0,"x_max":0,"o":"m 49 649 l 190 649 l 235 1015 l 56 1015 z m 540 1015 l 293 1015 l 293 1006 l 817 440 l 817 0 l 1050 0 l 1050 440 l 1572 1006 l 1572 1015 l 1326 1015 l 933 599 z "},"ύ":{"ha":1606,"x_min":0,"x_max":0,"o":"m 49 649 l 190 649 l 235 1015 l 56 1015 z m 540 1015 l 293 1015 l 293 1006 l 817 440 l 817 0 l 1050 0 l 1050 440 l 1572 1006 l 1572 1015 l 1326 1015 l 933 599 z "},"Ώ":{"ha":1682,"x_min":0,"x_max":0,"o":"m 49 649 l 190 649 l 235 1015 l 56 1015 z m 1232 842 b 1349 731 1310 842 1349 804 l 1349 510 b 1206 276 1349 394 1299 343 l 1090 188 b 1064 115 1071 171 1064 146 l 1064 58 b 1139 0 1064 19 1088 0 l 1592 0 l 1592 174 l 1326 174 b 1582 539 1496 261 1582 364 l 1582 768 b 1308 1015 1582 933 1490 1015 l 604 1015 b 331 768 421 1015 331 933 l 331 539 b 582 175 331 365 413 263 l 585 174 l 319 174 l 319 0 l 774 0 b 849 58 824 0 849 19 l 849 115 b 821 188 849 146 840 171 l 706 276 b 563 510 615 340 563 394 l 563 731 b 681 842 563 804 601 842 z "},"ώ":{"ha":1682,"x_min":0,"x_max":0,"o":"m 49 649 l 190 649 l 235 1015 l 56 1015 z m 1232 842 b 1349 731 1310 842 1349 804 l 1349 510 b 1206 276 1349 394 1299 343 l 1090 188 b 1064 115 1071 171 1064 146 l 1064 58 b 1139 0 1064 19 1088 0 l 1592 0 l 1592 174 l 1326 174 b 1582 539 1496 261 1582 364 l 1582 768 b 1308 1015 1582 933 1490 1015 l 604 1015 b 331 768 421 1015 331 933 l 331 539 b 582 175 331 365 413 263 l 585 174 l 319 174 l 319 0 l 774 0 b 849 58 824 0 849 19 l 849 115 b 821 188 849 146 840 171 l 706 276 b 563 510 615 340 563 394 l 563 731 b 681 842 563 804 601 842 z "},"Γ":{"ha":1214,"x_min":0,"x_max":0,"o":"m 338 0 l 338 842 l 1167 842 l 1167 1015 l 106 1015 l 106 0 z "},"γ":{"ha":1214,"x_min":0,"x_max":0,"o":"m 338 0 l 338 842 l 1167 842 l 1167 1015 l 106 1015 l 106 0 z "},"Г":{"ha":1214,"x_min":0,"x_max":0,"o":"m 338 0 l 338 842 l 1167 842 l 1167 1015 l 106 1015 l 106 0 z "},"г":{"ha":1214,"x_min":0,"x_max":0,"o":"m 338 0 l 338 842 l 1167 842 l 1167 1015 l 106 1015 l 106 0 z "},"Δ":{"ha":1603,"x_min":0,"x_max":0,"o":"m 1571 0 l 1571 10 l 969 967 b 879 1015 950 1001 918 1015 l 722 1015 b 632 967 683 1015 653 1001 l 32 10 l 32 0 z m 800 842 l 1207 174 l 393 174 z "},"δ":{"ha":1603,"x_min":0,"x_max":0,"o":"m 1571 0 l 1571 10 l 969 967 b 879 1015 950 1001 918 1015 l 722 1015 b 632 967 683 1015 653 1001 l 32 10 l 32 0 z m 800 842 l 1207 174 l 393 174 z "},"Θ":{"ha":1433,"x_min":0,"x_max":0,"o":"m 985 842 b 1103 731 1064 842 1103 806 l 1103 285 b 985 174 1103 210 1064 174 l 447 174 b 329 285 368 174 329 211 l 329 731 b 447 842 329 806 368 842 z m 1061 0 b 1335 247 1244 0 1335 82 l 1335 768 b 1061 1015 1335 933 1244 1015 l 371 1015 b 97 768 188 1015 97 933 l 97 247 b 371 0 97 82 188 0 z m 450 503 l 981 503 l 981 650 l 450 650 z "},"θ":{"ha":1433,"x_min":0,"x_max":0,"o":"m 985 842 b 1103 731 1064 842 1103 806 l 1103 285 b 985 174 1103 210 1064 174 l 447 174 b 329 285 368 174 329 211 l 329 731 b 447 842 329 806 368 842 z m 1061 0 b 1335 247 1244 0 1335 82 l 1335 768 b 1061 1015 1335 933 1244 1015 l 371 1015 b 97 768 188 1015 97 933 l 97 247 b 371 0 97 82 188 0 z m 450 503 l 981 503 l 981 650 l 450 650 z "},"Λ":{"ha":1603,"x_min":0,"x_max":0,"o":"m 1314 0 l 1571 0 l 1571 10 l 969 967 b 879 1015 949 1001 918 1015 l 722 1015 b 632 967 683 1015 651 1001 l 32 10 l 32 0 l 288 0 l 800 842 z "},"λ":{"ha":1603,"x_min":0,"x_max":0,"o":"m 1314 0 l 1571 0 l 1571 10 l 969 967 b 879 1015 949 1001 918 1015 l 722 1015 b 632 967 683 1015 651 1001 l 32 10 l 32 0 l 288 0 l 800 842 z "},"Ξ":{"ha":1356,"x_min":0,"x_max":0,"o":"m 1251 842 l 1251 1015 l 75 1015 l 75 842 z m 1251 0 l 1251 174 l 75 174 l 75 0 z m 1054 503 l 1054 650 l 272 650 l 272 503 z "},"ξ":{"ha":1356,"x_min":0,"x_max":0,"o":"m 1251 842 l 1251 1015 l 75 1015 l 75 842 z m 1251 0 l 1251 174 l 75 174 l 75 0 z m 1054 503 l 1054 650 l 272 650 l 272 503 z "},"Π":{"ha":1501,"x_min":0,"x_max":0,"o":"m 1164 842 l 1164 0 l 1397 0 l 1397 1015 l 106 1015 l 106 0 l 338 0 l 338 842 z "},"π":{"ha":1501,"x_min":0,"x_max":0,"o":"m 1164 842 l 1164 0 l 1397 0 l 1397 1015 l 106 1015 l 106 0 l 338 0 l 338 842 z "},"П":{"ha":1501,"x_min":0,"x_max":0,"o":"m 1164 842 l 1164 0 l 1397 0 l 1397 1015 l 106 1015 l 106 0 l 338 0 l 338 842 z "},"п":{"ha":1501,"x_min":0,"x_max":0,"o":"m 1164 842 l 1164 0 l 1397 0 l 1397 1015 l 106 1015 l 106 0 l 338 0 l 338 842 z "},"Σ":{"ha":1356,"x_min":0,"x_max":0,"o":"m 78 156 l 78 94 b 215 0 78 32 124 0 l 1281 0 l 1281 174 l 289 174 l 785 451 b 840 535 825 468 840 494 l 840 557 b 783 638 840 596 825 625 l 332 842 l 1281 842 l 1281 1015 l 225 1015 b 86 921 132 1015 86 983 l 86 860 b 146 778 86 826 103 790 l 675 539 l 135 239 b 78 156 94 222 78 189 z "},"ς":{"ha":1356,"x_min":0,"x_max":0,"o":"m 78 156 l 78 94 b 215 0 78 32 124 0 l 1281 0 l 1281 174 l 289 174 l 785 451 b 840 535 825 468 840 494 l 840 557 b 783 638 840 596 825 625 l 332 842 l 1281 842 l 1281 1015 l 225 1015 b 86 921 132 1015 86 983 l 86 860 b 146 778 86 826 103 790 l 675 539 l 135 239 b 78 156 94 222 78 189 z "},"σ":{"ha":1356,"x_min":0,"x_max":0,"o":"m 78 156 l 78 94 b 215 0 78 32 124 0 l 1281 0 l 1281 174 l 289 174 l 785 451 b 840 535 825 468 840 494 l 840 557 b 783 638 840 596 825 625 l 332 842 l 1281 842 l 1281 1015 l 225 1015 b 86 921 132 1015 86 983 l 86 860 b 146 778 86 826 103 790 l 675 539 l 135 239 b 78 156 94 222 78 189 z "},"Φ":{"ha":1642,"x_min":0,"x_max":0,"o":"m 933 156 l 1297 156 b 1569 403 1479 156 1569 238 l 1569 628 b 1297 875 1569 793 1479 875 l 933 875 l 933 1015 l 708 1015 l 708 875 l 346 875 b 72 628 163 875 72 793 l 72 403 b 346 156 72 238 163 156 l 708 156 l 708 0 l 933 0 z m 299 603 b 415 715 299 678 336 715 l 708 715 l 708 317 l 415 317 b 299 429 336 317 299 354 z m 1344 429 b 1226 317 1344 354 1306 317 l 933 317 l 933 715 l 1226 715 b 1344 603 1306 715 1344 678 z "},"φ":{"ha":1642,"x_min":0,"x_max":0,"o":"m 933 156 l 1297 156 b 1569 403 1479 156 1569 238 l 1569 628 b 1297 875 1569 793 1479 875 l 933 875 l 933 1015 l 708 1015 l 708 875 l 346 875 b 72 628 163 875 72 793 l 72 403 b 346 156 72 238 163 156 l 708 156 l 708 0 l 933 0 z m 299 603 b 415 715 299 678 336 715 l 708 715 l 708 317 l 415 317 b 299 429 336 317 299 354 z m 1344 429 b 1226 317 1344 354 1306 317 l 933 317 l 933 715 l 1226 715 b 1344 603 1306 715 1344 678 z "},"Ф":{"ha":1642,"x_min":0,"x_max":0,"o":"m 933 156 l 1297 156 b 1569 403 1479 156 1569 238 l 1569 628 b 1297 875 1569 793 1479 875 l 933 875 l 933 1015 l 708 1015 l 708 875 l 346 875 b 72 628 163 875 72 793 l 72 403 b 346 156 72 238 163 156 l 708 156 l 708 0 l 933 0 z m 299 603 b 415 715 299 678 336 715 l 708 715 l 708 317 l 415 317 b 299 429 336 317 299 354 z m 1344 429 b 1226 317 1344 354 1306 317 l 933 317 l 933 715 l 1226 715 b 1344 603 1306 715 1344 678 z "},"ф":{"ha":1642,"x_min":0,"x_max":0,"o":"m 933 156 l 1297 156 b 1569 403 1479 156 1569 238 l 1569 628 b 1297 875 1569 793 1479 875 l 933 875 l 933 1015 l 708 1015 l 708 875 l 346 875 b 72 628 163 875 72 793 l 72 403 b 346 156 72 238 163 156 l 708 156 l 708 0 l 933 0 z m 299 603 b 415 715 299 678 336 715 l 708 715 l 708 317 l 415 317 b 299 429 336 317 299 354 z m 1344 429 b 1226 317 1344 354 1306 317 l 933 317 l 933 715 l 1226 715 b 1344 603 1306 715 1344 678 z "},"Ψ":{"ha":1642,"x_min":0,"x_max":0,"o":"m 1344 513 b 1226 400 1344 438 1306 400 l 933 400 l 933 1015 l 708 1015 l 708 400 l 415 400 b 299 513 336 400 299 438 l 299 1014 l 72 1015 l 72 486 b 346 239 72 321 163 239 l 708 239 l 708 0 l 933 0 l 933 239 l 1297 239 b 1569 486 1479 239 1569 321 l 1569 1015 l 1344 1015 z "},"ψ":{"ha":1642,"x_min":0,"x_max":0,"o":"m 1344 513 b 1226 400 1344 438 1306 400 l 933 400 l 933 1015 l 708 1015 l 708 400 l 415 400 b 299 513 336 400 299 438 l 299 1014 l 72 1015 l 72 486 b 346 239 72 321 163 239 l 708 239 l 708 0 l 933 0 l 933 239 l 1297 239 b 1569 486 1479 239 1569 321 l 1569 1015 l 1344 1015 z "},"Ω":{"ha":1453,"x_min":0,"x_max":0,"o":"m 1003 842 b 1119 731 1081 842 1119 804 l 1119 510 b 976 276 1119 394 1069 343 l 861 188 b 835 115 842 171 835 146 l 835 58 b 910 0 835 19 858 0 l 1363 0 l 1363 174 l 1097 174 b 1353 539 1267 261 1353 364 l 1353 768 b 1079 1015 1353 933 1261 1015 l 375 1015 b 101 768 192 1015 101 933 l 101 539 b 353 175 101 365 183 263 l 356 174 l 90 174 l 90 0 l 544 0 b 619 58 594 0 619 19 l 619 115 b 592 188 619 146 611 171 l 476 276 b 333 510 386 340 333 394 l 333 731 b 451 842 333 804 372 842 z "},"ω":{"ha":1453,"x_min":0,"x_max":0,"o":"m 1003 842 b 1119 731 1081 842 1119 804 l 1119 510 b 976 276 1119 394 1069 343 l 861 188 b 835 115 842 171 835 146 l 835 58 b 910 0 835 19 858 0 l 1363 0 l 1363 174 l 1097 174 b 1353 539 1267 261 1353 364 l 1353 768 b 1079 1015 1353 933 1261 1015 l 375 1015 b 101 768 192 1015 101 933 l 101 539 b 353 175 101 365 183 263 l 356 174 l 90 174 l 90 0 l 544 0 b 619 58 594 0 619 19 l 619 115 b 592 188 619 146 611 171 l 476 276 b 333 510 386 340 333 394 l 333 731 b 451 842 333 804 372 842 z "},"Ђ":{"ha":1801,"x_min":0,"x_max":0,"o":"m 469 0 l 701 0 l 701 494 l 1369 494 b 1475 394 1440 494 1475 461 l 1475 -103 b 1368 -203 1475 -169 1439 -203 l 1207 -203 l 1207 -344 l 1461 -344 b 1708 -125 1625 -344 1708 -271 l 1708 449 b 1461 668 1708 594 1625 668 l 701 668 l 701 842 l 1531 842 l 1531 1015 l 49 1015 l 49 842 l 469 842 z "},"ђ":{"ha":1801,"x_min":0,"x_max":0,"o":"m 469 0 l 701 0 l 701 494 l 1369 494 b 1475 394 1440 494 1475 461 l 1475 -103 b 1368 -203 1475 -169 1439 -203 l 1207 -203 l 1207 -344 l 1461 -344 b 1708 -125 1625 -344 1708 -271 l 1708 449 b 1461 668 1708 594 1625 668 l 701 668 l 701 842 l 1531 842 l 1531 1015 l 49 1015 l 49 842 l 469 842 z "},"Ѓ":{"ha":1214,"x_min":0,"x_max":0,"o":"m 338 0 l 338 842 l 1167 842 l 1167 1015 l 106 1015 l 106 0 z m 521 1057 l 667 1057 l 840 1322 l 651 1322 z "},"ѓ":{"ha":1214,"x_min":0,"x_max":0,"o":"m 338 0 l 338 842 l 1167 842 l 1167 1015 l 106 1015 l 106 0 z m 521 1057 l 667 1057 l 840 1322 l 651 1322 z "},"Є":{"ha":1332,"x_min":0,"x_max":0,"o":"m 325 743 b 432 842 325 808 361 842 l 1257 842 l 1257 1015 l 344 1015 b 97 796 181 1015 97 942 l 97 219 b 344 0 97 74 181 0 l 1257 0 l 1257 174 l 432 174 b 325 272 361 174 325 206 l 325 503 l 1018 503 l 1018 650 l 325 650 z "},"є":{"ha":1332,"x_min":0,"x_max":0,"o":"m 325 743 b 432 842 325 808 361 842 l 1257 842 l 1257 1015 l 344 1015 b 97 796 181 1015 97 942 l 97 219 b 344 0 97 74 181 0 l 1257 0 l 1257 174 l 432 174 b 325 272 361 174 325 206 l 325 503 l 1018 503 l 1018 650 l 325 650 z "},"Љ":{"ha":2426,"x_min":0,"x_max":0,"o":"m 1122 842 l 1122 0 l 2081 0 b 2354 247 2264 0 2354 82 l 2354 403 b 2081 650 2354 568 2264 650 l 1356 650 l 1356 1015 l 338 1015 l 338 932 b 108 174 338 336 292 174 l 49 174 l 49 0 l 118 0 b 525 842 433 0 518 257 z m 2125 285 b 2007 174 2125 210 2086 174 l 1356 174 l 1356 503 l 2007 503 b 2125 392 2086 503 2125 465 z "},"љ":{"ha":2426,"x_min":0,"x_max":0,"o":"m 1122 842 l 1122 0 l 2081 0 b 2354 247 2264 0 2354 82 l 2354 403 b 2081 650 2354 568 2264 650 l 1356 650 l 1356 1015 l 338 1015 l 338 932 b 108 174 338 336 292 174 l 49 174 l 49 0 l 118 0 b 525 842 433 0 518 257 z m 2125 285 b 2007 174 2125 210 2086 174 l 1356 174 l 1356 503 l 2007 503 b 2125 392 2086 503 2125 465 z "},"Њ":{"ha":2469,"x_min":0,"x_max":0,"o":"m 1164 0 l 2122 0 b 2396 247 2306 0 2396 82 l 2396 403 b 2122 650 2396 568 2306 650 l 1397 650 l 1397 1015 l 1164 1015 l 1164 650 l 338 650 l 338 1015 l 106 1015 l 106 0 l 338 0 l 338 503 l 1164 503 z m 2167 285 b 2049 174 2167 210 2128 174 l 1397 174 l 1397 503 l 2049 503 b 2167 392 2128 503 2167 465 z "},"њ":{"ha":2469,"x_min":0,"x_max":0,"o":"m 1164 0 l 2122 0 b 2396 247 2306 0 2396 82 l 2396 403 b 2122 650 2396 568 2306 650 l 1397 650 l 1397 1015 l 1164 1015 l 1164 650 l 338 650 l 338 1015 l 106 1015 l 106 0 l 338 0 l 338 503 l 1164 503 z m 2167 285 b 2049 174 2167 210 2128 174 l 1397 174 l 1397 503 l 2049 503 b 2167 392 2128 503 2167 465 z "},"Ћ":{"ha":1801,"x_min":0,"x_max":0,"o":"m 469 0 l 701 0 l 701 494 l 1369 494 b 1475 394 1440 494 1475 461 l 1475 0 l 1708 0 l 1708 449 b 1461 668 1708 594 1625 668 l 701 668 l 701 842 l 1531 842 l 1531 1015 l 49 1015 l 49 842 l 469 842 z "},"ћ":{"ha":1801,"x_min":0,"x_max":0,"o":"m 469 0 l 701 0 l 701 494 l 1369 494 b 1475 394 1440 494 1475 461 l 1475 0 l 1708 0 l 1708 449 b 1461 668 1708 594 1625 668 l 701 668 l 701 842 l 1531 842 l 1531 1015 l 49 1015 l 49 842 l 469 842 z "},"Ќ":{"ha":1433,"x_min":0,"x_max":0,"o":"m 1372 1006 l 1372 1015 l 1121 1015 l 683 596 l 338 596 l 338 1015 l 106 1015 l 106 0 l 338 0 l 338 449 l 682 449 l 1140 0 l 1401 0 l 1401 10 l 894 522 z m 569 1057 l 715 1057 l 889 1322 l 700 1322 z "},"ќ":{"ha":1433,"x_min":0,"x_max":0,"o":"m 1372 1006 l 1372 1015 l 1121 1015 l 683 596 l 338 596 l 338 1015 l 106 1015 l 106 0 l 338 0 l 338 449 l 682 449 l 1140 0 l 1401 0 l 1401 10 l 894 522 z m 569 1057 l 715 1057 l 889 1322 l 700 1322 z "},"Ѝ":{"ha":1501,"x_min":0,"x_max":0,"o":"m 107 1015 l 107 119 b 232 0 107 39 149 0 l 324 0 b 433 49 369 0 404 18 l 1165 831 l 1165 0 l 1397 0 l 1397 896 b 1271 1015 1397 976 1356 1015 l 1179 1015 b 1069 967 1133 1015 1099 997 l 339 188 l 339 1015 z m 736 1322 l 547 1322 l 722 1057 l 867 1057 z "},"ѝ":{"ha":1501,"x_min":0,"x_max":0,"o":"m 107 1015 l 107 119 b 232 0 107 39 149 0 l 324 0 b 433 49 369 0 404 18 l 1165 831 l 1165 0 l 1397 0 l 1397 896 b 1271 1015 1397 976 1356 1015 l 1179 1015 b 1069 967 1133 1015 1099 997 l 339 188 l 339 1015 z m 736 1322 l 547 1322 l 722 1057 l 867 1057 z "},"Ў":{"ha":1428,"x_min":0,"x_max":0,"o":"m 324 1015 l 90 1015 l 90 590 b 338 371 90 444 174 371 l 1093 371 l 1093 272 b 988 174 1093 206 1058 174 l 206 174 l 206 0 l 1079 0 b 1325 219 1243 0 1325 74 l 1325 1015 l 1093 1015 l 1093 519 l 429 519 b 324 619 358 519 324 553 z m 715 1057 b 1047 1322 936 1057 1047 1144 l 921 1322 b 717 1132 921 1197 857 1132 b 513 1322 576 1132 513 1197 l 386 1322 b 715 1057 386 1144 494 1057 z "},"ў":{"ha":1428,"x_min":0,"x_max":0,"o":"m 324 1015 l 90 1015 l 90 590 b 338 371 90 444 174 371 l 1093 371 l 1093 272 b 988 174 1093 206 1058 174 l 206 174 l 206 0 l 1079 0 b 1325 219 1243 0 1325 74 l 1325 1015 l 1093 1015 l 1093 519 l 429 519 b 324 619 358 519 324 553 z m 715 1057 b 1047 1322 936 1057 1047 1144 l 921 1322 b 717 1132 921 1197 857 1132 b 513 1322 576 1132 513 1197 l 386 1322 b 715 1057 386 1144 494 1057 z "},"Џ":{"ha":1489,"x_min":0,"x_max":0,"o":"m 817 -258 l 817 0 l 1383 0 l 1383 1015 l 1151 1015 l 1151 174 l 338 174 l 338 1015 l 106 1015 l 106 0 l 672 0 l 672 -258 z "},"џ":{"ha":1489,"x_min":0,"x_max":0,"o":"m 817 -258 l 817 0 l 1383 0 l 1383 1015 l 1151 1015 l 1151 174 l 338 174 l 338 1015 l 106 1015 l 106 0 l 672 0 l 672 -258 z "},"Б":{"ha":1410,"x_min":0,"x_max":0,"o":"m 106 0 l 1064 0 b 1338 247 1247 0 1338 82 l 1338 403 b 1064 650 1338 568 1247 650 l 338 650 l 338 842 l 1167 842 l 1167 1015 l 106 1015 z m 1108 285 b 990 174 1108 210 1069 174 l 338 174 l 338 503 l 990 503 b 1108 392 1069 503 1108 465 z "},"б":{"ha":1410,"x_min":0,"x_max":0,"o":"m 106 0 l 1064 0 b 1338 247 1247 0 1338 82 l 1338 403 b 1064 650 1338 568 1247 650 l 338 650 l 338 842 l 1167 842 l 1167 1015 l 106 1015 z m 1108 285 b 990 174 1108 210 1069 174 l 338 174 l 338 503 l 990 503 b 1108 392 1069 503 1108 465 z "},"Д":{"ha":1644,"x_min":0,"x_max":0,"o":"m 193 -258 l 193 0 l 1451 0 l 1451 -258 l 1596 -258 l 1596 174 l 1403 174 l 1403 1015 l 385 1015 l 385 932 b 167 174 385 349 340 174 l 49 174 l 49 -258 z m 1169 842 l 1169 174 l 471 174 b 572 842 542 310 568 528 z "},"д":{"ha":1644,"x_min":0,"x_max":0,"o":"m 193 -258 l 193 0 l 1451 0 l 1451 -258 l 1596 -258 l 1596 174 l 1403 174 l 1403 1015 l 385 1015 l 385 932 b 167 174 385 349 340 174 l 49 174 l 49 -258 z m 1169 842 l 1169 174 l 471 174 b 572 842 542 310 568 528 z "},"Ж":{"ha":1892,"x_min":0,"x_max":0,"o":"m 1058 0 l 1058 449 l 1142 449 l 1600 0 l 1861 0 l 1861 10 l 1354 522 l 1831 1006 l 1831 1015 l 1578 1015 l 1142 596 l 1058 596 l 1058 1015 l 833 1015 l 833 596 l 750 596 l 313 1015 l 61 1015 l 61 1006 l 538 522 l 32 10 l 32 0 l 293 0 l 750 449 l 833 449 l 833 0 z "},"ж":{"ha":1892,"x_min":0,"x_max":0,"o":"m 1058 0 l 1058 449 l 1142 449 l 1600 0 l 1861 0 l 1861 10 l 1354 522 l 1831 1006 l 1831 1015 l 1578 1015 l 1142 596 l 1058 596 l 1058 1015 l 833 1015 l 833 596 l 750 596 l 313 1015 l 61 1015 l 61 1006 l 538 522 l 32 10 l 32 0 l 293 0 l 750 449 l 833 449 l 833 0 z "},"И":{"ha":1501,"x_min":0,"x_max":0,"o":"m 107 1015 l 107 119 b 232 0 107 39 149 0 l 324 0 b 433 49 369 0 404 18 l 1165 831 l 1165 0 l 1397 0 l 1397 896 b 1271 1015 1397 976 1356 1015 l 1179 1015 b 1069 967 1133 1015 1099 997 l 339 188 l 339 1015 z "},"и":{"ha":1501,"x_min":0,"x_max":0,"o":"m 107 1015 l 107 119 b 232 0 107 39 149 0 l 324 0 b 433 49 369 0 404 18 l 1165 831 l 1165 0 l 1397 0 l 1397 896 b 1271 1015 1397 976 1356 1015 l 1179 1015 b 1069 967 1133 1015 1099 997 l 339 188 l 339 1015 z "},"Й":{"ha":1501,"x_min":0,"x_max":0,"o":"m 107 1015 l 107 119 b 232 0 107 39 149 0 l 324 0 b 433 49 369 0 404 18 l 1165 831 l 1165 0 l 1397 0 l 1397 896 b 1271 1015 1397 976 1356 1015 l 1179 1015 b 1069 967 1133 1015 1099 997 l 339 188 l 339 1015 z m 750 1057 b 1082 1322 971 1057 1082 1144 l 956 1322 b 751 1132 956 1197 892 1132 b 547 1322 611 1132 547 1197 l 421 1322 b 750 1057 421 1144 529 1057 z "},"й":{"ha":1501,"x_min":0,"x_max":0,"o":"m 107 1015 l 107 119 b 232 0 107 39 149 0 l 324 0 b 433 49 369 0 404 18 l 1165 831 l 1165 0 l 1397 0 l 1397 896 b 1271 1015 1397 976 1356 1015 l 1179 1015 b 1069 967 1133 1015 1099 997 l 339 188 l 339 1015 z m 750 1057 b 1082 1322 971 1057 1082 1144 l 956 1322 b 751 1132 956 1197 892 1132 b 547 1322 611 1132 547 1197 l 421 1322 b 750 1057 421 1144 529 1057 z "},"Л":{"ha":1460,"x_min":0,"x_max":0,"o":"m 1122 842 l 1122 0 l 1356 0 l 1356 1015 l 338 1015 l 338 932 b 108 174 338 336 292 174 l 49 174 l 49 0 l 118 0 b 525 842 433 0 518 257 z "},"л":{"ha":1460,"x_min":0,"x_max":0,"o":"m 1122 842 l 1122 0 l 1356 0 l 1356 1015 l 338 1015 l 338 932 b 108 174 338 336 292 174 l 49 174 l 49 0 l 118 0 b 525 842 433 0 518 257 z "},"Ц":{"ha":1626,"x_min":0,"x_max":0,"o":"m 106 0 l 1433 0 l 1433 -258 l 1578 -258 l 1578 174 l 1383 174 l 1383 1015 l 1151 1015 l 1151 174 l 338 174 l 338 1015 l 106 1015 z "},"ц":{"ha":1626,"x_min":0,"x_max":0,"o":"m 106 0 l 1433 0 l 1433 -258 l 1578 -258 l 1578 174 l 1383 174 l 1383 1015 l 1151 1015 l 1151 174 l 338 174 l 338 1015 l 106 1015 z "},"Ч":{"ha":1438,"x_min":0,"x_max":0,"o":"m 1332 1015 l 1100 1015 l 1100 521 l 432 521 b 326 621 361 521 326 554 l 326 1015 l 93 1015 l 93 567 b 340 347 93 421 176 347 l 1100 347 l 1100 0 l 1332 0 z "},"ч":{"ha":1438,"x_min":0,"x_max":0,"o":"m 1332 1015 l 1100 1015 l 1100 521 l 432 521 b 326 621 361 521 326 554 l 326 1015 l 93 1015 l 93 567 b 340 347 93 421 176 347 l 1100 347 l 1100 0 l 1332 0 z "},"Ш":{"ha":1818,"x_min":0,"x_max":0,"o":"m 106 0 l 1713 0 l 1713 1015 l 1479 1015 l 1479 174 l 1019 174 l 1019 1015 l 801 1015 l 801 174 l 338 174 l 338 1015 l 106 1015 z "},"ш":{"ha":1818,"x_min":0,"x_max":0,"o":"m 106 0 l 1713 0 l 1713 1015 l 1479 1015 l 1479 174 l 1019 174 l 1019 1015 l 801 1015 l 801 174 l 338 174 l 338 1015 l 106 1015 z "},"Щ":{"ha":1956,"x_min":0,"x_max":0,"o":"m 106 0 l 1763 0 l 1763 -258 l 1907 -258 l 1907 174 l 1713 174 l 1713 1015 l 1479 1015 l 1479 174 l 1019 174 l 1019 1015 l 801 1015 l 801 174 l 338 174 l 338 1015 l 106 1015 z "},"щ":{"ha":1956,"x_min":0,"x_max":0,"o":"m 106 0 l 1763 0 l 1763 -258 l 1907 -258 l 1907 174 l 1713 174 l 1713 1015 l 1479 1015 l 1479 174 l 1019 174 l 1019 1015 l 801 1015 l 801 174 l 338 174 l 338 1015 l 106 1015 z "},"Ъ":{"ha":1824,"x_min":0,"x_max":0,"o":"m 519 0 l 1478 0 b 1751 247 1661 0 1751 82 l 1751 403 b 1478 650 1751 568 1661 650 l 751 650 l 751 1015 l 49 1015 l 49 842 l 519 842 z m 1522 285 b 1404 174 1522 210 1483 174 l 751 174 l 751 503 l 1404 503 b 1522 392 1483 503 1522 465 z "},"ъ":{"ha":1824,"x_min":0,"x_max":0,"o":"m 519 0 l 1478 0 b 1751 247 1661 0 1751 82 l 1751 403 b 1478 650 1751 568 1661 650 l 751 650 l 751 1015 l 49 1015 l 49 842 l 519 842 z m 1522 285 b 1404 174 1522 210 1483 174 l 751 174 l 751 503 l 1404 503 b 1522 392 1483 503 1522 465 z "},"Ы":{"ha":1865,"x_min":0,"x_max":0,"o":"m 106 0 l 1064 0 b 1338 247 1247 0 1338 82 l 1338 403 b 1064 650 1338 568 1247 650 l 338 650 l 338 1015 l 106 1015 z m 1108 285 b 990 174 1108 210 1069 174 l 338 174 l 338 503 l 990 503 b 1108 392 1069 503 1108 465 z m 1760 1015 l 1528 1015 l 1528 0 l 1760 0 z "},"ы":{"ha":1865,"x_min":0,"x_max":0,"o":"m 106 0 l 1064 0 b 1338 247 1247 0 1338 82 l 1338 403 b 1064 650 1338 568 1247 650 l 338 650 l 338 1015 l 106 1015 z m 1108 285 b 990 174 1108 210 1069 174 l 338 174 l 338 503 l 990 503 b 1108 392 1069 503 1108 465 z m 1760 1015 l 1528 1015 l 1528 0 l 1760 0 z "},"Ь":{"ha":1410,"x_min":0,"x_max":0,"o":"m 106 0 l 1064 0 b 1338 247 1247 0 1338 82 l 1338 403 b 1064 650 1338 568 1247 650 l 338 650 l 338 1015 l 106 1015 z m 1108 285 b 990 174 1108 210 1069 174 l 338 174 l 338 503 l 990 503 b 1108 392 1069 503 1108 465 z "},"ь":{"ha":1410,"x_min":0,"x_max":0,"o":"m 106 0 l 1064 0 b 1338 247 1247 0 1338 82 l 1338 403 b 1064 650 1338 568 1247 650 l 338 650 l 338 1015 l 106 1015 z m 1108 285 b 990 174 1108 210 1069 174 l 338 174 l 338 503 l 990 503 b 1108 392 1069 503 1108 465 z "},"Э":{"ha":1332,"x_min":0,"x_max":0,"o":"m 1007 650 l 314 650 l 314 503 l 1007 503 l 1007 272 b 900 174 1007 206 971 174 l 75 174 l 75 0 l 988 0 b 1235 219 1151 0 1235 74 l 1235 796 b 988 1015 1235 942 1151 1015 l 75 1015 l 75 842 l 900 842 b 1007 743 971 842 1007 808 z "},"э":{"ha":1332,"x_min":0,"x_max":0,"o":"m 1007 650 l 314 650 l 314 503 l 1007 503 l 1007 272 b 900 174 1007 206 971 174 l 75 174 l 75 0 l 988 0 b 1235 219 1151 0 1235 74 l 1235 796 b 988 1015 1235 942 1151 1015 l 75 1015 l 75 842 l 900 842 b 1007 743 971 842 1007 808 z "},"Ю":{"ha":1893,"x_min":0,"x_max":0,"o":"m 1519 0 b 1793 247 1703 0 1793 82 l 1793 768 b 1519 1015 1793 933 1703 1015 l 829 1015 b 556 768 646 1015 556 933 l 556 650 l 338 650 l 338 1015 l 106 1015 l 106 0 l 338 0 l 338 503 l 556 503 l 556 247 b 829 0 556 82 646 0 z m 1443 842 b 1561 731 1522 842 1561 806 l 1561 285 b 1443 174 1561 210 1522 174 l 906 174 b 788 285 826 174 788 211 l 788 731 b 906 842 788 806 826 842 z "},"ю":{"ha":1893,"x_min":0,"x_max":0,"o":"m 1519 0 b 1793 247 1703 0 1793 82 l 1793 768 b 1519 1015 1793 933 1703 1015 l 829 1015 b 556 768 646 1015 556 933 l 556 650 l 338 650 l 338 1015 l 106 1015 l 106 0 l 338 0 l 338 503 l 556 503 l 556 247 b 829 0 556 82 646 0 z m 1443 842 b 1561 731 1522 842 1561 806 l 1561 285 b 1443 174 1561 210 1522 174 l 906 174 b 788 285 826 174 788 211 l 788 731 b 906 842 788 806 826 842 z "},"Я":{"ha":1418,"x_min":0,"x_max":0,"o":"m 1313 1015 l 353 1015 b 81 768 171 1015 81 933 l 81 639 b 329 385 81 492 163 393 l 29 10 l 29 0 l 286 0 l 592 385 l 1079 385 l 1079 0 l 1313 0 z m 310 733 b 426 846 310 808 349 846 l 1079 846 l 1079 533 l 426 533 b 310 653 349 533 310 589 z "},"я":{"ha":1418,"x_min":0,"x_max":0,"o":"m 1313 1015 l 353 1015 b 81 768 171 1015 81 933 l 81 639 b 329 385 81 492 163 393 l 29 10 l 29 0 l 286 0 l 592 385 l 1079 385 l 1079 0 l 1313 0 z m 310 733 b 426 846 310 808 349 846 l 1079 846 l 1079 533 l 426 533 b 310 653 349 533 310 589 z "},"Ґ":{"ha":1214,"x_min":0,"x_max":0,"o":"m 1167 842 l 1167 1274 l 1022 1274 l 1022 1015 l 106 1015 l 106 0 l 338 0 l 338 842 z "},"ґ":{"ha":1214,"x_min":0,"x_max":0,"o":"m 1167 842 l 1167 1274 l 1022 1274 l 1022 1015 l 106 1015 l 106 0 l 338 0 l 338 842 z "},"Ғ":{"ha":1214,"x_min":0,"x_max":0,"o":"m 338 0 l 338 501 l 794 501 l 794 604 l 338 604 l 338 842 l 1167 842 l 1167 1015 l 106 1015 l 106 604 l 25 604 l 25 501 l 106 501 l 106 0 z "},"ғ":{"ha":1214,"x_min":0,"x_max":0,"o":"m 338 0 l 338 501 l 794 501 l 794 604 l 338 604 l 338 842 l 1167 842 l 1167 1015 l 106 1015 l 106 604 l 25 604 l 25 501 l 106 501 l 106 0 z "},"Җ":{"ha":2014,"x_min":0,"x_max":0,"o":"m 1600 0 l 1819 0 l 1819 -258 l 1964 -258 l 1964 174 l 1699 174 l 1354 522 l 1831 1006 l 1831 1015 l 1578 1015 l 1142 596 l 1058 596 l 1058 1015 l 833 1015 l 833 596 l 750 596 l 313 1015 l 61 1015 l 61 1006 l 538 522 l 32 10 l 32 0 l 293 0 l 750 449 l 833 449 l 833 0 l 1058 0 l 1058 449 l 1142 449 z "},"җ":{"ha":2014,"x_min":0,"x_max":0,"o":"m 1600 0 l 1819 0 l 1819 -258 l 1964 -258 l 1964 174 l 1699 174 l 1354 522 l 1831 1006 l 1831 1015 l 1578 1015 l 1142 596 l 1058 596 l 1058 1015 l 833 1015 l 833 596 l 750 596 l 313 1015 l 61 1015 l 61 1006 l 538 522 l 32 10 l 32 0 l 293 0 l 750 449 l 833 449 l 833 0 l 1058 0 l 1058 449 l 1142 449 z "},"Ҙ":{"ha":1358,"x_min":0,"x_max":0,"o":"m 106 174 l 106 0 l 769 0 l 604 -29 b 426 -194 500 -47 426 -100 b 606 -344 426 -289 485 -344 l 886 -344 l 886 -208 l 647 -208 b 575 -147 599 -208 575 -185 b 654 -69 575 -106 607 -83 l 886 0 l 1008 0 b 1282 233 1192 0 1282 78 l 1282 383 b 1167 567 1282 474 1243 535 b 1272 724 1236 593 1272 644 l 1272 814 b 1035 1015 1272 949 1193 1015 l 106 1015 l 106 842 l 971 842 b 1051 776 1024 842 1051 821 l 1051 715 b 971 650 1051 672 1024 650 l 371 650 l 371 503 l 938 503 b 1056 403 1017 503 1056 469 l 1056 272 b 938 174 1056 206 1017 174 z "},"ҙ":{"ha":1358,"x_min":0,"x_max":0,"o":"m 106 174 l 106 0 l 769 0 l 604 -29 b 426 -194 500 -47 426 -100 b 606 -344 426 -289 485 -344 l 886 -344 l 886 -208 l 647 -208 b 575 -147 599 -208 575 -185 b 654 -69 575 -106 607 -83 l 886 0 l 1008 0 b 1282 233 1192 0 1282 78 l 1282 383 b 1167 567 1282 474 1243 535 b 1272 724 1236 593 1272 644 l 1272 814 b 1035 1015 1272 949 1193 1015 l 106 1015 l 106 842 l 971 842 b 1051 776 1024 842 1051 821 l 1051 715 b 971 650 1051 672 1024 650 l 371 650 l 371 503 l 938 503 b 1056 403 1017 503 1056 469 l 1056 272 b 938 174 1056 206 1017 174 z "},"Қ":{"ha":1554,"x_min":0,"x_max":0,"o":"m 1504 -258 l 1504 174 l 1239 174 l 894 522 l 1372 1006 l 1372 1015 l 1121 1015 l 683 596 l 338 596 l 338 1015 l 106 1015 l 106 0 l 338 0 l 338 449 l 682 449 l 1140 0 l 1360 0 l 1360 -258 z "},"қ":{"ha":1554,"x_min":0,"x_max":0,"o":"m 1504 -258 l 1504 174 l 1239 174 l 894 522 l 1372 1006 l 1372 1015 l 1121 1015 l 683 596 l 338 596 l 338 1015 l 106 1015 l 106 0 l 338 0 l 338 449 l 682 449 l 1140 0 l 1360 0 l 1360 -258 z "},"Ҡ":{"ha":1915,"x_min":0,"x_max":0,"o":"m 1578 503 l 1578 0 l 1811 0 l 1811 1015 l 1578 1015 l 1578 650 l 751 650 l 751 1015 l 49 1015 l 49 842 l 519 842 l 519 0 l 751 0 l 751 503 z "},"ҡ":{"ha":1915,"x_min":0,"x_max":0,"o":"m 1578 503 l 1578 0 l 1811 0 l 1811 1015 l 1578 1015 l 1578 650 l 751 650 l 751 1015 l 49 1015 l 49 842 l 519 842 l 519 0 l 751 0 l 751 503 z "},"Ң":{"ha":1640,"x_min":0,"x_max":0,"o":"m 1164 0 l 1447 0 l 1447 -258 l 1592 -258 l 1592 174 l 1397 174 l 1397 1015 l 1164 1015 l 1164 650 l 338 650 l 338 1015 l 106 1015 l 106 0 l 338 0 l 338 503 l 1164 503 z "},"ң":{"ha":1640,"x_min":0,"x_max":0,"o":"m 1164 0 l 1447 0 l 1447 -258 l 1592 -258 l 1592 174 l 1397 174 l 1397 1015 l 1164 1015 l 1164 650 l 338 650 l 338 1015 l 106 1015 l 106 0 l 338 0 l 338 503 l 1164 503 z "},"Ҫ":{"ha":1332,"x_min":0,"x_max":0,"o":"m 329 743 b 436 842 329 808 365 842 l 1257 842 l 1257 1015 l 344 1015 b 97 796 181 1015 97 942 l 97 219 b 344 0 97 74 181 0 l 1140 0 l 975 -29 b 797 -194 871 -47 797 -100 b 976 -344 797 -289 856 -344 l 1257 -344 l 1257 -208 l 1018 -208 b 946 -147 969 -208 946 -185 b 1025 -69 946 -106 978 -83 l 1257 0 l 1257 174 l 436 174 b 329 272 365 174 329 206 z "},"ҫ":{"ha":1332,"x_min":0,"x_max":0,"o":"m 329 743 b 436 842 329 808 365 842 l 1257 842 l 1257 1015 l 344 1015 b 97 796 181 1015 97 942 l 97 219 b 344 0 97 74 181 0 l 1140 0 l 975 -29 b 797 -194 871 -47 797 -100 b 976 -344 797 -289 856 -344 l 1257 -344 l 1257 -208 l 1018 -208 b 946 -147 969 -208 946 -185 b 1025 -69 946 -106 978 -83 l 1257 0 l 1257 174 l 436 174 b 329 272 365 174 329 206 z "},"Υ":{"ha":1346,"x_min":0,"x_max":0,"o":"m 281 1015 l 33 1015 l 33 1006 l 557 440 l 557 0 l 790 0 l 790 440 l 1313 1006 l 1313 1015 l 1067 1015 l 674 599 z "},"υ":{"ha":1346,"x_min":0,"x_max":0,"o":"m 281 1015 l 33 1015 l 33 1006 l 557 440 l 557 0 l 790 0 l 790 440 l 1313 1006 l 1313 1015 l 1067 1015 l 674 599 z "},"Ү":{"ha":1346,"x_min":0,"x_max":0,"o":"m 281 1015 l 33 1015 l 33 1006 l 557 440 l 557 0 l 790 0 l 790 440 l 1313 1006 l 1313 1015 l 1067 1015 l 674 599 z "},"ү":{"ha":1346,"x_min":0,"x_max":0,"o":"m 281 1015 l 33 1015 l 33 1006 l 557 440 l 557 0 l 790 0 l 790 440 l 1313 1006 l 1313 1015 l 1067 1015 l 674 599 z "},"Ұ":{"ha":1346,"x_min":0,"x_max":0,"o":"m 1060 344 l 1060 447 l 796 447 l 1313 1006 l 1313 1015 l 1067 1015 l 674 599 l 281 1015 l 33 1015 l 33 1006 l 550 447 l 290 447 l 290 344 l 557 344 l 557 0 l 790 0 l 790 344 z "},"ұ":{"ha":1346,"x_min":0,"x_max":0,"o":"m 1060 344 l 1060 447 l 796 447 l 1313 1006 l 1313 1015 l 1067 1015 l 674 599 l 281 1015 l 33 1015 l 33 1006 l 550 447 l 290 447 l 290 344 l 557 344 l 557 0 l 790 0 l 790 344 z "},"Ҳ":{"ha":1647,"x_min":0,"x_max":0,"o":"m 1599 -258 l 1599 174 l 1303 174 l 899 519 l 1467 1006 l 1467 1015 l 1193 1015 l 756 632 l 311 1015 l 35 1015 l 35 1006 l 615 510 l 33 10 l 33 0 l 306 0 l 758 397 l 1218 0 l 1454 0 l 1454 -258 z "},"ҳ":{"ha":1647,"x_min":0,"x_max":0,"o":"m 1599 -258 l 1599 174 l 1303 174 l 899 519 l 1467 1006 l 1467 1015 l 1193 1015 l 756 632 l 311 1015 l 35 1015 l 35 1006 l 615 510 l 33 10 l 33 0 l 306 0 l 758 397 l 1218 0 l 1454 0 l 1454 -258 z "},"Ҷ":{"ha":1576,"x_min":0,"x_max":0,"o":"m 1526 -258 l 1526 174 l 1332 174 l 1332 1015 l 1100 1015 l 1100 521 l 432 521 b 326 621 361 521 326 554 l 326 1015 l 93 1015 l 93 567 b 340 347 93 421 176 347 l 1100 347 l 1100 0 l 1382 0 l 1382 -258 z "},"ҷ":{"ha":1576,"x_min":0,"x_max":0,"o":"m 1526 -258 l 1526 174 l 1332 174 l 1332 1015 l 1100 1015 l 1100 521 l 432 521 b 326 621 361 521 326 554 l 326 1015 l 93 1015 l 93 567 b 340 347 93 421 176 347 l 1100 347 l 1100 0 l 1382 0 l 1382 -258 z "},"Һ":{"ha":1438,"x_min":0,"x_max":0,"o":"m 106 0 l 338 0 l 338 494 l 1006 494 b 1111 394 1076 494 1111 461 l 1111 0 l 1344 0 l 1344 449 b 1097 668 1344 594 1261 668 l 338 668 l 338 1015 l 106 1015 z "},"һ":{"ha":1438,"x_min":0,"x_max":0,"o":"m 106 0 l 338 0 l 338 494 l 1006 494 b 1111 394 1076 494 1111 461 l 1111 0 l 1344 0 l 1344 449 b 1097 668 1344 594 1261 668 l 338 668 l 338 1015 l 106 1015 z "},"Ӄ":{"ha":1433,"x_min":0,"x_max":0,"o":"m 1168 -103 b 1063 -203 1168 -169 1133 -203 l 900 -203 l 900 -344 l 1154 -344 b 1401 -125 1318 -344 1401 -271 l 1401 10 l 894 522 l 1372 1006 l 1372 1015 l 1121 1015 l 683 596 l 338 596 l 338 1015 l 106 1015 l 106 0 l 338 0 l 338 449 l 682 449 l 1168 -33 z "},"ӄ":{"ha":1433,"x_min":0,"x_max":0,"o":"m 1168 -103 b 1063 -203 1168 -169 1133 -203 l 900 -203 l 900 -344 l 1154 -344 b 1401 -125 1318 -344 1401 -271 l 1401 10 l 894 522 l 1372 1006 l 1372 1015 l 1121 1015 l 683 596 l 338 596 l 338 1015 l 106 1015 l 106 0 l 338 0 l 338 449 l 682 449 l 1168 -33 z "},"Ӈ":{"ha":1501,"x_min":0,"x_max":0,"o":"m 1164 -103 b 1057 -203 1164 -169 1128 -203 l 896 -203 l 896 -344 l 1150 -344 b 1397 -125 1314 -344 1397 -271 l 1397 1015 l 1164 1015 l 1164 650 l 338 650 l 338 1015 l 106 1015 l 106 0 l 338 0 l 338 503 l 1164 503 z "},"ӈ":{"ha":1501,"x_min":0,"x_max":0,"o":"m 1164 -103 b 1057 -203 1164 -169 1128 -203 l 896 -203 l 896 -344 l 1150 -344 b 1397 -125 1314 -344 1397 -271 l 1397 1015 l 1164 1015 l 1164 650 l 338 650 l 338 1015 l 106 1015 l 106 0 l 338 0 l 338 503 l 1164 503 z "},"Ө":{"ha":1433,"x_min":0,"x_max":0,"o":"m 1061 0 b 1335 247 1244 0 1335 82 l 1335 768 b 1061 1015 1335 933 1244 1015 l 371 1015 b 97 768 188 1015 97 933 l 97 247 b 371 0 97 82 188 0 z m 985 174 l 447 174 b 329 285 368 174 329 211 l 329 503 l 1103 503 l 1103 285 b 985 174 1103 210 1064 174 z m 985 842 b 1103 731 1064 842 1103 806 l 1103 650 l 329 650 l 329 731 b 447 842 329 806 368 842 z "},"ө":{"ha":1433,"x_min":0,"x_max":0,"o":"m 1061 0 b 1335 247 1244 0 1335 82 l 1335 768 b 1061 1015 1335 933 1244 1015 l 371 1015 b 97 768 188 1015 97 933 l 97 247 b 371 0 97 82 188 0 z m 985 174 l 447 174 b 329 285 368 174 329 211 l 329 503 l 1103 503 l 1103 285 b 985 174 1103 210 1064 174 z m 985 842 b 1103 731 1064 842 1103 806 l 1103 650 l 329 650 l 329 731 b 447 842 329 806 368 842 z "},"Ӯ":{"ha":1428,"x_min":0,"x_max":0,"o":"m 324 1015 l 90 1015 l 90 590 b 338 371 90 444 174 371 l 1093 371 l 1093 272 b 988 174 1093 206 1058 174 l 206 174 l 206 0 l 1079 0 b 1325 219 1243 0 1325 74 l 1325 1015 l 1093 1015 l 1093 519 l 429 519 b 324 619 358 519 324 553 z m 1103 1149 l 1103 1251 l 333 1251 l 333 1149 z "},"ӯ":{"ha":1428,"x_min":0,"x_max":0,"o":"m 324 1015 l 90 1015 l 90 590 b 338 371 90 444 174 371 l 1093 371 l 1093 272 b 988 174 1093 206 1058 174 l 206 174 l 206 0 l 1079 0 b 1325 219 1243 0 1325 74 l 1325 1015 l 1093 1015 l 1093 519 l 429 519 b 324 619 358 519 324 553 z m 1103 1149 l 1103 1251 l 333 1251 l 333 1149 z "},"Ԓ":{"ha":1460,"x_min":0,"x_max":0,"o":"m 1122 -103 b 1015 -203 1122 -169 1086 -203 l 853 -203 l 853 -344 l 1108 -344 b 1356 -125 1272 -344 1356 -271 l 1356 1015 l 338 1015 l 338 932 b 108 174 338 336 292 174 l 49 174 l 49 0 l 118 0 b 525 842 433 0 518 257 l 1122 842 z "},"ԓ":{"ha":1460,"x_min":0,"x_max":0,"o":"m 1122 -103 b 1015 -203 1122 -169 1086 -203 l 853 -203 l 853 -344 l 1108 -344 b 1356 -125 1272 -344 1356 -271 l 1356 1015 l 338 1015 l 338 932 b 108 174 338 336 292 174 l 49 174 l 49 0 l 118 0 b 525 842 433 0 518 257 l 1122 842 z "},"֏":{"ha":1199,"x_min":0,"x_max":0,"o":"m 403 565 l 403 464 l 786 464 l 786 288 l 403 288 l 403 186 l 786 186 l 786 0 l 1018 0 l 1018 186 l 1175 186 l 1175 288 l 1018 288 l 1018 464 l 1175 464 l 1175 565 l 1018 565 l 1018 796 b 771 1015 1018 942 936 1015 l 49 1015 l 49 842 l 679 842 b 786 742 747 842 786 808 l 786 565 z "},"Ḍ":{"ha":1443,"x_min":0,"x_max":0,"o":"m 1113 285 b 996 174 1113 210 1074 174 l 338 174 l 338 842 l 996 842 b 1113 731 1074 842 1113 806 z m 106 0 l 1072 0 b 1346 247 1256 0 1346 82 l 1346 768 b 1072 1015 1346 933 1256 1015 l 106 1015 z m 767 -265 b 814 -225 797 -265 814 -253 l 814 -154 b 767 -112 814 -125 797 -112 l 668 -112 b 624 -154 639 -112 624 -125 l 624 -225 b 668 -265 624 -253 639 -265 z "},"Ḓ":{"ha":1443,"x_min":0,"x_max":0,"o":"m 1113 285 b 996 174 1113 210 1074 174 l 338 174 l 338 842 l 996 842 b 1113 731 1074 842 1113 806 z m 106 0 l 1072 0 b 1346 247 1256 0 1346 82 l 1346 768 b 1072 1015 1346 933 1256 1015 l 106 1015 z m 422 -307 l 567 -307 l 719 -106 l 871 -307 l 1015 -307 l 835 -42 l 601 -42 z "},"Ḥ":{"ha":1501,"x_min":0,"x_max":0,"o":"m 1164 503 l 1164 0 l 1397 0 l 1397 1015 l 1164 1015 l 1164 650 l 338 650 l 338 1015 l 106 1015 l 106 0 l 338 0 l 338 503 z m 799 -265 b 846 -225 829 -265 846 -253 l 846 -154 b 799 -112 846 -125 829 -112 l 700 -112 b 656 -154 671 -112 656 -125 l 656 -225 b 700 -265 656 -253 671 -265 z "},"Ḽ":{"ha":1214,"x_min":0,"x_max":0,"o":"m 106 1015 l 106 0 l 1167 0 l 1167 174 l 338 174 l 338 1015 z m 333 -307 l 478 -307 l 631 -106 l 782 -307 l 926 -307 l 746 -42 l 513 -42 z "},"Ṅ":{"ha":1522,"x_min":0,"x_max":0,"o":"m 1213 1015 l 1213 179 l 453 967 b 343 1015 426 1000 389 1015 l 228 1015 b 103 896 144 1015 103 976 l 103 0 l 310 0 l 310 833 l 1068 49 b 1178 0 1094 15 1132 0 l 1293 0 b 1418 119 1376 0 1418 39 l 1418 1015 z m 810 1124 b 857 1164 840 1124 857 1136 l 857 1235 b 810 1276 857 1264 840 1276 l 711 1276 b 667 1235 682 1276 667 1264 l 667 1164 b 711 1124 667 1136 682 1124 z "},"Ṋ":{"ha":1522,"x_min":0,"x_max":0,"o":"m 1213 1015 l 1213 179 l 453 967 b 343 1015 426 1000 389 1015 l 228 1015 b 103 896 144 1015 103 976 l 103 0 l 310 0 l 310 833 l 1068 49 b 1178 0 1094 15 1132 0 l 1293 0 b 1418 119 1376 0 1418 39 l 1418 1015 z m 464 -307 l 608 -307 l 761 -106 l 913 -307 l 1057 -307 l 876 -42 l 643 -42 z "},"Ṛ":{"ha":1418,"x_min":0,"x_max":0,"o":"m 106 0 l 338 0 l 338 385 l 826 385 l 1131 0 l 1388 0 l 1388 10 l 1088 385 b 1338 632 1254 392 1338 474 l 1338 768 b 1064 1015 1338 933 1247 1015 l 106 1015 z m 1108 646 b 990 533 1108 571 1069 533 l 338 533 l 338 846 l 990 846 b 1108 733 1069 846 1108 808 z m 738 -265 b 785 -225 768 -265 785 -253 l 785 -154 b 738 -112 785 -125 768 -112 l 639 -112 b 594 -154 610 -112 594 -125 l 594 -225 b 639 -265 594 -253 610 -265 z "},"Ṭ":{"ha":1372,"x_min":0,"x_max":0,"o":"m 801 0 l 801 842 l 1322 842 l 1322 1015 l 49 1015 l 49 842 l 568 842 l 568 0 z m 732 -265 b 779 -225 763 -265 779 -253 l 779 -154 b 732 -112 779 -125 763 -112 l 633 -112 b 589 -154 604 -112 589 -125 l 589 -225 b 633 -265 589 -253 604 -265 z "},"Ẁ":{"ha":1818,"x_min":0,"x_max":0,"o":"m 1018 1015 l 800 1015 l 800 174 l 438 174 b 331 272 367 174 331 206 l 331 1015 l 103 1015 l 103 219 b 349 0 103 74 185 0 l 1468 0 b 1715 219 1632 0 1715 74 l 1715 1015 l 1486 1015 l 1486 272 b 1379 174 1486 206 1450 174 l 1018 174 z m 874 1322 l 685 1322 l 860 1057 l 1004 1057 z "},"ẁ":{"ha":1818,"x_min":0,"x_max":0,"o":"m 1018 1015 l 800 1015 l 800 174 l 438 174 b 331 272 367 174 331 206 l 331 1015 l 103 1015 l 103 219 b 349 0 103 74 185 0 l 1468 0 b 1715 219 1632 0 1715 74 l 1715 1015 l 1486 1015 l 1486 272 b 1379 174 1486 206 1450 174 l 1018 174 z m 874 1322 l 685 1322 l 860 1057 l 1004 1057 z "},"Ẃ":{"ha":1818,"x_min":0,"x_max":0,"o":"m 1018 1015 l 800 1015 l 800 174 l 438 174 b 331 272 367 174 331 206 l 331 1015 l 103 1015 l 103 219 b 349 0 103 74 185 0 l 1468 0 b 1715 219 1632 0 1715 74 l 1715 1015 l 1486 1015 l 1486 272 b 1379 174 1486 206 1450 174 l 1018 174 z m 813 1057 l 958 1057 l 1132 1322 l 943 1322 z "},"ẃ":{"ha":1818,"x_min":0,"x_max":0,"o":"m 1018 1015 l 800 1015 l 800 174 l 438 174 b 331 272 367 174 331 206 l 331 1015 l 103 1015 l 103 219 b 349 0 103 74 185 0 l 1468 0 b 1715 219 1632 0 1715 74 l 1715 1015 l 1486 1015 l 1486 272 b 1379 174 1486 206 1450 174 l 1018 174 z m 813 1057 l 958 1057 l 1132 1322 l 943 1322 z "},"Ẅ":{"ha":1818,"x_min":0,"x_max":0,"o":"m 1018 1015 l 800 1015 l 800 174 l 438 174 b 331 272 367 174 331 206 l 331 1015 l 103 1015 l 103 219 b 349 0 103 74 185 0 l 1468 0 b 1715 219 1632 0 1715 74 l 1715 1015 l 1486 1015 l 1486 272 b 1379 174 1486 206 1450 174 l 1018 174 z m 1176 1124 b 1224 1164 1207 1124 1224 1136 l 1224 1235 b 1176 1276 1224 1264 1207 1276 l 1078 1276 b 1033 1235 1049 1276 1033 1264 l 1033 1164 b 1078 1124 1033 1136 1049 1124 z m 735 1124 b 782 1164 765 1124 782 1136 l 782 1235 b 735 1276 782 1264 765 1276 l 636 1276 b 592 1235 607 1276 592 1264 l 592 1164 b 636 1124 592 1136 607 1124 z "},"ẅ":{"ha":1818,"x_min":0,"x_max":0,"o":"m 1018 1015 l 800 1015 l 800 174 l 438 174 b 331 272 367 174 331 206 l 331 1015 l 103 1015 l 103 219 b 349 0 103 74 185 0 l 1468 0 b 1715 219 1632 0 1715 74 l 1715 1015 l 1486 1015 l 1486 272 b 1379 174 1486 206 1450 174 l 1018 174 z m 1176 1124 b 1224 1164 1207 1124 1224 1136 l 1224 1235 b 1176 1276 1224 1264 1207 1276 l 1078 1276 b 1033 1235 1049 1276 1033 1264 l 1033 1164 b 1078 1124 1033 1136 1049 1124 z m 735 1124 b 782 1164 765 1124 782 1136 l 782 1235 b 735 1276 782 1264 765 1276 l 636 1276 b 592 1235 607 1276 592 1264 l 592 1164 b 636 1124 592 1136 607 1124 z "},"Ẓ":{"ha":1319,"x_min":0,"x_max":0,"o":"m 78 842 l 1001 842 l 132 239 b 78 157 96 219 78 190 l 78 94 b 215 0 78 32 122 0 l 1243 0 l 1243 174 l 329 174 l 1188 776 b 1243 860 1224 797 1243 826 l 1243 921 b 1106 1015 1243 983 1197 1015 l 78 1015 z m 708 -265 b 756 -225 739 -265 756 -253 l 756 -154 b 708 -112 756 -125 739 -112 l 610 -112 b 565 -154 581 -112 565 -125 l 565 -225 b 610 -265 565 -253 581 -265 z "},"ẞ":{"ha":1460,"x_min":0,"x_max":0,"o":"m 1049 510 b 1165 396 1132 510 1165 471 l 1165 285 b 1049 174 1165 210 1126 174 l 508 174 l 508 0 l 1114 0 b 1388 247 1297 0 1388 82 l 1388 401 b 1114 650 1388 567 1313 650 l 993 650 l 1185 786 b 1258 886 1238 824 1258 844 l 1258 924 b 1139 1015 1258 983 1219 1015 l 349 1015 b 103 796 185 1015 103 942 l 103 0 l 335 0 l 335 751 b 440 851 335 818 371 851 l 1021 851 l 760 679 b 726 617 733 661 726 647 l 726 583 b 825 510 726 535 758 510 z "},"Ạ":{"ha":1446,"x_min":0,"x_max":0,"o":"m 349 1015 b 103 796 185 1015 103 942 l 103 0 l 335 0 l 335 343 l 1113 343 l 1113 0 l 1344 0 l 1344 796 b 1097 1015 1344 942 1261 1015 z m 335 743 b 440 842 335 808 371 842 l 1006 842 b 1113 743 1076 842 1113 808 l 1113 490 l 335 490 z m 771 -265 b 818 -225 801 -265 818 -253 l 818 -154 b 771 -112 818 -125 801 -112 l 672 -112 b 628 -154 643 -112 628 -125 l 628 -225 b 672 -265 628 -253 643 -265 z "},"Ả":{"ha":1446,"x_min":0,"x_max":0,"o":"m 349 1015 b 103 796 185 1015 103 942 l 103 0 l 335 0 l 335 343 l 1113 343 l 1113 0 l 1344 0 l 1344 796 b 1097 1015 1344 942 1261 1015 z m 335 743 b 440 842 335 808 371 842 l 1006 842 b 1113 743 1076 842 1113 808 l 1113 490 l 335 490 z m 701 1160 b 632 1085 657 1160 632 1135 l 632 1024 l 715 1024 l 715 1072 b 735 1092 715 1086 721 1092 l 865 1092 b 975 1193 939 1092 975 1125 l 975 1217 b 865 1322 975 1288 939 1322 l 583 1322 l 583 1247 l 840 1247 b 879 1213 867 1247 879 1238 l 879 1193 b 840 1160 879 1169 867 1160 z "},"Ấ":{"ha":1446,"x_min":0,"x_max":0,"o":"m 349 1015 b 103 796 185 1015 103 942 l 103 0 l 335 0 l 335 343 l 1113 343 l 1113 0 l 1344 0 l 1344 796 b 1097 1015 1344 942 1261 1015 z m 335 743 b 440 842 335 808 371 842 l 1006 842 b 1113 743 1076 842 1113 808 l 1113 490 l 335 490 z m 428 1057 l 572 1057 l 725 1258 l 876 1057 l 1021 1057 l 840 1322 l 607 1322 z m 983 1196 l 1129 1196 l 1303 1461 l 1114 1461 z "},"Ầ":{"ha":1446,"x_min":0,"x_max":0,"o":"m 349 1015 b 103 796 185 1015 103 942 l 103 0 l 335 0 l 335 343 l 1113 343 l 1113 0 l 1344 0 l 1344 796 b 1097 1015 1344 942 1261 1015 z m 335 743 b 440 842 335 808 371 842 l 1006 842 b 1113 743 1076 842 1113 808 l 1113 490 l 335 490 z m 428 1057 l 572 1057 l 725 1258 l 876 1057 l 1021 1057 l 840 1322 l 607 1322 z m 1110 1461 l 921 1461 l 1096 1196 l 1240 1196 z "},"Ẩ":{"ha":1446,"x_min":0,"x_max":0,"o":"m 349 1015 b 103 796 185 1015 103 942 l 103 0 l 335 0 l 335 343 l 1113 343 l 1113 0 l 1344 0 l 1344 796 b 1097 1015 1344 942 1261 1015 z m 335 743 b 440 842 335 808 371 842 l 1006 842 b 1113 743 1076 842 1113 808 l 1113 490 l 335 490 z m 413 1057 l 557 1057 l 710 1258 l 861 1057 l 1006 1057 l 825 1322 l 592 1322 z m 1096 1257 b 1026 1182 1051 1257 1026 1232 l 1026 1121 l 1110 1121 l 1110 1169 b 1129 1189 1110 1183 1115 1189 l 1260 1189 b 1369 1290 1333 1189 1369 1222 l 1369 1314 b 1260 1419 1369 1385 1333 1419 l 978 1419 l 978 1344 l 1235 1344 b 1274 1310 1261 1344 1274 1335 l 1274 1290 b 1235 1257 1274 1267 1261 1257 z "},"Ẫ":{"ha":1446,"x_min":0,"x_max":0,"o":"m 349 1015 b 103 796 185 1015 103 942 l 103 0 l 335 0 l 335 343 l 1113 343 l 1113 0 l 1344 0 l 1344 796 b 1097 1015 1344 942 1261 1015 z m 335 743 b 440 842 335 808 371 842 l 1006 842 b 1113 743 1076 842 1113 808 l 1113 490 l 335 490 z m 426 1057 l 571 1057 l 724 1258 l 875 1057 l 1019 1057 l 839 1322 l 606 1322 z m 1107 1367 l 1107 1469 l 338 1469 l 338 1367 z "},"Ậ":{"ha":1446,"x_min":0,"x_max":0,"o":"m 349 1015 b 103 796 185 1015 103 942 l 103 0 l 335 0 l 335 343 l 1113 343 l 1113 0 l 1344 0 l 1344 796 b 1097 1015 1344 942 1261 1015 z m 335 743 b 440 842 335 808 371 842 l 1006 842 b 1113 743 1076 842 1113 808 l 1113 490 l 335 490 z m 426 1057 l 571 1057 l 724 1258 l 875 1057 l 1019 1057 l 839 1322 l 606 1322 z m 771 -265 b 818 -225 801 -265 818 -253 l 818 -154 b 771 -112 818 -125 801 -112 l 672 -112 b 628 -154 643 -112 628 -125 l 628 -225 b 672 -265 628 -253 643 -265 z "},"Ắ":{"ha":1446,"x_min":0,"x_max":0,"o":"m 349 1015 b 103 796 185 1015 103 942 l 103 0 l 335 0 l 335 343 l 1113 343 l 1113 0 l 1344 0 l 1344 796 b 1097 1015 1344 942 1261 1015 z m 335 743 b 440 842 335 808 371 842 l 1006 842 b 1113 743 1076 842 1113 808 l 1113 490 l 335 490 z m 724 1029 b 1056 1294 944 1029 1056 1117 l 929 1294 b 725 1104 929 1169 865 1104 b 521 1294 585 1104 521 1169 l 394 1294 b 724 1029 394 1117 503 1029 z m 632 1231 l 778 1231 l 951 1496 l 763 1496 z "},"Ằ":{"ha":1446,"x_min":0,"x_max":0,"o":"m 349 1015 b 103 796 185 1015 103 942 l 103 0 l 335 0 l 335 343 l 1113 343 l 1113 0 l 1344 0 l 1344 796 b 1097 1015 1344 942 1261 1015 z m 335 743 b 440 842 335 808 371 842 l 1006 842 b 1113 743 1076 842 1113 808 l 1113 490 l 335 490 z m 722 1029 b 1054 1294 943 1029 1054 1117 l 928 1294 b 724 1104 928 1169 864 1104 b 519 1294 583 1104 519 1169 l 393 1294 b 722 1029 393 1117 501 1029 z m 686 1496 l 497 1496 l 672 1231 l 817 1231 z "},"Ẳ":{"ha":1446,"x_min":0,"x_max":0,"o":"m 349 1015 b 103 796 185 1015 103 942 l 103 0 l 335 0 l 335 343 l 1113 343 l 1113 0 l 1344 0 l 1344 796 b 1097 1015 1344 942 1261 1015 z m 335 743 b 440 842 335 808 371 842 l 1006 842 b 1113 743 1076 842 1113 808 l 1113 490 l 335 490 z m 722 1029 b 1054 1294 943 1029 1054 1117 l 928 1294 b 724 1104 928 1169 864 1104 b 519 1294 583 1104 519 1169 l 393 1294 b 722 1029 393 1117 501 1029 z m 699 1354 b 629 1279 654 1354 629 1329 l 629 1218 l 713 1218 l 713 1267 b 732 1286 713 1281 718 1286 l 863 1286 b 972 1388 936 1286 972 1319 l 972 1411 b 863 1517 972 1482 936 1517 l 581 1517 l 581 1442 l 838 1442 b 876 1407 864 1442 876 1432 l 876 1388 b 838 1354 876 1364 864 1354 z "},"Ẵ":{"ha":1446,"x_min":0,"x_max":0,"o":"m 349 1015 b 103 796 185 1015 103 942 l 103 0 l 335 0 l 335 343 l 1113 343 l 1113 0 l 1344 0 l 1344 796 b 1097 1015 1344 942 1261 1015 z m 335 743 b 440 842 335 808 371 842 l 1006 842 b 1113 743 1076 842 1113 808 l 1113 490 l 335 490 z m 722 1042 b 1054 1307 943 1042 1054 1129 l 928 1307 b 724 1117 928 1182 864 1117 b 519 1307 583 1117 519 1182 l 393 1307 b 722 1042 393 1129 501 1042 z m 1107 1350 l 1107 1453 l 338 1453 l 338 1350 z "},"Ặ":{"ha":1446,"x_min":0,"x_max":0,"o":"m 349 1015 b 103 796 185 1015 103 942 l 103 0 l 335 0 l 335 343 l 1113 343 l 1113 0 l 1344 0 l 1344 796 b 1097 1015 1344 942 1261 1015 z m 335 743 b 440 842 335 808 371 842 l 1006 842 b 1113 743 1076 842 1113 808 l 1113 490 l 335 490 z m 722 1057 b 1054 1322 943 1057 1054 1144 l 928 1322 b 724 1132 928 1197 864 1132 b 519 1322 583 1132 519 1197 l 393 1322 b 722 1057 393 1144 501 1057 z m 771 -265 b 818 -225 801 -265 818 -253 l 818 -154 b 771 -112 818 -125 801 -112 l 672 -112 b 628 -154 643 -112 628 -125 l 628 -225 b 672 -265 628 -253 643 -265 z "},"Ẹ":{"ha":1356,"x_min":0,"x_max":0,"o":"m 338 842 l 1281 842 l 1281 1015 l 106 1015 l 106 0 l 1281 0 l 1281 174 l 338 174 l 338 503 l 1083 503 l 1083 650 l 338 650 z m 749 -265 b 796 -225 779 -265 796 -253 l 796 -154 b 749 -112 796 -125 779 -112 l 650 -112 b 606 -154 621 -112 606 -125 l 606 -225 b 650 -265 606 -253 621 -265 z "},"Ẻ":{"ha":1356,"x_min":0,"x_max":0,"o":"m 338 842 l 1281 842 l 1281 1015 l 106 1015 l 106 0 l 1281 0 l 1281 174 l 338 174 l 338 503 l 1083 503 l 1083 650 l 338 650 z m 647 1160 b 578 1085 603 1160 578 1135 l 578 1024 l 661 1024 l 661 1072 b 681 1092 661 1086 667 1092 l 811 1092 b 921 1193 885 1092 921 1125 l 921 1217 b 811 1322 921 1288 885 1322 l 529 1322 l 529 1247 l 786 1247 b 825 1213 813 1247 825 1238 l 825 1193 b 786 1160 825 1169 813 1160 z "},"Ē":{"ha":1356,"x_min":0,"x_max":0,"o":"m 338 842 l 1281 842 l 1281 1015 l 106 1015 l 106 0 l 1281 0 l 1281 174 l 338 174 l 338 503 l 1083 503 l 1083 650 l 338 650 z m 1086 1149 l 1086 1251 l 317 1251 l 317 1149 z "},"ē":{"ha":1356,"x_min":0,"x_max":0,"o":"m 338 842 l 1281 842 l 1281 1015 l 106 1015 l 106 0 l 1281 0 l 1281 174 l 338 174 l 338 503 l 1083 503 l 1083 650 l 338 650 z m 1086 1149 l 1086 1251 l 317 1251 l 317 1149 z "},"Ẽ":{"ha":1356,"x_min":0,"x_max":0,"o":"m 338 842 l 1281 842 l 1281 1015 l 106 1015 l 106 0 l 1281 0 l 1281 174 l 338 174 l 338 503 l 1083 503 l 1083 650 l 338 650 z m 1086 1149 l 1086 1251 l 317 1251 l 317 1149 z "},"Ế":{"ha":1356,"x_min":0,"x_max":0,"o":"m 338 842 l 1281 842 l 1281 1015 l 106 1015 l 106 0 l 1281 0 l 1281 174 l 338 174 l 338 503 l 1083 503 l 1083 650 l 338 650 z m 374 1057 l 518 1057 l 671 1258 l 822 1057 l 967 1057 l 786 1322 l 553 1322 z m 931 1196 l 1076 1196 l 1250 1461 l 1061 1461 z "},"Ề":{"ha":1356,"x_min":0,"x_max":0,"o":"m 338 842 l 1281 842 l 1281 1015 l 106 1015 l 106 0 l 1281 0 l 1281 174 l 338 174 l 338 503 l 1083 503 l 1083 650 l 338 650 z m 404 1057 l 549 1057 l 701 1258 l 853 1057 l 997 1057 l 817 1322 l 583 1322 z m 1086 1461 l 897 1461 l 1072 1196 l 1217 1196 z "},"Ể":{"ha":1356,"x_min":0,"x_max":0,"o":"m 338 842 l 1281 842 l 1281 1015 l 106 1015 l 106 0 l 1281 0 l 1281 174 l 338 174 l 338 503 l 1083 503 l 1083 650 l 338 650 z m 349 1057 l 493 1057 l 646 1258 l 797 1057 l 942 1057 l 761 1322 l 528 1322 z m 1032 1257 b 963 1182 988 1257 963 1232 l 963 1121 l 1046 1121 l 1046 1169 b 1065 1189 1046 1183 1051 1189 l 1196 1189 b 1306 1290 1269 1189 1306 1222 l 1306 1314 b 1196 1419 1306 1385 1269 1419 l 914 1419 l 914 1344 l 1171 1344 b 1210 1310 1197 1344 1210 1335 l 1210 1290 b 1171 1257 1210 1267 1197 1257 z "},"Ễ":{"ha":1356,"x_min":0,"x_max":0,"o":"m 338 842 l 1281 842 l 1281 1015 l 106 1015 l 106 0 l 1281 0 l 1281 174 l 338 174 l 338 503 l 1083 503 l 1083 650 l 338 650 z m 404 1057 l 549 1057 l 701 1258 l 853 1057 l 997 1057 l 817 1322 l 583 1322 z m 1086 1382 l 1086 1485 l 317 1485 l 317 1382 z "},"Ệ":{"ha":1356,"x_min":0,"x_max":0,"o":"m 338 842 l 1281 842 l 1281 1015 l 106 1015 l 106 0 l 1281 0 l 1281 174 l 338 174 l 338 503 l 1083 503 l 1083 650 l 338 650 z m 404 1057 l 549 1057 l 701 1258 l 853 1057 l 997 1057 l 817 1322 l 583 1322 z m 749 -265 b 796 -225 779 -265 796 -253 l 796 -154 b 749 -112 796 -125 779 -112 l 650 -112 b 606 -154 621 -112 606 -125 l 606 -225 b 650 -265 606 -253 621 -265 z "},"Ỉ":{"ha":431,"x_min":0,"x_max":0,"o":"m 331 1015 l 99 1015 l 99 0 l 331 0 z m 214 1160 b 144 1085 169 1160 144 1135 l 144 1024 l 228 1024 l 228 1072 b 247 1092 228 1086 233 1092 l 378 1092 b 488 1193 451 1092 488 1125 l 488 1217 b 378 1322 488 1288 451 1322 l 96 1322 l 96 1247 l 353 1247 b 392 1213 379 1247 392 1238 l 392 1193 b 353 1160 392 1169 379 1160 z "},"Ị":{"ha":443,"x_min":0,"x_max":0,"o":"m 338 1015 l 106 1015 l 106 0 l 338 0 z m 269 -265 b 317 -225 300 -265 317 -253 l 317 -154 b 269 -112 317 -125 300 -112 l 171 -112 b 126 -154 142 -112 126 -125 l 126 -225 b 171 -265 126 -253 142 -265 z "},"Ọ":{"ha":1433,"x_min":0,"x_max":0,"o":"m 985 842 b 1103 731 1064 842 1103 806 l 1103 285 b 985 174 1103 210 1064 174 l 447 174 b 329 285 368 174 329 211 l 329 731 b 447 842 329 806 368 842 z m 1061 0 b 1335 247 1244 0 1335 82 l 1335 768 b 1061 1015 1335 933 1244 1015 l 371 1015 b 97 768 188 1015 97 933 l 97 247 b 371 0 97 82 188 0 z m 764 -265 b 811 -225 794 -265 811 -253 l 811 -154 b 764 -112 811 -125 794 -112 l 665 -112 b 621 -154 636 -112 621 -125 l 621 -225 b 665 -265 621 -253 636 -265 z "},"Ỏ":{"ha":1433,"x_min":0,"x_max":0,"o":"m 985 842 b 1103 731 1064 842 1103 806 l 1103 285 b 985 174 1103 210 1064 174 l 447 174 b 329 285 368 174 329 211 l 329 731 b 447 842 329 806 368 842 z m 1061 0 b 1335 247 1244 0 1335 82 l 1335 768 b 1061 1015 1335 933 1244 1015 l 371 1015 b 97 768 188 1015 97 933 l 97 247 b 371 0 97 82 188 0 z m 678 1160 b 608 1085 633 1160 608 1135 l 608 1024 l 692 1024 l 692 1072 b 711 1092 692 1086 697 1092 l 842 1092 b 951 1193 915 1092 951 1125 l 951 1217 b 842 1322 951 1288 915 1322 l 560 1322 l 560 1247 l 817 1247 b 856 1213 843 1247 856 1238 l 856 1193 b 817 1160 856 1169 843 1160 z "},"Ố":{"ha":1433,"x_min":0,"x_max":0,"o":"m 985 842 b 1103 731 1064 842 1103 806 l 1103 285 b 985 174 1103 210 1064 174 l 447 174 b 329 285 368 174 329 211 l 329 731 b 447 842 329 806 368 842 z m 1061 0 b 1335 247 1244 0 1335 82 l 1335 768 b 1061 1015 1335 933 1244 1015 l 371 1015 b 97 768 188 1015 97 933 l 97 247 b 371 0 97 82 188 0 z m 419 1057 l 564 1057 l 717 1258 l 868 1057 l 1013 1057 l 832 1322 l 599 1322 z m 978 1196 l 1124 1196 l 1297 1461 l 1108 1461 z "},"Ồ":{"ha":1433,"x_min":0,"x_max":0,"o":"m 985 842 b 1103 731 1064 842 1103 806 l 1103 285 b 985 174 1103 210 1064 174 l 447 174 b 329 285 368 174 329 211 l 329 731 b 447 842 329 806 368 842 z m 1061 0 b 1335 247 1244 0 1335 82 l 1335 768 b 1061 1015 1335 933 1244 1015 l 371 1015 b 97 768 188 1015 97 933 l 97 247 b 371 0 97 82 188 0 z m 418 1057 l 563 1057 l 715 1258 l 867 1057 l 1011 1057 l 831 1322 l 597 1322 z m 1099 1461 l 910 1461 l 1085 1196 l 1229 1196 z "},"Ổ":{"ha":1433,"x_min":0,"x_max":0,"o":"m 985 842 b 1103 731 1064 842 1103 806 l 1103 285 b 985 174 1103 210 1064 174 l 447 174 b 329 285 368 174 329 211 l 329 731 b 447 842 329 806 368 842 z m 1061 0 b 1335 247 1244 0 1335 82 l 1335 768 b 1061 1015 1335 933 1244 1015 l 371 1015 b 97 768 188 1015 97 933 l 97 247 b 371 0 97 82 188 0 z m 403 1057 l 547 1057 l 700 1258 l 851 1057 l 996 1057 l 815 1322 l 582 1322 z m 1083 1257 b 1014 1182 1039 1257 1014 1232 l 1014 1121 l 1097 1121 l 1097 1169 b 1117 1189 1097 1183 1103 1189 l 1247 1189 b 1357 1290 1321 1189 1357 1222 l 1357 1314 b 1247 1419 1357 1385 1321 1419 l 965 1419 l 965 1344 l 1222 1344 b 1261 1310 1249 1344 1261 1335 l 1261 1290 b 1222 1257 1261 1267 1249 1257 z "},"Ỗ":{"ha":1433,"x_min":0,"x_max":0,"o":"m 985 842 b 1103 731 1064 842 1103 806 l 1103 285 b 985 174 1103 210 1064 174 l 447 174 b 329 285 368 174 329 211 l 329 731 b 447 842 329 806 368 842 z m 1061 0 b 1335 247 1244 0 1335 82 l 1335 768 b 1061 1015 1335 933 1244 1015 l 371 1015 b 97 768 188 1015 97 933 l 97 247 b 371 0 97 82 188 0 z m 419 1057 l 564 1057 l 717 1258 l 868 1057 l 1013 1057 l 832 1322 l 599 1322 z m 1100 1367 l 1100 1469 l 331 1469 l 331 1367 z "},"Ộ":{"ha":1433,"x_min":0,"x_max":0,"o":"m 985 842 b 1103 731 1064 842 1103 806 l 1103 285 b 985 174 1103 210 1064 174 l 447 174 b 329 285 368 174 329 211 l 329 731 b 447 842 329 806 368 842 z m 1061 0 b 1335 247 1244 0 1335 82 l 1335 768 b 1061 1015 1335 933 1244 1015 l 371 1015 b 97 768 188 1015 97 933 l 97 247 b 371 0 97 82 188 0 z m 419 1057 l 564 1057 l 717 1258 l 868 1057 l 1013 1057 l 832 1322 l 599 1322 z m 764 -265 b 811 -225 794 -265 811 -253 l 811 -154 b 764 -112 811 -125 794 -112 l 665 -112 b 621 -154 636 -112 621 -125 l 621 -225 b 665 -265 621 -253 636 -265 z "},"Ớ":{"ha":1519,"x_min":0,"x_max":0,"o":"m 1061 0 b 1335 247 1244 0 1335 82 l 1335 768 b 1294 921 1335 831 1321 882 b 1519 1090 1460 921 1519 978 l 1519 1229 l 1376 1229 l 1376 1094 b 1301 1015 1376 1042 1353 1015 l 371 1015 b 97 768 188 1015 97 933 l 97 247 b 371 0 97 82 188 0 z m 985 842 b 1103 731 1064 842 1103 806 l 1103 285 b 985 174 1103 210 1064 174 l 447 174 b 329 285 368 174 329 210 l 329 731 b 447 842 329 806 368 842 z m 597 1057 l 743 1057 l 917 1322 l 728 1322 z "},"Ờ":{"ha":1519,"x_min":0,"x_max":0,"o":"m 1061 0 b 1335 247 1244 0 1335 82 l 1335 768 b 1294 921 1335 831 1321 882 b 1519 1090 1460 921 1519 978 l 1519 1229 l 1376 1229 l 1376 1094 b 1301 1015 1376 1042 1353 1015 l 371 1015 b 97 768 188 1015 97 933 l 97 247 b 371 0 97 82 188 0 z m 985 842 b 1103 731 1064 842 1103 806 l 1103 285 b 985 174 1103 210 1064 174 l 447 174 b 329 285 368 174 329 210 l 329 731 b 447 842 329 806 368 842 z m 706 1322 l 517 1322 l 692 1057 l 836 1057 z "},"Ở":{"ha":1519,"x_min":0,"x_max":0,"o":"m 1061 0 b 1335 247 1244 0 1335 82 l 1335 768 b 1294 921 1335 831 1321 882 b 1519 1090 1460 921 1519 978 l 1519 1229 l 1376 1229 l 1376 1094 b 1301 1015 1376 1042 1353 1015 l 371 1015 b 97 768 188 1015 97 933 l 97 247 b 371 0 97 82 188 0 z m 985 842 b 1103 731 1064 842 1103 806 l 1103 285 b 985 174 1103 210 1064 174 l 447 174 b 329 285 368 174 329 210 l 329 731 b 447 842 329 806 368 842 z m 664 1160 b 594 1085 619 1160 594 1135 l 594 1024 l 678 1024 l 678 1072 b 697 1092 678 1086 683 1092 l 828 1092 b 938 1193 901 1092 938 1125 l 938 1217 b 828 1322 938 1288 901 1322 l 546 1322 l 546 1247 l 803 1247 b 842 1213 829 1247 842 1238 l 842 1193 b 803 1160 842 1169 829 1160 z "},"Ỡ":{"ha":1519,"x_min":0,"x_max":0,"o":"m 1061 0 b 1335 247 1244 0 1335 82 l 1335 768 b 1294 921 1335 831 1321 882 b 1519 1090 1460 921 1519 978 l 1519 1229 l 1376 1229 l 1376 1094 b 1301 1015 1376 1042 1353 1015 l 371 1015 b 97 768 188 1015 97 933 l 97 247 b 371 0 97 82 188 0 z m 985 842 b 1103 731 1064 842 1103 806 l 1103 285 b 985 174 1103 210 1064 174 l 447 174 b 329 285 368 174 329 210 l 329 731 b 447 842 329 806 368 842 z m 1103 1149 l 1103 1251 l 333 1251 l 333 1149 z "},"Ợ":{"ha":1519,"x_min":0,"x_max":0,"o":"m 1061 0 b 1335 247 1244 0 1335 82 l 1335 768 b 1294 921 1335 831 1321 882 b 1519 1090 1460 921 1519 978 l 1519 1229 l 1376 1229 l 1376 1094 b 1301 1015 1376 1042 1353 1015 l 371 1015 b 97 768 188 1015 97 933 l 97 247 b 371 0 97 82 188 0 z m 985 842 b 1103 731 1064 842 1103 806 l 1103 285 b 985 174 1103 210 1064 174 l 447 174 b 329 285 368 174 329 210 l 329 731 b 447 842 329 806 368 842 z m 767 -265 b 814 -225 797 -265 814 -253 l 814 -154 b 767 -112 814 -125 797 -112 l 668 -112 b 624 -154 639 -112 624 -125 l 624 -225 b 668 -265 624 -253 639 -265 z "},"Ụ":{"ha":1428,"x_min":0,"x_max":0,"o":"m 1078 0 b 1324 219 1243 0 1324 72 l 1324 1015 l 1092 1015 l 1092 272 b 986 174 1092 206 1057 174 l 440 174 b 335 272 371 174 335 206 l 335 1015 l 103 1015 l 103 219 b 349 0 103 72 185 0 z m 763 -265 b 810 -225 793 -265 810 -253 l 810 -154 b 763 -112 810 -125 793 -112 l 664 -112 b 619 -154 635 -112 619 -125 l 619 -225 b 664 -265 619 -253 635 -265 z "},"Ủ":{"ha":1428,"x_min":0,"x_max":0,"o":"m 1078 0 b 1324 219 1243 0 1324 72 l 1324 1015 l 1092 1015 l 1092 272 b 986 174 1092 206 1057 174 l 440 174 b 335 272 371 174 335 206 l 335 1015 l 103 1015 l 103 219 b 349 0 103 72 185 0 z m 660 1160 b 590 1085 615 1160 590 1135 l 590 1024 l 674 1024 l 674 1072 b 693 1092 674 1086 679 1092 l 824 1092 b 933 1193 897 1092 933 1125 l 933 1217 b 824 1322 933 1288 897 1322 l 542 1322 l 542 1247 l 799 1247 b 838 1213 825 1247 838 1238 l 838 1193 b 799 1160 838 1169 825 1160 z "},"Ứ":{"ha":1614,"x_min":0,"x_max":0,"o":"m 601 1057 l 747 1057 l 921 1322 l 732 1322 z m 1078 0 b 1324 219 1243 0 1324 72 l 1324 921 l 1436 921 b 1614 1090 1554 921 1614 978 l 1614 1229 l 1471 1229 l 1471 1094 b 1396 1015 1471 1042 1446 1015 l 1092 1015 l 1092 272 b 986 174 1092 206 1057 174 l 440 174 b 335 272 371 174 335 206 l 335 1015 l 103 1015 l 103 219 b 349 0 103 72 185 0 z "},"Ừ":{"ha":1614,"x_min":0,"x_max":0,"o":"m 710 1322 l 521 1322 l 696 1057 l 840 1057 z m 1078 0 b 1324 219 1243 0 1324 72 l 1324 921 l 1436 921 b 1614 1090 1554 921 1614 978 l 1614 1229 l 1471 1229 l 1471 1094 b 1396 1015 1471 1042 1446 1015 l 1092 1015 l 1092 272 b 986 174 1092 206 1057 174 l 440 174 b 335 272 371 174 335 206 l 335 1015 l 103 1015 l 103 219 b 349 0 103 72 185 0 z "},"Ử":{"ha":1614,"x_min":0,"x_max":0,"o":"m 697 1160 b 628 1085 653 1160 628 1135 l 628 1024 l 711 1024 l 711 1072 b 731 1092 711 1086 717 1092 l 861 1092 b 971 1193 935 1092 971 1125 l 971 1217 b 861 1322 971 1288 935 1322 l 579 1322 l 579 1247 l 836 1247 b 875 1213 863 1247 875 1238 l 875 1193 b 836 1160 875 1169 863 1160 z m 1078 0 b 1324 219 1243 0 1324 72 l 1324 921 l 1436 921 b 1614 1090 1554 921 1614 978 l 1614 1229 l 1471 1229 l 1471 1094 b 1396 1015 1471 1042 1446 1015 l 1092 1015 l 1092 272 b 986 174 1092 206 1057 174 l 440 174 b 335 272 371 174 335 206 l 335 1015 l 103 1015 l 103 219 b 349 0 103 72 185 0 z "},"Ữ":{"ha":1614,"x_min":0,"x_max":0,"o":"m 1101 1149 l 1101 1251 l 332 1251 l 332 1149 z m 1078 0 b 1324 219 1243 0 1324 72 l 1324 921 l 1436 921 b 1614 1090 1554 921 1614 978 l 1614 1229 l 1471 1229 l 1471 1094 b 1396 1015 1471 1042 1446 1015 l 1092 1015 l 1092 272 b 986 174 1092 206 1057 174 l 440 174 b 335 272 371 174 335 206 l 335 1015 l 103 1015 l 103 219 b 349 0 103 72 185 0 z "},"Ự":{"ha":1614,"x_min":0,"x_max":0,"o":"m 768 -265 b 815 -225 799 -265 815 -253 l 815 -154 b 768 -112 815 -125 799 -112 l 669 -112 b 625 -154 640 -112 625 -125 l 625 -225 b 669 -265 625 -253 640 -265 z m 1078 0 b 1324 219 1243 0 1324 72 l 1324 921 l 1436 921 b 1614 1090 1554 921 1614 978 l 1614 1229 l 1471 1229 l 1471 1094 b 1396 1015 1471 1042 1446 1015 l 1092 1015 l 1092 272 b 986 174 1092 206 1057 174 l 440 174 b 335 272 371 174 335 206 l 335 1015 l 103 1015 l 103 219 b 349 0 103 72 185 0 z "},"Ỳ":{"ha":1428,"x_min":0,"x_max":0,"o":"m 324 1015 l 90 1015 l 90 590 b 338 371 90 444 174 371 l 1093 371 l 1093 272 b 988 174 1093 206 1058 174 l 206 174 l 206 0 l 1079 0 b 1325 219 1243 0 1325 74 l 1325 1015 l 1093 1015 l 1093 519 l 429 519 b 324 619 358 519 324 553 z m 703 1322 l 514 1322 l 689 1057 l 833 1057 z "},"ỳ":{"ha":1428,"x_min":0,"x_max":0,"o":"m 324 1015 l 90 1015 l 90 590 b 338 371 90 444 174 371 l 1093 371 l 1093 272 b 988 174 1093 206 1058 174 l 206 174 l 206 0 l 1079 0 b 1325 219 1243 0 1325 74 l 1325 1015 l 1093 1015 l 1093 519 l 429 519 b 324 619 358 519 324 553 z m 703 1322 l 514 1322 l 689 1057 l 833 1057 z "},"Ỷ":{"ha":1428,"x_min":0,"x_max":0,"o":"m 324 1015 l 90 1015 l 90 590 b 338 371 90 444 174 371 l 1093 371 l 1093 272 b 988 174 1093 206 1058 174 l 206 174 l 206 0 l 1079 0 b 1325 219 1243 0 1325 74 l 1325 1015 l 1093 1015 l 1093 519 l 429 519 b 324 619 358 519 324 553 z m 658 1160 b 589 1085 614 1160 589 1135 l 589 1024 l 672 1024 l 672 1072 b 692 1092 672 1086 678 1092 l 822 1092 b 932 1193 896 1092 932 1125 l 932 1217 b 822 1322 932 1288 896 1322 l 540 1322 l 540 1247 l 797 1247 b 836 1213 824 1247 836 1238 l 836 1193 b 797 1160 836 1169 824 1160 z "},"–":{"ha":1201,"x_min":0,"x_max":0,"o":"m 49 461 l 1154 461 l 1154 594 l 49 594 z "},"—":{"ha":1696,"x_min":0,"x_max":0,"o":"m 0 461 l 1706 461 l 1706 594 l 0 594 z "},"‘":{"ha":393,"x_min":0,"x_max":0,"o":"m 250 1017 l 131 1017 l 88 672 b 85 640 85 658 85 649 b 142 592 85 607 104 592 l 256 592 b 308 638 292 592 308 607 l 308 724 b 256 771 308 754 292 771 l 226 771 z "},"’":{"ha":393,"x_min":0,"x_max":0,"o":"m 143 592 l 263 592 l 306 935 b 308 968 308 949 308 958 b 251 1017 308 1000 289 1017 l 138 1017 b 85 969 101 1017 85 1001 l 85 883 b 138 838 85 853 101 838 l 167 838 z "},"“":{"ha":724,"x_min":0,"x_max":0,"o":"m 581 1017 l 461 1017 l 418 672 b 415 640 415 658 415 649 b 472 592 415 607 435 592 l 586 592 b 639 638 622 592 639 607 l 639 724 b 586 771 639 754 622 771 l 557 771 z m 250 1017 l 131 1017 l 88 672 b 85 640 85 658 85 649 b 142 592 85 607 104 592 l 256 592 b 308 638 292 592 308 607 l 308 724 b 256 771 308 754 292 771 l 226 771 z "},"”":{"ha":724,"x_min":0,"x_max":0,"o":"m 143 592 l 263 592 l 306 935 b 308 968 308 949 308 958 b 251 1017 308 1000 289 1017 l 138 1017 b 85 969 101 1017 85 1001 l 85 883 b 138 838 85 853 101 838 l 167 838 z m 474 592 l 593 592 l 636 935 b 639 968 639 949 639 958 b 582 1017 639 1000 619 1017 l 468 1017 b 415 969 432 1017 415 1001 l 415 883 b 468 838 415 853 432 838 l 497 838 z "},"„":{"ha":724,"x_min":0,"x_max":0,"o":"m 143 -246 l 263 -246 l 306 97 b 308 131 308 111 308 121 b 251 179 308 163 289 179 l 138 179 b 85 132 101 179 85 164 l 85 46 b 138 0 85 15 101 0 l 167 0 z m 474 -246 l 593 -246 l 636 97 b 639 131 639 111 639 121 b 582 179 639 163 619 179 l 468 179 b 415 132 432 179 415 164 l 415 46 b 468 0 415 15 432 0 l 497 0 z "},"†":{"ha":810,"x_min":0,"x_max":0,"o":"m 424 -137 l 442 646 l 724 617 l 724 747 l 442 721 l 457 1015 l 347 1015 l 361 721 l 79 747 l 79 618 l 361 646 l 381 -137 z "},"‡":{"ha":810,"x_min":0,"x_max":0,"o":"m 442 646 l 724 617 l 724 747 l 442 721 l 457 1015 l 347 1015 l 361 721 l 79 747 l 79 618 l 361 646 l 382 439 l 361 231 l 79 258 l 79 129 l 361 156 l 347 -139 l 457 -139 l 442 156 l 724 129 l 724 260 l 442 231 l 422 439 z "},"•":{"ha":635,"x_min":0,"x_max":0,"o":"m 435 339 b 528 421 496 339 528 367 l 528 593 b 435 676 528 649 496 676 l 199 676 b 107 593 138 676 107 649 l 107 421 b 199 339 107 367 138 339 z "},"…":{"ha":1174,"x_min":0,"x_max":0,"o":"m 254 0 b 308 47 290 0 308 15 l 308 131 b 254 179 308 164 290 179 l 139 179 b 85 131 103 179 85 164 l 85 47 b 139 0 85 15 103 0 z m 644 0 b 699 47 681 0 699 15 l 699 131 b 644 179 699 164 681 179 l 529 179 b 475 131 493 179 475 164 l 475 47 b 529 0 475 15 493 0 z m 1035 0 b 1089 47 1071 0 1089 15 l 1089 131 b 1035 179 1089 164 1071 179 l 919 179 b 865 131 883 179 865 164 l 865 47 b 919 0 865 15 883 0 z "},"‰":{"ha":2108,"x_min":0,"x_max":0,"o":"m 507 1056 b 560 1007 542 1056 560 1040 l 560 746 b 507 697 560 713 542 697 l 226 697 b 174 746 192 697 174 713 l 174 1007 b 226 1056 174 1040 190 1056 z m 556 596 b 692 717 646 596 692 636 l 692 1033 b 556 1154 692 1114 646 1154 l 178 1154 b 42 1033 86 1154 42 1114 l 42 717 b 178 596 42 636 86 596 z m 417 0 l 1108 1015 l 992 1015 l 297 0 z m 1178 321 b 1231 272 1213 321 1231 306 l 1231 11 b 1178 -37 1231 -22 1213 -37 l 897 -37 b 844 11 863 -37 844 -22 l 844 272 b 897 321 844 306 861 321 z m 1226 -139 b 1363 -18 1317 -139 1363 -99 l 1363 299 b 1226 419 1363 379 1317 419 l 849 419 b 713 299 757 419 713 379 l 713 -18 b 849 -139 713 -99 757 -139 z m 1881 321 b 1933 272 1915 321 1933 306 l 1933 11 b 1881 -37 1933 -22 1915 -37 l 1600 -37 b 1547 11 1565 -37 1547 -22 l 1547 272 b 1600 321 1547 306 1564 321 z m 1929 -139 b 2065 -18 2019 -139 2065 -99 l 2065 299 b 1929 419 2065 379 2019 419 l 1551 419 b 1415 299 1460 419 1415 379 l 1415 -18 b 1551 -139 1415 -99 1460 -139 z "},"‹":{"ha":340,"x_min":0,"x_max":0,"o":"m 299 806 l 183 806 l 42 403 l 183 0 l 299 0 l 156 403 z "},"›":{"ha":339,"x_min":0,"x_max":0,"o":"m 42 0 l 154 0 l 297 403 l 154 806 l 42 806 l 183 403 z "},"⁄":{"ha":243,"x_min":0,"x_max":0,"o":"m -164 0 l 528 1015 l 411 1015 l -283 0 z "},"⁰":{"ha":818,"x_min":0,"x_max":0,"o":"m 550 917 b 603 868 585 917 603 901 l 603 607 b 550 558 603 574 585 558 l 269 558 b 217 607 235 558 217 574 l 217 868 b 269 917 217 901 233 917 z m 599 457 b 735 578 689 457 735 497 l 735 894 b 599 1015 735 975 689 1015 l 221 1015 b 85 894 129 1015 85 975 l 85 578 b 221 457 85 497 129 457 z "},"⁴":{"ha":847,"x_min":0,"x_max":0,"o":"m 718 1015 l 588 1015 l 588 719 l 263 719 b 210 768 226 719 210 735 l 210 1015 l 76 1015 l 76 744 b 211 624 76 664 121 624 l 588 624 l 588 457 l 718 457 l 718 624 l 788 624 l 788 719 l 718 719 z "},"⁵":{"ha":796,"x_min":0,"x_max":0,"o":"m 724 813 l 250 813 b 204 854 218 813 204 825 l 204 915 l 719 915 l 719 1015 l 75 1015 l 75 850 b 211 729 75 772 118 729 l 593 729 l 593 614 b 535 558 593 576 574 558 l 76 558 l 76 457 l 574 457 b 724 593 674 457 724 503 z "},"⁶":{"ha":818,"x_min":0,"x_max":0,"o":"m 613 457 b 747 578 703 457 747 497 l 747 692 b 613 814 747 774 703 814 l 217 814 l 217 865 b 269 915 217 899 233 915 l 692 915 l 692 1015 l 221 1015 b 85 894 129 1015 85 975 l 85 578 b 221 457 85 497 129 457 z m 565 728 b 618 678 601 728 618 711 l 618 606 b 565 556 618 572 601 556 l 269 556 b 217 606 233 556 217 572 l 217 728 z "},"⁷":{"ha":788,"x_min":0,"x_max":0,"o":"m 74 915 l 575 915 l 146 464 l 146 457 l 308 457 l 690 874 b 715 925 708 892 715 906 l 715 960 b 632 1015 715 997 688 1015 l 74 1015 z "},"⁸":{"ha":833,"x_min":0,"x_max":0,"o":"m 610 457 b 760 590 707 457 760 501 l 760 668 b 699 765 760 715 739 747 b 754 851 735 781 754 810 l 754 897 b 617 1015 754 975 708 1015 l 217 1015 b 79 897 125 1015 79 975 l 79 851 b 135 765 79 808 97 781 b 74 668 94 747 74 715 l 74 590 b 231 457 74 501 126 457 z m 563 729 b 629 681 606 729 629 714 l 629 607 b 563 554 629 571 606 554 l 269 554 b 204 607 226 554 204 571 l 204 681 b 269 729 204 714 226 729 z m 581 918 b 626 881 611 918 626 906 l 626 846 b 581 813 626 824 611 813 l 253 813 b 207 846 221 813 207 824 l 207 881 b 253 918 207 906 221 918 z "},"⁹":{"ha":818,"x_min":0,"x_max":0,"o":"m 206 1015 b 71 894 115 1015 71 975 l 71 800 b 206 678 71 718 115 678 l 603 678 l 603 607 b 550 558 603 574 586 558 l 132 558 l 132 457 l 599 457 b 735 578 689 457 735 497 l 735 894 b 599 1015 735 975 689 1015 z m 200 814 l 200 868 b 253 917 200 901 218 917 l 550 917 b 603 868 585 917 603 901 l 603 764 l 253 764 b 200 814 218 764 200 781 z "},"₀":{"ha":818,"x_min":0,"x_max":0,"o":"m 550 460 b 603 411 585 460 603 444 l 603 150 b 550 101 603 117 585 101 l 269 101 b 217 150 235 101 217 117 l 217 411 b 269 460 217 444 233 460 z m 599 0 b 735 121 689 0 735 40 l 735 438 b 599 558 735 518 689 558 l 221 558 b 85 438 129 558 85 518 l 85 121 b 221 0 85 40 129 0 z "},"₁":{"ha":450,"x_min":0,"x_max":0,"o":"m 229 0 l 361 0 l 361 438 b 228 558 361 518 317 558 l 58 558 l 58 458 l 176 458 b 229 408 211 458 229 442 z "},"₂":{"ha":796,"x_min":0,"x_max":0,"o":"m 225 357 b 75 221 125 357 75 311 l 75 0 l 722 0 l 722 101 l 207 101 l 207 214 b 265 271 207 251 226 271 l 590 271 b 724 385 682 271 724 308 l 724 440 b 590 558 724 515 682 558 l 94 558 l 94 458 l 550 458 b 592 419 579 458 592 444 l 592 392 b 550 357 592 367 579 357 z "},"₃":{"ha":810,"x_min":0,"x_max":0,"o":"m 89 101 l 89 0 l 579 0 b 736 135 683 0 736 44 l 736 211 b 675 308 736 258 715 290 b 731 394 711 324 731 353 l 731 440 b 593 558 731 518 685 558 l 89 558 l 89 458 l 557 458 b 604 421 588 458 604 446 l 604 390 b 557 357 604 368 588 357 l 235 357 l 235 271 l 540 271 b 606 222 583 271 606 254 l 606 154 b 540 101 606 118 583 101 z "},"₄":{"ha":847,"x_min":0,"x_max":0,"o":"m 718 558 l 588 558 l 588 263 l 263 263 b 210 311 226 263 210 278 l 210 558 l 76 558 l 76 288 b 211 167 76 207 121 167 l 588 167 l 588 0 l 718 0 l 718 167 l 788 167 l 788 263 l 718 263 z "},"₅":{"ha":796,"x_min":0,"x_max":0,"o":"m 724 356 l 250 356 b 204 397 218 356 204 368 l 204 458 l 719 458 l 719 558 l 75 558 l 75 393 b 211 272 75 315 118 272 l 593 272 l 593 157 b 535 101 593 119 574 101 l 76 101 l 76 0 l 574 0 b 724 136 674 0 724 46 z "},"₆":{"ha":818,"x_min":0,"x_max":0,"o":"m 613 0 b 747 121 703 0 747 40 l 747 235 b 613 357 747 317 703 357 l 217 357 l 217 408 b 269 458 217 442 233 458 l 692 458 l 692 558 l 221 558 b 85 438 129 558 85 518 l 85 121 b 221 0 85 40 129 0 z m 565 271 b 618 221 601 271 618 254 l 618 149 b 565 99 618 115 601 99 l 269 99 b 217 149 233 99 217 115 l 217 271 z "},"₇":{"ha":788,"x_min":0,"x_max":0,"o":"m 74 458 l 575 458 l 146 7 l 146 0 l 308 0 l 690 417 b 715 468 708 435 715 449 l 715 503 b 632 558 715 540 688 558 l 74 558 z "},"₈":{"ha":833,"x_min":0,"x_max":0,"o":"m 610 0 b 760 133 707 0 760 44 l 760 211 b 699 308 760 258 739 290 b 754 394 735 324 754 353 l 754 440 b 617 558 754 518 708 558 l 217 558 b 79 440 125 558 79 518 l 79 394 b 135 308 79 351 97 324 b 74 211 94 290 74 258 l 74 133 b 231 0 74 44 126 0 z m 563 272 b 629 224 606 272 629 257 l 629 150 b 563 97 629 114 606 97 l 269 97 b 204 150 226 97 204 114 l 204 224 b 269 272 204 257 226 272 z m 581 461 b 626 424 611 461 626 449 l 626 389 b 581 356 626 367 611 356 l 253 356 b 207 389 221 356 207 367 l 207 424 b 253 461 207 449 221 461 z "},"₉":{"ha":818,"x_min":0,"x_max":0,"o":"m 206 558 b 71 438 115 558 71 518 l 71 343 b 206 221 71 261 115 221 l 603 221 l 603 150 b 550 101 603 117 586 101 l 132 101 l 132 0 l 599 0 b 735 121 689 0 735 40 l 735 438 b 599 558 735 518 689 558 z m 200 357 l 200 411 b 253 460 200 444 218 460 l 550 460 b 603 411 585 460 603 444 l 603 307 l 253 307 b 200 357 218 307 200 324 z "},"₩":{"ha":1818,"x_min":0,"x_max":0,"o":"m 4 669 l 103 669 l 103 515 l 4 515 l 4 417 l 103 417 l 103 219 b 349 0 103 74 185 0 l 1468 0 b 1715 219 1632 0 1715 74 l 1715 417 l 1821 417 l 1821 515 l 1715 515 l 1715 669 l 1821 669 l 1821 768 l 1715 768 l 1715 1015 l 1486 1015 l 1486 768 l 1018 768 l 1018 1015 l 800 1015 l 800 768 l 331 768 l 331 1015 l 103 1015 l 103 768 l 4 768 z m 438 174 b 331 272 367 174 331 206 l 331 417 l 800 417 l 800 174 z m 1379 174 l 1018 174 l 1018 417 l 1486 417 l 1486 272 b 1379 174 1486 206 1450 174 z m 331 669 l 800 669 l 800 515 l 331 515 z m 1018 669 l 1486 669 l 1486 515 l 1018 515 z "},"₪":{"ha":1379,"x_min":0,"x_max":0,"o":"m 90 0 l 250 0 l 250 871 l 553 871 b 779 621 704 871 779 788 l 779 303 l 933 303 l 933 628 b 553 1015 933 886 807 1015 l 92 1015 z m 1281 1015 l 1121 1015 l 1121 144 l 818 144 b 593 393 668 144 593 228 l 593 713 l 438 713 l 438 388 b 818 0 438 129 564 0 l 1279 0 z "},"₫":{"ha":1026,"x_min":0,"x_max":0,"o":"m 1006 807 l 1006 908 l 851 908 l 851 1017 l 731 1017 l 731 908 l 315 908 l 315 807 l 731 807 l 731 601 l 338 601 b 76 396 163 601 76 533 l 76 333 b 338 118 76 190 163 118 l 579 118 b 851 351 761 118 851 196 l 851 807 z m 196 396 b 338 510 196 472 243 510 l 731 510 l 731 351 b 579 218 731 263 681 218 l 338 218 b 196 333 243 218 196 257 z m 76 -100 l 922 -100 l 922 13 l 76 13 z "},"€":{"ha":1385,"x_min":0,"x_max":0,"o":"m 393 743 b 499 842 393 808 428 842 l 1275 842 l 1336 1015 l 407 1015 b 161 796 243 1015 161 942 l 161 629 l 50 629 l 50 521 l 161 521 l 161 219 b 407 0 161 74 243 0 l 1293 0 l 1293 174 l 499 174 b 393 272 428 174 393 206 l 393 521 l 1167 521 l 1200 629 l 393 629 z "},"₭":{"ha":1551,"x_min":0,"x_max":0,"o":"m 1463 1006 l 1463 1015 l 1211 1015 l 774 596 l 428 596 l 428 1015 l 196 1015 l 196 594 l 42 594 l 42 451 l 196 451 l 196 0 l 428 0 l 428 449 l 772 449 l 1231 0 l 1492 0 l 1492 10 l 1056 451 l 1443 451 l 1443 594 l 1056 594 z "},"₮":{"ha":1372,"x_min":0,"x_max":0,"o":"m 314 296 l 568 403 l 568 283 l 314 176 l 314 74 l 568 181 l 568 0 l 801 0 l 801 281 l 1057 389 l 1057 492 l 801 383 l 801 503 l 1057 611 l 1057 714 l 801 606 l 801 842 l 1322 842 l 1322 1015 l 49 1015 l 49 842 l 568 842 l 568 506 l 314 399 z "},"₱":{"ha":1410,"x_min":0,"x_max":0,"o":"m 13 685 l 163 685 l 163 571 l 13 571 l 13 496 l 163 496 l 163 0 l 388 0 l 388 247 l 978 247 b 1251 494 1161 247 1251 329 l 1251 496 l 1397 496 l 1397 571 l 1251 571 l 1251 685 l 1397 685 l 1397 760 l 1251 760 l 1251 768 b 978 1015 1251 933 1161 1015 l 163 1015 l 163 760 l 13 760 z m 388 685 l 1029 685 l 1029 571 l 388 571 z m 388 872 l 913 872 b 1029 761 990 872 1029 836 l 1029 760 l 388 760 z m 913 385 l 388 385 l 388 496 l 1029 496 b 913 385 1028 421 989 385 z "},"₲":{"ha":1381,"x_min":0,"x_max":0,"o":"m 219 -187 l 367 0 l 1281 0 l 1281 499 b 1099 650 1281 600 1221 650 l 876 650 l 1256 1133 l 1161 1203 l 1013 1015 l 344 1015 b 97 796 181 1015 97 942 l 97 219 b 228 17 97 114 140 46 l 122 -118 z m 329 272 l 329 743 b 436 842 329 808 365 842 l 876 842 l 364 190 b 329 272 340 207 329 233 z m 990 503 b 1065 436 1040 503 1065 481 l 1065 174 l 503 174 l 761 503 z "},"₴":{"ha":1269,"x_min":0,"x_max":0,"o":"m 514 1018 b 231 758 326 1018 231 932 l 231 665 l 57 665 l 57 575 l 1211 575 l 1211 665 l 390 665 l 390 753 b 514 874 390 833 432 874 l 1058 874 l 1058 1018 z m 754 0 b 1038 260 942 0 1038 86 l 1038 353 l 1211 353 l 1211 443 l 57 443 l 57 353 l 878 353 l 878 265 b 754 144 878 185 836 144 l 210 144 l 210 0 z "},"₸":{"ha":1231,"x_min":0,"x_max":0,"o":"m 733 0 l 733 596 l 1168 596 l 1168 738 l 64 738 l 64 596 l 500 596 l 500 0 z m 64 879 l 1168 879 l 1168 1015 l 64 1015 z "},"₹":{"ha":1092,"x_min":0,"x_max":0,"o":"m 1054 756 l 850 756 l 850 797 b 831 907 850 840 843 876 l 1054 907 l 1054 1015 l 38 1015 l 38 907 l 593 907 b 621 797 611 875 621 840 l 621 756 l 38 756 l 38 647 l 621 647 l 621 583 b 525 506 621 528 586 506 l 307 506 l 307 417 l 563 0 l 796 0 l 796 10 l 551 386 l 557 386 b 850 610 750 386 850 465 l 850 647 l 1054 647 z "},"₺":{"ha":1347,"x_min":0,"x_max":0,"o":"m 39 575 l 183 622 l 183 501 l 39 454 l 39 353 l 183 400 l 183 0 l 1019 0 b 1293 247 1210 0 1293 82 l 1293 485 l 1068 485 l 1068 285 b 951 174 1068 210 1032 174 l 408 174 l 408 474 l 822 608 l 822 710 l 408 575 l 408 696 l 822 831 l 822 932 l 408 797 l 408 1015 l 183 1015 l 183 724 l 39 676 z "},"₼":{"ha":1394,"x_min":0,"x_max":0,"o":"m 283 360 b 400 471 283 435 321 471 l 593 471 l 593 0 l 803 0 l 803 471 l 994 471 b 1113 360 1074 471 1113 435 l 1113 1 l 1322 0 l 1322 385 b 1050 632 1322 550 1232 632 l 803 632 l 803 1015 l 593 1015 l 593 632 l 346 632 b 72 385 163 632 72 550 l 72 0 l 283 0 z "},"₽":{"ha":1381,"x_min":0,"x_max":0,"o":"m 63 414 l 221 414 l 221 268 l 63 268 l 63 158 l 221 158 l 221 0 l 446 0 l 446 158 l 979 158 l 979 268 l 446 268 l 446 414 l 1036 414 b 1308 661 1218 414 1308 496 l 1308 768 b 1036 1015 1308 933 1218 1015 l 221 1015 l 221 524 l 63 524 z m 446 858 l 963 858 b 1079 747 1040 858 1079 821 l 1079 636 b 963 524 1079 561 1040 524 l 446 524 z "}}}
